<?xml version="1.0" encoding="utf-8"?>
<!-- Generator: Adobe Illustrator 27.6.0, SVG Export Plug-In . SVG Version: 6.00 Build 0)  -->
<svg version="1.1" id="Layer_1" xmlns="http://www.w3.org/2000/svg" xmlns:xlink="http://www.w3.org/1999/xlink" x="0px" y="0px"
	 viewBox="0 0 512 512" style="enable-background:new 0 0 512 512;" xml:space="preserve">
<style type="text/css">
	.st0{fill:none;}
	.st1{fill:#FFFFFF;}
	.st2{fill:#FCFCFC;}
	.st3{fill:#FEFEFE;}
	.st4{fill:#FF3D00;}
	.st5{fill:#FE3D01;}
	.st6{fill:#FD3D02;}
	.st7{fill:#FE3D02;}
	.st8{fill:#020000;}
	.st9{fill:#010000;}
	.st10{fill:#FB3E04;}
	.st11{fill:#FC3E02;}
	.st12{fill:#F93F05;}
	.st13{fill:#F73E05;}
	.st14{fill:#F73F07;}
	.st15{fill:#FA4008;}
	.st16{fill:#F83E08;}
	.st17{fill:#F73F08;}
	.st18{fill:#F83F0B;}
	.st19{fill:#C6411E;}
	.st20{fill:#9A1502;}
	.st21{fill:#030000;}
	.st22{fill:#040000;}
	.st23{fill:#D32901;}
</style>
<path class="st0" d="M512,512H0V0h512V512z M165.8,86.2c-0.3,0.3-0.7,0.7-1,1c-1.1-0.2-2.2-0.4-3.2-0.6c0.5,0.4,1,0.9,1.5,1.3
	c-2,1.7-4.1,3.4-6.1,5.1c-1.2-0.6-2.9-2-3.5-1.6c-1.4,0.8-2.3,2.5-3.3,3.8c1,0.6,1.9,1.2,2.9,1.7c-1.4,1.3-2.7,2.7-4.1,4.1
	c-0.6-0.7-1.1-1.8-1.8-1.9c-3.3-0.7-4.4,1.8-3.2,7c-3.6,5.3-7.3,10.6-10.9,15.9c-3.4-0.3-6.1,0.6-7.1,4.4c-0.6,2.3-1.6,4.4-2.4,6.6
	c-1.1,2.6-0.7,4.5,2.5,5c-1.7,9.7-3.5,19.3-5.2,29c-1.2,1.5-3.5,3-3.5,4.5s2.2,3,3.5,4.5c1.6,9.4,2.8,18.9,4.8,28.2
	c1.8,8.6,4.3,17.1,6.4,25.7c-0.7,1.5-1.8,3-1.9,4.6c-0.3,3.5,0.3,3.9,3.9,3.4c0.6,2,1.2,4.1,1.8,6.1c-1.3,1.7-2.8,3.4-3.7,5.3
	c-0.2,0.4,1.7,1.8,2.7,2.8c-0.7,1.7-1.3,3.3-2,5c-3.7-0.6-5.5,1.9-6.6,4.7c-0.3,0.7,1.7,2.2,2.6,3.3c-1.7,5-3.3,10-5,15
	c-3.4,1.5-3.5,2.1-1,4c-0.2,1.4-0.5,2.7-0.7,4c-3.5-0.4-4.9,2-4.8,4.7c0,1.1,2.3,2.2,3.6,3.3c0,0.7,0,1.3,0,2
	c-0.3,0.3-0.6,0.5-0.8,0.8c-0.3,0.1-0.6,0.2-1,0.3c-0.7,0.1-1.3,0.3-2,0.5c1.1,1.7-1.8,5.5,2.8,5.4c0,3,0,6,0,9
	c-0.9,1.4-2.5,2.8-2.6,4.2c0,0.9,2.3,1.8,3.6,2.8c0,0.7,0,1.3,0,2c-0.9,1.4-2.5,2.8-2.6,4.2c0,0.9,2.3,1.8,3.6,2.8
	c0.1,0.6,0.1,1.3,0.2,1.9c-3.2,4.1-2.4,8.3-0.5,12.6c0.6,1.4,1.4,3,1.4,4.5c-0.1,4.2,1.6,6.3,5.9,6c0.3,1,0.7,2,1,3
	c-8.1,5.3,3.8,7.9,1.9,12.9c-0.6,1.4,2.3,4.3,5.3,2c8,9.7,16,19.3,24,29c-1.5,2.6-1.1,4.8,1.5,6.3c1.7,1,3.8,1.9,4.5-1.3
	c3.9,2.6,7.9,5.2,11.8,7.8c-3.8,3.3-0.6,4.6,1.8,6c4.4,2.5,8.9,4.8,13.3,7.1c2.6,1.4,5,2.4,6.1-1.7c3,1.2,6,2.5,9,3.8
	c-0.7,4.1,1.9,5.2,5.1,6.4c3.2,1.1,5.4,0.7,6.9-2.4c3.3,0.8,6.6,1.5,10,2.3c1.2,4.8,10.1,7.6,13.6,4.4c0.3-0.3,0.3-0.9,0.4-1.4
	c12.3,0,24.7,0,37,0c1.2,1.2,2.4,2.5,3.5,3.7c1.5-1.7,2.9-3.3,4.4-5c12.7-4.5,25.7-8.4,38.1-13.6c14.2-5.9,26.5-15,37.9-25.3
	c2.6,1.5,4.9,1.2,6.2-1.5c0.4-0.8-0.8-2.3-1.2-3.5c0.1-0.5-0.1-1.2,0.2-1.4c7.6-6.3,13.2-14,17.6-22.8c1.9-3.9,3.7-7.8,5.5-11.7
	c0.3-0.4,0.5-0.7,0.8-1.1c0.5-1,1-2.1,1.4-3.1c0.2-0.6,0.4-1.3,0.6-1.9c1.7-5.7,4.2-11.2,4.9-17c1.3-10.8,1.8-21.6,2.1-32.4
	c0.1-5.5,0-11.2-1.6-16.4c-3.1-10.1-7.1-19.9-11.3-29.6c-2.7-6.3-2.6-12.4-0.9-18.6c2.8-9.9,6-19.6,9.1-29.4
	c1.1-3.6,2.5-7.1,3.7-10.6c1.7-1.5,4.2-2.7,4.7-4.5c0.5-1.7-0.2-4.8-3.7-4.4c0-5.8-0.1-11.5,0.1-17.3c0.1-3.9,0.5-7.8,0.8-11.7
	c0.5-0.4,1-0.8,1.6-1.1c-0.1-0.1-0.2-0.2-0.3-0.3c-0.4,0.5-0.9,1-1.3,1.4c-0.3-2-0.3-4.2-0.9-6.1c-3.2-9-6.6-17.9-10-26.9
	c-0.3-0.4-0.5-0.7-0.8-1.1c-5-7.5-7.4-16.9-15.2-22.5c-0.1-0.1-0.1-0.3-0.1-0.5c0-1.9,0.7-4.7-0.2-5.4c-1.3-1-3.8-0.4-5.8-0.6
	c-8-5.4-16-10.9-24-16.3c-0.1-1.3,0.3-2.8-0.3-3.9c-0.6-1.2-2-2.4-3.1-2.6c-0.7-0.1-1.7,1.8-2.6,2.8c-4.3-1.7-8.6-3.4-12.9-5.1
	c-16.6-6.8-33.9-10.7-51.9-11c-12.6-0.2-25.3-0.3-37.9,0.1c-6.1,0.2-12.4,1.1-18.3,2.5c-8.7,2.1-17.2,4.9-25.8,7.4
	c-2.3-1.2-4.3-1.8-4.1,2.1c-0.7,0.2-1.4,0.5-2,0.7c-0.9-0.5-1.8-0.9-2.7-1.4c-0.1,0.9-0.1,1.7-0.2,2.6c-3.7,1.9-7.4,3.9-11.1,5.8
	c-0.6-0.5-1.2-1.1-1.9-1.6c-0.4,1-0.7,1.9-1.1,2.9c-1.7,1.2-3.4,2.5-5,3.7c-0.7-0.5-1.3-1-2-1.5C165.3,84.9,165.6,85.5,165.8,86.2
	L165.8,86.2z"/>
<path d="M209,429.9c-3-1.2-6-2.5-9-3.8c-7.1-3.8-14.1-7.6-21.1-11.5c-3.9-2.6-7.9-5.2-11.8-7.8c-2-1.7-4-3.3-6-5
	c-8-9.7-16-19.3-24-29c-2.4-5-4.8-9.9-7.2-14.9c-0.3-1-0.7-2-1-3c-2.3-7.7-4.5-15.4-6.8-23.1c-0.1-0.6-0.1-1.3-0.2-1.9
	c-0.3-2.3-0.7-4.7-1-7c0-0.7,0-1.3,0-2c-0.3-2.3-0.7-4.7-1-7c0-3,0-6,0-9c-0.3-2-0.5-3.9-0.8-5.9c0.3-0.1,0.6-0.2,1-0.3
	c0.3-0.3,0.6-0.5,0.8-0.8c0-0.7,0-1.3,0-2c0.4-2.6,0.8-5.3,1.3-8c0.2-1.4,0.5-2.7,0.7-4c0.3-1.3,0.7-2.7,1-4c1.7-5,3.3-10,5-15
	c1.3-2.7,2.7-5.3,4-8c0.7-1.7,1.3-3.3,2-5c0.3-2.7,0.7-5.3,1-8c-0.6-2-1.2-4.1-1.8-6.1c-0.7-2.7-1.3-5.3-2-8
	c-2.2-8.6-4.7-17.1-6.4-25.7c-1.9-9.3-3.2-18.8-4.8-28.2c0-3,0-6,0-9c1.7-9.7,3.5-19.3,5.2-29c2.3-5.3,4.7-10.7,7-16
	c3.6-5.3,7.3-10.6,10.9-15.9c1.7-1.7,3.3-3.4,5-5c1.4-1.3,2.7-2.7,4.1-4.1l3.9-3.9c2-1.7,4.1-3.4,6.1-5.1c0.6-0.2,1.2-0.5,1.8-0.7
	c0.3-0.3,0.7-0.7,1-1c0.4-0.2,0.8-0.4,1.1-0.5c1.7-1.2,3.4-2.5,5-3.7c1-0.4,2-0.8,3-1.3c3.7-1.9,7.4-3.9,11.1-5.8
	c1-0.4,1.9-0.8,2.9-1.2c0.7-0.2,1.4-0.5,2-0.7c1.4-0.7,2.7-1.4,4.1-2.1c8.6-2.5,17.1-5.3,25.8-7.4c6-1.4,12.2-2.3,18.3-2.5
	c12.6-0.4,25.3-0.3,37.9-0.1c18,0.3,35.2,4.2,51.9,11c4.3,1.8,8.6,3.4,12.9,5.1c2,1.2,4,2.5,6,3.7c8,5.4,16,10.9,24,16.3
	c2,2,4,3.9,5.9,5.9c0,0.2,0,0.4,0.1,0.5c7.9,5.6,10.2,15,15.2,22.5c0.3,0.4,0.5,0.7,0.8,1.1c3.3,9,6.8,17.9,10,26.9
	c0.7,1.9,0.6,4,0.9,6.1l0,0c-0.3,3.9-0.7,7.8-0.8,11.7c-0.1,5.8-0.1,11.5-0.1,17.3c-0.4,3-0.7,6-1.1,9c-1.2,3.5-2.6,7-3.7,10.6
	c-3.1,9.8-6.3,19.5-9.1,29.4c-1.7,6.2-1.8,12.3,0.9,18.6c4.2,9.7,8.2,19.5,11.3,29.6c1.6,5.1,1.7,10.9,1.6,16.4
	c-0.3,10.8-0.8,21.7-2.1,32.4c-0.7,5.8-3.2,11.4-4.9,17c-0.2,0.6-0.4,1.3-0.6,1.9c-0.5,1-1,2.1-1.4,3.1c-0.3,0.4-0.5,0.7-0.8,1.1
	c-1.8,3.9-3.6,7.9-5.5,11.7c-4.4,8.8-10,16.5-17.6,22.8c-0.3,0.2-0.1,1-0.2,1.4c-1.7,1.7-3.3,3.3-5,5
	c-11.3,10.4-23.7,19.4-37.9,25.3c-12.4,5.2-25.4,9.1-38.1,13.6c-2.6,0.4-5.3,0.9-8,1.3c-12.3,0-24.7,0-37,0l-14-3
	c-3.3-0.8-6.6-1.5-10-2.3C216.9,432.6,212.9,431.3,209,429.9L209,429.9z M209,375L209,375c-0.4-0.1-0.7-0.2-1-0.3
	c-4,4.8-2.4,9,4,10.7c0.3,0,0.6,0,0.9-0.1l1-0.3c0.4-0.3,0.7-0.5,1-0.8c0.7-0.7,1.4-1.5,2.1-2.2c0.1-0.6,0.2-1.3,0.2-2
	c0.2-3,0.4-6.1,0.6-9.1c0.4,0.4,0.8,0.8,1.2,1.1c2.3,3.9,3.1,3.9,5.2,0c0.5-0.4,1.1-0.9,1.6-1.3l-1.7-1.7c-1.8-3.6-5.1-3.6-8.1-2.8
	c-3.1,0.9-4.5,3.4-4.2,6.9c0.1,0.9-1.2,1.8-1.9,2.7C209.6,375.5,209.3,375.2,209,375L209,375z M186.9,345.9c0.4-0.2,0.7-0.5,1-0.8
	c1.3-0.8,2.6-1.6,4-2.3c2.7,2.4,2.9,0.4,3.1-1.8l0.1-0.1c0.1-0.1,0.4-0.2,0.4-0.2c0-0.2-0.1-0.5-0.2-0.7c-0.4-1-0.9-2-1.3-2.9
	c-0.3-0.4-0.5-0.7-0.8-1.1c-0.1-0.3-0.2-0.6-0.2-0.9c-0.2-0.4-0.5-0.7-0.7-1c-0.7-2-1.4-4-2-6.1c0.1-0.1,0.3-0.2,0.3-0.2
	c0-0.2-0.1-0.5-0.2-0.7l-0.4-2.9c-0.3-0.4-0.5-0.7-0.8-1.1c0-3.3,0-6.7,0-10c0.2-0.7,0.5-1.4,0.7-2c1.4-4.3,2.9-8.6,4.3-13
	c0.1-0.1,0.3-0.2,0.3-0.2c0-0.2-0.1-0.5-0.2-0.7l-0.2-1.1c-0.4-0.3-0.8-0.6-1.2-0.9l-3.9-1.9c-0.7-2.6-1.2-5.8-4.9-2.4
	c-1.2,0.4-3.1,0.5-3.5,1.4c-1.5,3.2-2.6,6.6-3.8,9.9c-0.2,0.4-0.5,0.8-0.7,1.1c-0.1,1-0.2,1.9-0.3,2.9c-0.2,0.3-0.5,0.7-0.7,1
	c0,6.3-0.2,12.6,0.2,18.9c0.2,3.7,1.2,7.3,1.9,11c-2,2.5-1.4,3.9,1.8,4c2,2,1.4,6.7,6.1,5.9C185.6,346.6,186.2,346.2,186.9,345.9
	L186.9,345.9L186.9,345.9z M290,239.9c-0.1-0.6-0.2-1.3-0.2-1.9c-0.6-0.1-1.2-0.2-1.8-0.4c0-1-0.1-1.9-0.1-2.9
	c0.5-2.3,1.4-4.6,1.5-7c0.1-1.5-0.9-3.1-1.4-4.7c-0.3-0.1-0.7-0.2-1-0.3c-1.7,4.8-3.3,9.5-5,14.3c-1-0.4-1.9-0.7-2.9-1.1
	c0-3.1,0.2-6.2-0.2-9.3c-0.2-2-1.3-4-2-6c-0.6,0-1.3,0-1.9,0c-0.8,1.8-1.6,3.6-2.4,5.3c-0.2,0.4-0.4,0.8-0.6,1.2
	c-0.9,2.5-1.8,5.1-2.5,7.6c-0.1,0.6,0.9,1.6,1.4,2.4c0.6-0.1,1.3-0.2,2-0.3l0,0c1,0,1.9,0,2.9,0c0.7,0.4,1.5,0.9,2.2,1.3
	c1.2-0.1,2.5-0.2,3.8-0.3c2,1,4.1,1.9,6.1,2.9C288.6,240.5,289.3,240.2,290,239.9L290,239.9L290,239.9z M331,295.9
	c0.2,0.3,0.5,0.6,0.7,1c3.3,7.7,4.8,15.7,4.1,24.1c-0.2,0.4-0.5,0.7-0.7,1c-1.1,5.1-2.2,10.3-3.4,16c0.7,0.5,2,1.3,3.4,2.1
	c0.1,0.4,0.3,0.8,0.4,1.2c0.2-0.1,0.4-0.3,0.6-0.5c0.3,0.1,0.7,0.2,1,0.3c0.4,0.3,0.7,0.5,1,0.8c1.6,0.4,3.3,0.8,4.9,1.2
	c0.4,0.5,0.7,0.9,1.1,1.4c0.3-0.9,0.6-1.7,0.9-2.6c1.4-4,2.8-8,4.3-12c0-0.6,0-1.3,0-1.9c0.1-8.2,0.3-16.4,0.4-24.7
	c0.4-0.4,0.7-0.8,1.1-1.3c-0.2-0.1-0.4-0.2-0.6-0.3c-0.1,0.5-0.3,1-0.5,1.5c-0.6-2.1-1.1-4.1-1.7-6.2c-0.2-0.4-0.5-0.7-0.7-1.1
	c-2.1-3.4-4.2-6.9-6.2-10.3c-0.7,0.7-1.3,1.4-2,2c-3,2.1-5.9,4.1-8.9,6.2l-1.6,1.2C329.3,295.4,330.2,295.7,331,295.9L331,295.9
	L331,295.9z M226,393c0.6,1,1.2,2.1,1.9,3.1c0.7-0.2,1.9-0.2,2.1-0.6c0.9-2.1,1.6-4.4,2.4-6.6c0.2-0.3,0.4-0.6,0.6-1
	c1-3.8,2-7.5,3-11.4c-1.4-0.9-2.9-1.7-4.8-2.9c-4.5,5.8-8.8,11.4-13.9,18c2.9,0.2,4.3,0.2,5.7,0.3C223.9,392.3,225,392.7,226,393
	L226,393z M303,386L303,386c0.1-2,0.1-4,0.2-6c-0.7-0.7-1.5-1.3-2.2-2c-0.7-1.3-1.4-2.7-2-4c0.3-0.6,0.6-1.3,0.9-2
	c1.1,0,2.1,0,3.2-0.1c2.9,2.8,5.7,5.8,8.8,8.5c1.3,1.2,3.2,1.7,4.9,2.5c1.1-1,2.1-2,3.2-3c0.3-1.3,0.7-2.6,1-3.9
	c-2.3-1.7-4.5-3.4-6.8-5c-0.7-0.7-1.5-1.5-2.2-2.2c-1.3-0.9-2.7-1.9-4-2.8c0.3-1,0.7-2,1-3c-0.3-0.3-0.6-0.7-0.9-1
	c-2.4,2-4.9,4-7.3,6c-0.9,0.9-1.8,1.9-2.8,2.8c-2.3,1.1-4.5,2.2-6.8,3.2c-0.2,0.3-0.3,0.6-0.5,0.9c1.8,3.4,3.6,6.7,5.3,10
	c0.2,0.3,0.5,0.6,0.7,1c0.4,0.6,0.9,1.3,1.3,2c0.3,0.4,0.5,0.7,0.8,1.1c1.6,3.5,3.6,4.8,6.4,1c0.1-0.1,0.3-0.3,0.3-0.4
	c-0.1-0.2-0.3-0.4-0.5-0.6l-1-1C303.6,387.3,303.3,386.6,303,386L303,386z M287.9,268.9L287.9,268.9c-0.5-1.2-1-2.4-1.5-3.6
	c-0.8,0.6-1.7,1.1-2.5,1.7c-0.3-0.1-0.7-0.1-1-0.2c-0.4-0.6-0.9-1.1-1.3-1.7c-0.6,0.6-1.1,1.1-1.7,1.7c-1.7,0.3-3.3,0.6-5,0.9
	c-0.4-0.5-0.9-1.1-1.3-1.6c-0.6,0.6-1.1,1.1-1.7,1.7c-1,0-2-0.1-3-0.1c-0.3,0-0.6,0-0.9-0.1c-2,0.5-4,0.9-6.1,1.4
	c-1,0.3-2,0.5-3,0.8c-1,0.1-2,0.2-3,0.4c-1.3,0-2.6,0-3.9,0c-1.4,0.3-2.7,0.7-4.1,1c-1.7,0.3-3.3,0.5-5,0.8
	c-2.6,0.4-5.3,0.8-7.9,1.1c-0.4,1.5-1,3-1,4.5c-0.1,7.8-0.1,15.6-0.2,23.4c-1.3,0-2.6,0-3.9,0c-1.3,0-2.6,0-3.9,0
	c-1.3,0.3-2.7,0.5-4,0.8c-0.5,4.2-1,8.5-1.6,13.7c3.9-0.6,6.6-1.1,9.4-1.6c0.7-1.2,1.4-2.4,2.1-3.6c0.6-1.1,1.2-2.2,1.8-3.4
	c0.2,2.4,0.4,4.7,0.6,7.1c0,1.6,0,3.2,0,4.8c0.2,6.7,0.5,13.4,0.7,20c5-0.7,9.9-1.3,14.9-2c0.3,0.1,0.7,0.2,1,0.3
	c1.3,0.6,2.6,1.2,3.9,1.8l0.3,11c0.3,0.6,0.5,1.2,0.8,1.8c3-0.3,5.9-0.6,8.9-0.9c0.4-0.2,0.7-0.4,1-0.6c4.8,0.1,7-1.9,6.1-6.9
	c-0.3-1.8,0.2-3.7-0.1-5.5c-0.8-5.1,1.1-7.2,6.4-7.2c2.2,0,6.1-1.4,6.2-2.6c0.5-3.6-0.4-7.4-0.7-11.2c-0.1-1-0.1-1.9-0.2-2.9
	c-1.2,0.9-2.5,1.8-3.7,2.7c-1,0.1-2,0.1-2.9,0.2c-0.3,0.2-0.7,0.5-1,0.7c-1,0-2,0.1-3.1,0.1c-0.3-0.3-0.5-0.5-0.8-0.8
	c0-2.7,0-5.4,0-8c0.6-0.6,1.2-1.2,1.8-1.9c1,0,2-0.1,2.9-0.1c0.3-0.2,0.7-0.5,1-0.7c3.3-0.5,6.6-0.9,9.9-1.4
	c0.7-0.2,1.4-0.5,2.1-0.7c0.8-0.8,1.5-1.5,2.3-2.3c0.2-0.4,0.5-0.7,0.7-1c0-3.3,0-6.5,0-9.8c0-1.7,0-3.4,0-5.2c0-2,0-4-0.1-6
	c-0.3-1.4-0.6-2.7-0.9-4c-0.7-1.7-1.3-3.5-2-5.2C289.3,270.1,288.6,269.5,287.9,268.9L287.9,268.9z M251.9,382
	c-0.4-0.6-0.8-1.2-1.2-1.9c-0.6,0.6-1.1,1.2-1.7,1.9c0,0.3-0.1,0.6-0.3,0.9c-1.2,0-2.4,0-3.6,0c-0.4-1.1-0.8-2.1-1.2-3.2
	c-0.3-0.5-0.7-1-1-1.4c-0.3,0.5-0.7,0.9-1,1.4c-1.6,5.2-3.4,10.4-4.6,15.7c-0.3,1.4,0.9,3.3,1.5,4.9c0.9-1.1,1.9-2.2,2.7-3.4
	c0.4-0.5,0.4-1.2,0.6-1.8c0.6,0,1.1-0.1,1.6-0.1c0.1,1,0.1,2,0.1,3c0.2,0.3,0.4,0.6,0.6,1c0.8,1.1,1.6,2.2,2.4,3.4
	c0.3-0.1,0.6-0.1,1-0.2c1.4-5.4,2.8-10.7,4.2-16.1c0.9-0.4,1.9-0.7,2.9-1c1,1.6,2.6,3.1,2.8,4.8c0.4,3.6,0,7.3,0.2,10.9
	c0.1,1.1,1.3,2.2,2,3.3c1-1.1,2.6-2.1,2.7-3.2c0.4-3.6-0.2-7.3,0.3-10.9c0.2-1.7,1.8-3.2,2.8-4.8c0.6-0.5,1.3-1,2-1.5
	c-0.7-0.5-1.3-1-2-1.5c-3.3,0-6.6,0-9.8,0.1C254.6,382.1,253.3,382,251.9,382L251.9,382L251.9,382z M216.9,249
	c-0.4-0.6-0.7-1.1-1.1-1.7c-0.3,0.5-0.6,0.9-0.9,1.4c-1-0.3-2-0.6-3-0.8l-0.7-0.9c0.2-0.7,0.4-1.4,0.7-2.1c0.9-0.5,1.7-1.1,2.6-1.6
	c-0.9-0.1-1.7-0.2-2.6-0.3c-1.6-0.3-3.3-0.6-5.4-1.1c1.1-1.9,1.9-3.1,2.7-4.4c-5-0.3-7.2,1.8-6.2,5.3c0.2,0.3,0.4,0.7,0.7,1
	c2.6,3.4,5.2,6.9,8.3,10.9C213.9,252.5,215.4,250.7,216.9,249L216.9,249z M239.9,237.9c-0.8-3.4-2.4-6-6-6.9c0-0.6,0-1.2,0-1.7
	c4-1.6,1.8-3.1-0.1-4.6c-1,0-1.9,0.1-2.9,0.1c-0.2,0.2-0.5,0.3-0.8,0.3c-0.4,0.3-0.9,0.6-1.3,0.9c-3.4,5.8,1.4,7.6,4.3,9.3
	c-0.8,1.9-1.3,3.3-1.9,4.7c1.8,0.4,3.6,1,5.4,1c0.9,0,1.7-1.3,2.5-2C239.5,238.5,239.7,238.2,239.9,237.9L239.9,237.9z M196,245.7
	c-2,1.6-4,3.2-6,4.8c3.7,4.2,6.5,7.4,9.5,10.4c0.7,0.7,2.2,0.4,3.4,0.6c0-0.8,0-1.6,0-2.5c-0.7-1.4-1.4-2.8-2-4.1
	c2.5-5.1,2-6.6-3-9.2C197.2,245.6,196.6,245.7,196,245.7L196,245.7z M256.8,234.9c0.7,0.8,1.4,1.5,2.5,2.7c0.6-2.5,1-4.1,1.5-5.9
	c1.5,2.2,2.6,3.8,3.7,5.5l1.2-0.6v-17.9c-2.1,2.1-3.2,3.3-4.1,4.2c-1.2-0.6-2.6-1.4-4.8-2.6v11.6c-1.5,0.1-3,0.3-4.5,0.4
	c0.1-0.3,0.2-0.5,0.3-0.8c-0.1-0.5-0.2-1-0.3-1.5c-0.4-1.4-0.7-2.8-1.1-4.1c0.1-0.1,0.3-0.1,0.3-0.2c0-0.2-0.1-0.4-0.1-0.6
	c-1.3-4.9-5.3-3.5-8.1-2.5c-1.3,0.5-1.8,3.9-2.2,6c-0.2,1.2,0.2,2.6,0.8,3.7c1.3,2.3,2.5,5.7,4.4,6.3c1.6,0.5,4.3-2.3,6.5-3.6
	C254.2,234.9,255.5,234.9,256.8,234.9L256.8,234.9z M217.7,243.9c0.8,1.3,1.6,2.6,2.8,4.5c1.1-0.9,1.9-1.7,2.8-2.4
	c0.6-0.4,1.2-0.7,1.8-1.1c1.3-0.3,2.7-0.6,4-0.9c0.5-0.7,1.1-1.4,1.6-2.1c-1-0.3-1.9-0.6-2.9-0.8c-1.2-2-2.4-4-3.7-5.9
	c-1.1-1.6-2.3-4.1-3.6-4.2c-2.2-0.2-4.8,0.9-6.8,2.2c-0.5,0.3,0.6,3.3,1.1,5.1c0.3,0.9,0.8,1.7,1.2,2.6c0.2,0.4,0.5,0.7,0.7,1.1
	c0.2,0.2,0.4,0.6,0.3,0.9C217.2,243.1,217.5,243.5,217.7,243.9L217.7,243.9z M282.2,393c-1.4-3.4-2.8-6.7-4.2-10.1
	c-0.3-0.6-0.7-1.3-1-2c-1.7,0-3.3,0.1-5,0.1c-0.5-0.2-1-0.4-1.5-0.6c0.2,0.5,0.4,1,0.6,1.5c0,5.6-0.1,11.3-0.1,17
	c0,1.2,0.7,2.4,1.1,3.6c1.4-0.5,2.8-1.1,4.1-1.6c0.2-1,0.5-2,0.7-3c0.8,0.2,1.6,0.3,2.2,0.7c1,0.6,1.8,1.5,2.7,2.3
	c0.7-1.3,1.4-2.5,2-3.8c-0.2-0.4-0.5-0.8-0.7-1.1c-0.1-0.4-0.2-0.7-0.2-1L282.2,393L282.2,393z M329,244.7c-1-0.9-2-1.8-3-2.7
	c0-0.7,0.2-1.6-0.1-1.9c-4.6-3.8-9.3-7.5-14.1-11c-0.3-0.2-1.8,1.1-2.7,1.7c-1.4,0.8-3.3,1.3-4.2,2.5c-2.2,3-3.9,6.4-5.8,9.6
	c-1.3,0.5-3.5,0.8-3.8,1.6c-0.7,2.3,0.1,4.3,3.1,4.3c3.2,0,6.5,0,9.7,0c0,0.6,0.1,1.3,0.1,1.9c-3.1,0.8-2,1.7-0.2,3
	c2.2,1.6,4.5,3.1,6.4,5.1c2.5,2.6,4.1,2.1,6.4-0.4c3-3.2,6.8-5.6,9.8-8.9c1-1.1,0.5-3.7,0.8-5.6C330.5,244.2,329.7,244.5,329,244.7
	L329,244.7z M290.9,184.7c3.9,0.5,8,0.2,11.6,1.5c8.9,3.2,17.5,6.9,26.2,10.7c4.3,1.9,7.6,1.1,10.3-2.6c6.4-8.7,12.2-17.7,14.6-28.6
	c2.5-11.1-2.5-26.7-11.2-32.7c-8.3-5.8-17.3-10.6-27.2-13.1c-8.8-2.2-17.7-3.9-26.6-5c-9.8-1.2-19.6-1.5-29.5-2.1
	c-1.6-0.1-3.2,0.9-4.8,1c-6.4,0.4-12.9,0.3-19.2,1c-15.8,1.7-30.7,6.1-45,13.1c-16.8,8.2-23,27.7-17.4,42.7
	c3.3,8.9,8.9,17,14.1,25.1c0.9,1.5,4.7,1.9,7,1.5c2.8-0.4,5.2-2.4,7.9-3.4c17.1-6.9,34.6-12.2,53.2-11.9c11.7,0.2,23.3,1.2,35,1.9
	C290.3,184.2,290.6,184.5,290.9,184.7L290.9,184.7z"/>
<path class="st1" d="M178.8,414.7c7.1,3.8,14.1,7.6,21.1,11.5c-1.1,4.1-3.5,3-6.1,1.7c-4.4-2.4-8.9-4.7-13.3-7.1
	C178.2,419.4,175,418,178.8,414.7L178.8,414.7z"/>
<path class="st1" d="M122,331.9c2.3,7.7,4.5,15.4,6.8,23.1c-4.3,0.3-6-1.8-5.9-6c0-1.5-0.8-3.1-1.4-4.5
	C119.5,340.2,118.8,335.9,122,331.9L122,331.9z"/>
<path class="st1" d="M133,121.9c-2.4,5.3-4.7,10.7-7.1,16c-3.2-0.5-3.6-2.3-2.5-5c0.9-2.2,1.9-4.3,2.4-6.6
	C126.9,122.5,129.6,121.7,133,121.9z"/>
<path class="st1" d="M129.8,358c2.4,5,4.8,9.9,7.2,14.9c-3,2.3-5.9-0.6-5.3-2C133.6,365.9,121.7,363.3,129.8,358L129.8,358z"/>
<path class="st1" d="M209,429.9c4,1.3,8,2.6,12,4c-1.5,3.1-3.7,3.5-6.9,2.4C210.9,435.1,208.3,434,209,429.9z"/>
<path class="st1" d="M230.9,436.2l14,3c-0.1,0.5-0.1,1.1-0.4,1.4C241.1,443.9,232.1,441,230.9,436.2L230.9,436.2z"/>
<path class="st1" d="M402.9,197.9c0.4-3,0.7-6,1.1-9c3.4-0.4,4.2,2.8,3.7,4.4C407,195.2,404.5,196.4,402.9,197.9L402.9,197.9z"/>
<path class="st1" d="M161,401.9c2,1.7,4,3.3,6,5c-0.7,3.2-2.8,2.3-4.5,1.3C159.8,406.7,159.5,404.5,161,401.9L161,401.9z"/>
<path class="st1" d="M282,439.2c2.6-0.4,5.3-0.9,8-1.3c-1.5,1.7-2.9,3.3-4.4,5C284.3,441.7,283.1,440.4,282,439.2z"/>
<path class="st1" d="M157,93c-1.3,1.3-2.6,2.6-3.9,3.9c-1-0.6-1.9-1.2-2.9-1.7c1.1-1.3,1.9-3,3.3-3.8C154.1,91,155.8,92.4,157,93
	L157,93z"/>
<path class="st1" d="M132.8,256.9l-4,8c-0.9-1.1-2.8-2.6-2.6-3.3C127.3,258.8,129.1,256.4,132.8,256.9z"/>
<path class="st1" d="M377.9,102.9l-5.9-5.9c2,0.1,4.5-0.4,5.8,0.6C378.6,98.2,377.9,101,377.9,102.9L377.9,102.9z"/>
<path class="st1" d="M120.8,166.9v9c-1.2-1.5-3.5-3-3.5-4.5S119.5,168.4,120.8,166.9z"/>
<path class="st1" d="M132,229.8c0.7,2.7,1.3,5.3,2,8c-3.6,0.5-4.2,0.1-3.9-3.4C130.2,232.9,131.3,231.4,132,229.8L132,229.8z"/>
<path class="st1" d="M122,288c-0.4,2.6-0.8,5.3-1.3,8c-1.3-1.1-3.6-2.2-3.6-3.3C117.2,289.9,118.6,287.6,122,288L122,288z"/>
<path class="st1" d="M365.9,399c1.7-1.7,3.3-3.3,5-5c0.4,1.2,1.6,2.7,1.2,3.5C370.7,400.1,368.4,400.5,365.9,399z"/>
<path class="st1" d="M135.8,243.9c-0.3,2.7-0.7,5.3-1,8c-0.9-0.9-2.9-2.4-2.7-2.8C133,247.3,134.5,245.6,135.8,243.9L135.8,243.9z"
	/>
<path class="st1" d="M148.9,101c-1.7,1.7-3.3,3.4-5,5c-1.1-5.2,0-7.7,3.2-7C147.9,99.2,148.4,100.3,148.9,101L148.9,101z"/>
<path class="st1" d="M348,80.7c-2-1.2-4-2.5-6-3.7c0.9-1,1.9-2.9,2.6-2.8c1.2,0.2,2.5,1.5,3.1,2.6C348.2,77.8,347.9,79.4,348,80.7
	L348,80.7z"/>
<path class="st1" d="M120.8,323c0.3,2.3,0.7,4.7,1,7c-1.3-0.9-3.6-1.9-3.6-2.8C118.2,325.8,119.8,324.4,120.8,323L120.8,323z"/>
<path class="st1" d="M119.8,314c0.3,2.3,0.7,4.7,1,7c-1.3-0.9-3.6-1.9-3.6-2.8C117.2,316.8,118.8,315.4,119.8,314L119.8,314z"/>
<path class="st1" d="M119,299.1c0.3,2,0.5,3.9,0.8,5.9c-4.5,0-1.7-3.7-2.8-5.4C117.7,299.4,118.3,299.2,119,299.1z"/>
<path class="st1" d="M188.9,73.7c-1,0.4-1.9,0.8-2.9,1.2c0.1-0.9,0.1-1.7,0.2-2.6C187.1,72.8,188,73.2,188.9,73.7z"/>
<path class="st1" d="M123.8,280c-0.3,1.3-0.7,2.7-1,4C120.2,282,120.4,281.5,123.8,280z"/>
<path class="st1" d="M195.1,70.9c-1.4,0.7-2.7,1.4-4.1,2.1C190.7,69.1,192.7,69.7,195.1,70.9z"/>
<path class="st1" d="M174.9,80.7c-1,0.4-2,0.8-3,1.3l1.1-2.9C173.7,79.6,174.3,80.2,174.9,80.7L174.9,80.7z"/>
<path class="st1" d="M164.8,87.2c-0.6,0.2-1.2,0.5-1.8,0.7c-0.5-0.4-1-0.9-1.5-1.3C162.7,86.8,163.7,87,164.8,87.2z"/>
<path class="st1" d="M166.9,85.7c-0.4,0.2-0.8,0.4-1.1,0.5c-0.3-0.7-0.6-1.3-0.9-2C165.6,84.7,166.3,85.2,166.9,85.7L166.9,85.7z"/>
<path class="st1" d="M404.8,159.9L404.8,159.9c0.4-0.5,0.9-1,1.3-1.4c0.1,0.1,0.2,0.2,0.3,0.3L404.8,159.9L404.8,159.9z"/>
<path class="st2" d="M396.4,353.8c0.2-0.6,0.4-1.3,0.6-1.9C396.8,352.5,396.6,353.1,396.4,353.8z"/>
<path class="st3" d="M393.9,127c-0.3-0.4-0.5-0.7-0.8-1.1C393.4,126.3,393.7,126.6,393.9,127z"/>
<path class="st1" d="M120.8,298c-0.3,0.3-0.6,0.5-0.8,0.8C120.2,298.5,120.5,298.2,120.8,298z"/>
<path class="st2" d="M394.2,358c0.3-0.4,0.5-0.7,0.8-1.1C394.7,357.2,394.4,357.6,394.2,358z"/>
<path class="st0" d="M289.9,183.9c-11.6-0.7-23.3-1.8-35-1.9c-18.6-0.3-36.1,5-53.2,11.9c-2.7,1.1-5.2,3-7.9,3.4
	c-2.3,0.4-6.1,0-7-1.5c-5.1-8.1-10.8-16.2-14.1-25.1c-5.6-15,0.6-34.5,17.4-42.7c14.3-7,29.3-11.4,45-13.1c6.4-0.7,12.8-0.6,19.2-1
	c1.6-0.1,3.2-1.1,4.8-1c9.8,0.5,19.7,0.9,29.5,2.1c9,1.1,17.9,2.8,26.6,5c9.9,2.4,18.8,7.2,27.2,13.1c8.7,6.1,13.6,21.7,11.2,32.7
	c-2.4,10.9-8.2,19.8-14.6,28.6c-2.7,3.7-6,4.5-10.3,2.6c-8.6-3.8-17.3-7.5-26.2-10.7c-3.6-1.3-7.7-1.1-11.6-1.5
	C290.6,184.4,290.2,184.2,289.9,183.9L289.9,183.9z"/>
<path class="st4" d="M290,270.7c0.7,1.7,1.3,3.5,2,5.2c0.3,1.4,0.6,2.7,0.9,4c0,2,0,4,0.1,6c-0.3,0-0.6,0.1-0.9,0.1
	c-1.4,0.3-2.7,0.5-4.1,0.8c-0.6,0.2-1.2,0.3-1.9,0.5c-6.9,2.2-8.3,1.8-10.8-4.6c-1.5-3.8-4.2-2.9-6.9-2.5c-3.2,0.5-6.3,1-9.5,1.7
	c-2.3,0.5-4.6,1.3-6.9,2c-0.4,1.7-1.1,3.3-1.1,5c-0.1,14,0,28.1-0.1,42.2c0,1.9-0.6,3.8-1,5.7c-5,0.7-9.9,1.3-14.9,2
	c-0.2-6.7-0.5-13.4-0.7-20c0-1.6,0-3.2,0-4.8c0.2-1.8,0.6-3.5,0.6-5.3c0.1-11.9,0.1-23.8,0.1-35.6c2.6-0.4,5.3-0.8,7.9-1.1
	c1.7-0.3,3.3-0.5,5-0.8c1.4-0.3,2.7-0.7,4.1-1c1.3,0,2.6,0,3.9,0c1-0.1,2-0.2,3-0.4c1-0.3,2-0.5,3-0.8c2-0.5,4-0.9,6.1-1.4l0.4,0.1
	l0.5,0c1,0,2,0.1,3,0.1c1,0,2,0,3-0.1c1.7-0.3,3.3-0.6,5-0.9h3c0.3,0.1,0.7,0.1,1,0.2c1.3,0.7,2.7,1.3,4,2l0,0
	C288.6,269.5,289.3,270.1,290,270.7L290,270.7z"/>
<path class="st5" d="M292.9,291c0,3.3,0,6.5,0,9.8c-0.2,0.4-0.5,0.7-0.7,1c-0.8,0.8-1.5,1.5-2.3,2.3c-0.7,0.2-1.4,0.5-2.1,0.7
	c-3.3,0.5-6.6,0.9-9.9,1.4c-0.3,0.2-0.7,0.5-1,0.7c-1,0-2,0.1-2.9,0.1l-1.8,1.9c0,2.7,0,5.4,0,8c0.3,0.3,0.5,0.5,0.8,0.8
	c1,0,2-0.1,3.1-0.1c0.3-0.2,0.7-0.5,1-0.7c1-0.1,2-0.1,2.9-0.2c1.3,0.1,2.6,0.1,3.9,0.2c0.3,3.7,1.2,7.6,0.7,11.2
	c-0.2,1.2-4.1,2.6-6.2,2.6c-5.3,0-7.1,2.1-6.4,7.2c0.3,1.8-0.2,3.7,0.1,5.5c0.9,5-1.3,7-6.1,6.9c-0.4,0.2-0.7,0.4-1,0.6
	c-3,0.3-5.9,0.6-8.9,0.9c-0.3-0.6-0.5-1.2-0.8-1.8l-0.3-11l0.3-1c0.1-0.1,0.3-0.2,0.3-0.3c-0.1-0.3-0.2-0.5-0.3-0.7c0-0.6,0-1.3,0-2
	c0.1-0.1,0.3-0.2,0.3-0.3c-0.1-0.3-0.2-0.5-0.3-0.7c0-11.7,0-23.3,0-35c0.9-1,1.8-1.9,2.8-2.9c3.4-0.6,6.7-1.4,10.1-1.8
	C276.4,293.1,284.7,292.1,292.9,291L292.9,291z"/>
<path class="st6" d="M193.9,295.9c0.1,0.4,0.2,0.7,0.2,1.1c-0.1,0.3-0.2,0.6-0.1,0.9c-1.4,4.3-2.9,8.6-4.3,13
	c-0.2,0.7-0.5,1.4-0.7,2c0,3.3,0,6.7,0,10c0.3,0.4,0.5,0.7,0.8,1.1c0.1,1,0.2,1.9,0.4,2.9c-0.2,0.3-0.2,0.6-0.1,0.9
	c0.7,2,1.4,4,2,6.1c0.2,0.4,0.5,0.7,0.7,1c0,0.3,0.1,0.6,0.2,0.9c0.3,0.4,0.5,0.7,0.8,1.1c0.4,1,0.9,2,1.3,2.9
	c-0.1,0.3-0.2,0.6-0.2,1L195,341c-1,0.6-2.1,1.2-3.1,1.8c-1.3,0.8-2.6,1.6-4,2.3c-0.4,0.2-0.7,0.5-1,0.8l0,0c-0.7,0.3-1.3,0.7-2,1
	c-4.7,0.8-4.1-3.9-6.1-5.9c-0.6-1.4-1.2-2.7-1.8-4c-0.7-3.7-1.7-7.3-1.9-11c-0.3-6.3-0.1-12.6-0.2-18.9c0.2-0.3,0.5-0.7,0.7-1
	c0.1-1,0.2-1.9,0.3-2.9c0.2-0.4,0.5-0.8,0.7-1.1c1.2-3.3,2.3-6.7,3.8-9.9c0.4-0.8,2.3-0.9,3.5-1.4c1.6,0.8,3.3,1.6,4.9,2.4
	c1.3,0.6,2.6,1.3,3.9,1.9C193.1,295.3,193.5,295.6,193.9,295.9L193.9,295.9z"/>
<path class="st7" d="M337,341.2c-0.3-0.1-0.7-0.2-1-0.3c-0.3-0.2-0.7-0.5-1-0.7c-1.3-0.9-2.7-1.7-3.4-2.1c1.2-5.7,2.3-10.8,3.4-16
	c0.2-0.4,0.5-0.7,0.7-1c0.7-8.4-0.8-16.4-4.1-24.1c-0.2-0.3-0.5-0.6-0.7-1l0,0c-0.3-0.7-0.6-1.4-0.9-2c3-2.1,5.9-4.1,8.9-6.2
	c0.7-0.7,1.3-1.4,2-2c2.1,3.4,4.2,6.9,6.2,10.3c0.2,0.4,0.5,0.7,0.7,1.1c0.6,2.1,1.1,4.1,1.7,6.2l0,0.1c-0.1,8.2-0.3,16.4-0.4,24.7
	c0,0.6,0,1.3,0,1.9c-1.4,4-2.8,8-4.3,12c-0.7,0.4-1.3,0.8-2,1.2c-1.6-0.4-3.3-0.8-4.9-1.2C337.7,341.7,337.3,341.4,337,341.2
	L337,341.2z"/>
<path class="st8" d="M255.2,335c0,0.6,0,1.3,0,2c0,0.4,0,0.7,0,1c-0.1,0.3-0.2,0.6-0.3,1c-1.3-0.6-2.6-1.2-3.9-1.8
	c0.3-1.7,0.9-3.5,0.9-5.2c0.1-16,0.2-32,0.2-48c2.3-0.7,4.5-1.5,6.8-2c3.1-0.7,6.3-1.2,9.5-1.7c2.7-0.4,5.4-1.3,6.9,2.5
	c2.5,6.3,3.9,6.8,10.8,4.6c0.6-0.2,1.2-0.4,1.9-0.5c1.4-0.3,2.7-0.5,4.1-0.8c0.3,0,0.6,0,0.9-0.1c0,1.7,0,3.4,0,5.2
	c-8.3,1.1-16.6,2.1-24.8,3.2c-3.4,0.5-6.8,1.2-10.1,1.8c-2.3-0.4-3.4,0.4-2.8,2.9c0,11.7,0,23.3,0,35
	C255.2,334.3,255.2,334.6,255.2,335L255.2,335z"/>
<path class="st9" d="M308,248.9c-3.2,0-6.5,0-9.7,0c-3,0-3.9-2-3.1-4.3c0.3-0.9,2.5-1.1,3.8-1.6c0.4,2.8,1.5,4.2,4.2,1.9
	c0.2-0.4,0.5-0.7,0.7-1l0,0c1.7-1,3.4-2,5-3.1c0-0.6,0-1.3,0-1.9c1-1.3,2-2.7,3-4c-1-1.3-2-2.7-3-4c0.9-0.6,2.4-2,2.7-1.7
	c4.8,3.5,9.5,7.2,14.1,11c0.3,0.3,0.1,1.3,0.1,1.9c-1.8-1.1-3.3-1.7-3.9,1.2c-0.3,1.5-0.5,3.2-1.4,4.4c-1.7,2.6-3.8,4.9-5.8,7.3
	c0.1,0.5,0.3,1,0.4,1.4c1.6-0.4,3.3-0.6,4.8-1.1c3.8-1.4,3.9-7.6,9.1-7.2c-0.1-1.1-0.2-2.2-0.3-3.3c0.8-0.3,1.5-0.5,2.3-0.8
	c-0.2,1.9,0.3,4.5-0.8,5.6c-2.9,3.2-6.8,5.7-9.8,8.9c-2.3,2.5-3.9,3-6.4,0.4c-1.9-1.9-4.2-3.5-6.4-5.1c-1.8-1.2-2.9-2.2,0.2-3
	c1,0.1,2.5,0.6,2.9,0.2c2.9-3.9,5.6-7.8,8.1-11.9c0.2-0.3-1.4-1.6-2.1-2.4c-0.3,0.1-0.6,0.2-0.9,0.3C313.3,241,310.7,245,308,248.9
	L308,248.9z"/>
<path class="st10" d="M242.2,395.1c-0.2,0.6-0.3,1.3-0.6,1.8c-0.8,1.2-1.8,2.3-2.7,3.4c-0.5-1.6-1.8-3.5-1.5-4.9
	c1.2-5.3,3-10.5,4.6-15.7c0.7,0,1.3,0,2,0c0.4,1.1,0.8,2.1,1.2,3.2c0.6,1,1.1,2.1,2.1,3.9c0.7-1.9,1.1-2.9,1.5-3.9
	c0.2-0.3,0.2-0.6,0.3-0.9c1,0,2,0,3,0l0,0c0.1,1.3,0.2,2.6,0.3,4c-1.4,5.4-2.8,10.7-4.2,16.1c-0.3,0-0.7,0.1-1,0.2
	c-0.8-1.1-1.6-2.2-2.4-3.4c-0.2-0.3-0.4-0.6-0.6-1c-0.1-1-0.1-2-0.1-3c-0.1-0.5-0.3-1.1-0.4-1.6C243,394,242.6,394.6,242.2,395.1
	L242.2,395.1z"/>
<path class="st11" d="M283.9,397.2c-0.7,1.3-1.4,2.5-2,3.8c-0.9-0.8-1.7-1.6-2.7-2.3c-0.6-0.4-1.5-0.5-2.2-0.7c-0.2,1-0.5,2-0.7,3
	l-4.1,1.6c-0.4-1.2-1.1-2.4-1.1-3.6c-0.1-5.6,0-11.3,0.1-17c0.3-0.3,0.6-0.6,0.9-0.9c1.7,0,3.3-0.1,5-0.1c0.3,0.6,0.7,1.3,1,2
	c1.4,3.4,2.8,6.7,4.2,10.1c0.3,0.6,0.5,1.3,0.8,2c0.1,0.4,0.2,0.7,0.2,1C283.4,396.4,283.7,396.8,283.9,397.2L283.9,397.2z"/>
<path class="st12" d="M232.3,388.9c-0.8,2.2-1.4,4.5-2.4,6.6c-0.2,0.4-1.4,0.4-2.1,0.6c-0.3-1.1-0.7-2.2-1-3.3
	c-0.4-0.9-0.8-1.8-1.1-2.7c-0.9,0.6-1.9,1.2-2.8,1.9c-1.4-0.1-2.8-0.2-5.7-0.3c5.1-6.6,9.4-12.2,13.9-18c1.9,1.1,3.4,2,4.8,2.9
	c-1,3.9-2,7.7-3,11.4C232.7,388.3,232.5,388.6,232.3,388.9L232.3,388.9z"/>
<path class="st13" d="M224.2,372c-2.2,3.9-2.9,3.9-5.2,0c0.2-0.6,0.4-1.2,0.7-1.8c-0.6,0.2-1.2,0.4-1.8,0.6c-0.2,3-0.4,6.1-0.6,9.1
	c-0.1,0.6-0.2,1.3-0.2,2c-0.7,0.7-1.4,1.5-2.1,2.2c-0.4,0.3-0.7,0.5-1,0.8c-0.3,0.1-0.6,0.2-1,0.3c-0.3-0.1-0.6-0.1-0.9,0.1
	c-6.4-1.7-8-5.9-4-10.7c0.3,0.1,0.6,0.2,0.9,0.3l0,0c0.3,0.3,0.6,0.5,0.9,0.8c0.7-0.9,2-1.9,1.9-2.7c-0.2-3.5,1.2-6,4.2-6.9
	c3-0.8,6.3-0.8,8.1,2.8C224.2,370,224.2,371,224.2,372L224.2,372z"/>
<path class="st12" d="M251.3,225.9c0.4,1.4,0.7,2.8,1.1,4.1c0.1,0.5,0.2,1,0.3,1.5c-0.1,0.3-0.2,0.5-0.3,0.8
	c0.2,0.9,0.4,1.7,0.6,2.6c-2.2,1.3-4.9,4.1-6.5,3.6c-2-0.6-3.2-4-4.4-6.3c-0.6-1.1-1-2.6-0.8-3.7c0.4-2.2,0.9-5.6,2.2-6
	c2.7-1,6.7-2.4,8.1,2.5C251.2,225.3,251.2,225.6,251.3,225.9L251.3,225.9z"/>
<path class="st14" d="M321,376l-1,3.9c-1.1,1-2.1,2-3.2,3c-1.6-0.8-3.5-1.3-4.9-2.5c-3.1-2.6-5.9-5.6-8.8-8.5
	c-0.8-1.3-1.6-2.6-2.3-4c2.4-2,4.9-4,7.3-6c0.3,0.3,0.6,0.7,0.9,1c-0.3,1-0.7,2-1,3c-3.8,3,1.2,3,1.2,4.8c1.2-0.9,2-1.4,2.8-2
	c0.7,0.7,1.5,1.5,2.2,2.2c-0.6,0.9-1.3,1.8-2,2.8c1.3,1.4,2.6,2.6,3.6,3.7C317.7,376.9,319.3,376.5,321,376L321,376z"/>
<path class="st14" d="M216,240.8c-0.4-0.9-1-1.7-1.2-2.6c-0.5-1.7-1.6-4.8-1.1-5.1c2-1.3,4.5-2.3,6.8-2.2c1.3,0.1,2.5,2.6,3.6,4.2
	c1.3,1.9,2.5,3.9,3.7,5.9c0.4,1,0.9,1.9,1.3,2.9c-1.3,0.3-2.7,0.6-4,0.9c-0.8-1.2-1.5-2.4-2.3-3.7c-0.5,0.4-0.9,0.8-1.4,1.2
	c0.6,1.2,1.3,2.4,1.9,3.6c-0.9,0.8-1.7,1.5-2.8,2.4c-1.1-1.8-2-3.2-2.8-4.5c-0.2-0.4-0.5-0.7-0.7-1.1c0-0.4-0.1-0.6-0.3-0.9
	C216.4,241.5,216.2,241.2,216,240.8L216,240.8z"/>
<path class="st15" d="M256.7,231.9v-11.6c2.2,1.2,3.6,2,4.8,2.6c0.9-0.9,2-2.1,4.1-4.2v17.9l-1.2,0.6c-1.1-1.6-2.2-3.3-3.7-5.5
	c-0.5,1.8-0.8,3.4-1.5,5.9c-1.1-1.2-1.8-1.9-2.5-2.7L256.7,231.9L256.7,231.9z"/>
<path class="st5" d="M256,382.1c3.3,0,6.6,0,9.8-0.1c0,1,0,2,0,2.9c-1,1.6-2.6,3.1-2.8,4.8c-0.4,3.6,0.1,7.3-0.3,10.9
	c-0.1,1.2-1.8,2.2-2.7,3.2c-0.7-1.1-2-2.1-2-3.3c-0.3-3.6,0.2-7.3-0.2-10.9c-0.2-1.7-1.8-3.2-2.8-4.8C255.3,384,255.7,383,256,382.1
	L256,382.1z"/>
<path class="st10" d="M304,388c0.3,0.3,0.7,0.7,1,1c0.1,0.3,0.1,0.6,0.3,1c-2.8,3.8-4.8,2.6-6.4-1c-0.3-0.4-0.5-0.7-0.8-1.1
	c-0.4-0.6-0.9-1.3-1.3-2c-0.2-0.3-0.5-0.6-0.7-1c-1.8-3.4-3.6-6.7-5.3-10c0.2-0.3,0.3-0.6,0.5-0.9c2.3-1.1,4.5-2.2,6.8-3.2
	c0.6,0.4,1.3,0.8,1.9,1.2c-0.3,0.6-0.6,1.3-0.9,2c-0.7,0.8-2.2,1.9-2,2.4c0.6,1.8,1.6,4,4.1,1.6c0.7,0.7,1.5,1.3,2.2,2
	c-1.3,2-4.3,3.9-0.2,6l0,0C303.3,386.6,303.6,387.3,304,388L304,388z"/>
<path class="st6" d="M226,301h3.9c0,4.3,0,8.6-0.1,13c-2.8,0.5-5.6,0.9-9.4,1.6c0.6-5.3,1.1-9.5,1.6-13.7
	C223.3,301.5,224.6,301.2,226,301L226,301z"/>
<path class="st16" d="M202.9,259c0,0.8,0,1.6,0,2.5c-1.1-0.2-2.7,0.1-3.4-0.6c-3-3-5.7-6.2-9.5-10.4c2-1.6,4-3.2,6-4.8
	c0.6,0,1.3-0.1,1.9-0.1c5,2.6,5.5,4.1,3,9.2C201.6,256.2,202.2,257.6,202.9,259L202.9,259z"/>
<path class="st17" d="M276.9,220.7c0.7,2,1.8,3.9,2,6c0.4,3.1,0.2,6.2,0.2,9.3c-0.4,0.8-0.7,1.5-1.1,2.3c-0.7-0.4-1.5-0.9-2.2-1.3
	c-0.5-0.7-0.9-1.3-1.4-2l-1.5,2l0,0c-0.6,0.1-1.3,0.2-2,0.3c-0.5-0.8-1.6-1.7-1.4-2.4c0.6-2.6,1.6-5.1,2.5-7.6
	c0.2-0.4,0.4-0.8,0.6-1.2c0.8-1.8,1.6-3.6,2.4-5.3C275.6,220.7,276.3,220.7,276.9,220.7L276.9,220.7z"/>
<path class="st17" d="M239.3,238.9c-0.9,0.7-1.7,2-2.5,2c-1.8,0-3.6-0.6-5.4-1c0.6-1.4,1.1-2.8,1.9-4.7c-2.9-1.7-7.7-3.6-4.3-9.3
	c0.4-0.3,0.9-0.6,1.3-0.9c0.3,0.1,0.6,0,0.8-0.3c1,0,1.9-0.1,2.9-0.1c1.9,1.5,4,3,0.1,4.6c-0.8-0.4-1.6-0.9-2.4-1.3
	c-0.2,0.2-0.3,0.5-0.5,0.7c1,0.8,1.9,1.6,2.9,2.3c3.6,0.9,5.3,3.5,6,6.9C239.7,238.2,239.5,238.6,239.3,238.9L239.3,238.9z"/>
<path class="st14" d="M211.9,244.9c-0.2,0.7-0.4,1.4-0.7,2.1c0.2,0.3,0.5,0.6,0.7,0.9c1,0.3,2,0.6,3,0.8c0.7,0.1,1.3,0.2,2,0.3
	c-1.5,1.7-3,3.5-5,5.8c-3.1-4-5.7-7.4-8.3-10.9c-0.2-0.3-0.4-0.7-0.7-1c-1-3.6,1.2-5.6,6.2-5.3c-0.8,1.3-1.5,2.5-2.7,4.4
	c2.2,0.4,3.8,0.8,5.4,1.1C211.9,243.6,211.9,244.3,211.9,244.9L211.9,244.9z"/>
<path class="st18" d="M329,244.8c0.1,1.1,0.2,2.2,0.3,3.3c-5.2-0.4-5.3,5.8-9.1,7.2c-1.5,0.6-3.2,0.8-4.8,1.1
	c-0.1-0.5-0.3-1-0.4-1.4c2-2.4,4-4.7,5.8-7.3c0.8-1.2,1-2.9,1.4-4.4c0.6-2.9,2.1-2.3,3.9-1.2C326.9,243,328,243.9,329,244.8
	L329,244.8z"/>
<path class="st17" d="M309,238.9c0,0.6,0,1.3,0,1.9c-2.1,0.3-4.8-0.4-5,3.1l0,0c-0.2,0.4-0.5,0.7-0.7,1c-2.8,2.3-3.8,0.8-4.2-1.9
	c1.9-3.2,3.6-6.6,5.8-9.6c0.9-1.2,2.8-1.7,4.2-2.5c1,1.3,2,2.7,3,4c-1.6,0.5-3.2,1-4.8,1.6C307.8,237.3,308.4,238.1,309,238.9
	L309,238.9z"/>
<path class="st17" d="M288,223.1c0.5,1.6,1.5,3.1,1.4,4.7c-0.1,2.4-1,4.7-1.5,7c0,1,0.1,1.9,0.1,2.9c0.6,0.1,1.2,0.2,1.8,0.4
	c0.1,0.6,0.2,1.3,0.2,1.9l0,0c-0.7,0.3-1.4,0.6-2,0.9c-2-1-4.1-1.9-6.1-2.9c0.1-0.3,0.2-0.6,0.2-0.9c1.7-4.8,3.3-9.5,5-14.3
	C287.3,222.8,287.6,222.9,288,223.1L288,223.1z"/>
<path class="st17" d="M308,248.9c2.7-4,5.3-7.9,8-11.9c0.3-0.1,0.6-0.2,0.9-0.3c0.8,0.8,2.3,2.2,2.1,2.4c-2.5,4.1-5.2,8.1-8.1,11.9
	c-0.3,0.4-1.9-0.1-2.9-0.2C308.1,250.2,308.1,249.6,308,248.9z"/>
<path class="st19" d="M252.1,284c-0.1,16-0.1,32-0.2,48c0,1.7-0.6,3.5-0.9,5.2c-0.3-0.1-0.7-0.2-1-0.3c0.3-1.9,1-3.8,1-5.7
	c0.1-14,0-28.1,0.1-42.2C251,287.3,251.7,285.7,252.1,284L252.1,284z"/>
<path class="st20" d="M235,273.1c0,11.9,0,23.8-0.1,35.6c0,1.8-0.4,3.5-0.6,5.3c-0.2-2.4-0.4-4.7-0.6-7.1c0-2,0-4,0-6
	c0.1-7.8,0.1-15.6,0.2-23.4C234,276.1,234.7,274.6,235,273.1L235,273.1z"/>
<path class="st8" d="M233.8,301c0,2,0,4,0,6c-0.6,1.1-1.2,2.2-1.8,3.4c-0.7,1.2-1.4,2.4-2.1,3.6c0-4.3,0-8.6,0.1-13
	C231.2,301,232.5,301,233.8,301L233.8,301z"/>
<path class="st21" d="M321,376c-1.6,0.5-3.2,0.9-5.2,1.5c-1.1-1.1-2.3-2.4-3.6-3.7c0.7-1,1.4-1.9,2-2.8
	C316.4,372.7,318.7,374.3,321,376L321,376z"/>
<path class="st20" d="M234.3,318.9c0.2,6.7,0.5,13.4,0.7,20C234.8,332.2,234.6,325.5,234.3,318.9z"/>
<path class="st21" d="M312,368.8c-0.8,0.6-1.6,1.2-2.8,2c0-1.9-5-1.8-1.2-4.8C309.3,366.9,310.6,367.9,312,368.8L312,368.8z"/>
<path class="st21" d="M256,382.1c-0.3,1-0.6,1.9-0.9,2.9c-0.9,0.4-1.9,0.7-2.9,1c-0.1-1.3-0.2-2.6-0.3-4
	C253.3,382,254.6,382.1,256,382.1L256,382.1z"/>
<path class="st21" d="M299.9,372c-0.6-0.4-1.3-0.8-1.9-1.2c0.9-0.9,1.8-1.9,2.8-2.8c0.8,1.3,1.6,2.6,2.3,4
	C302,372,300.9,372,299.9,372L299.9,372z"/>
<path class="st8" d="M283.9,317c-1.3-0.1-2.6-0.1-3.9-0.2c1.2-0.9,2.5-1.8,3.7-2.7C283.7,315.1,283.8,316,283.9,317L283.9,317z"/>
<path class="st8" d="M188.9,293.1c-1.6-0.8-3.3-1.6-4.9-2.4C187.7,287.3,188.1,290.5,188.9,293.1z"/>
<path class="st21" d="M301,378c-2.5,2.4-3.5,0.2-4.1-1.6c-0.2-0.5,1.3-1.6,2-2.4C299.6,375.3,300.3,376.7,301,378L301,378z"/>
<path class="st8" d="M288,269c-1.3-0.7-2.7-1.3-4-2c0.8-0.6,1.7-1.1,2.5-1.7C286.9,266.5,287.4,267.7,288,269z"/>
<path class="st21" d="M303,386c-4-2.1-1.1-4,0.2-6C303.1,382,303,384,303,386z"/>
<path class="st22" d="M256.7,231.9l0,3c-1.3,0-2.6,0-3.8,0c-0.2-0.9-0.4-1.7-0.6-2.6C253.8,232.2,255.3,232.1,256.7,231.9
	L256.7,231.9z"/>
<path class="st8" d="M177,336.9c0.6,1.4,1.2,2.7,1.8,4C175.6,340.8,175,339.5,177,336.9z"/>
<path class="st21" d="M222.9,392c0.9-0.6,1.9-1.2,2.8-1.9c0.4,0.9,0.8,1.8,1.1,2.7c-0.3,0.1-0.6,0.2-0.8,0.2
	C225,392.7,223.9,392.3,222.9,392L222.9,392z"/>
<path class="st22" d="M223.2,245.9c-0.6-1.2-1.3-2.4-1.9-3.6c0.5-0.4,0.9-0.8,1.4-1.2c0.8,1.2,1.5,2.4,2.3,3.7
	C224.4,245.2,223.8,245.6,223.2,245.9L223.2,245.9z"/>
<path class="st22" d="M211.9,244.9c0-0.6,0-1.3,0-1.9c0.9,0.1,1.7,0.2,2.6,0.3C213.6,243.8,212.7,244.4,211.9,244.9z"/>
<path class="st21" d="M248.7,383c-0.4,1-0.8,2-1.5,3.9c-0.9-1.8-1.5-2.8-2.1-3.9C246.3,383,247.5,383,248.7,383z"/>
<path class="st22" d="M282,237c0,0.3-0.1,0.6-0.2,0.9c-1.2,0.1-2.5,0.2-3.8,0.3c0.4-0.8,0.7-1.5,1.1-2.3
	C280.1,236.3,281,236.7,282,237L282,237z"/>
<path class="st8" d="M191.9,342.8c1-0.6,2.1-1.2,3.1-1.8C194.8,343.2,194.6,345.2,191.9,342.8z"/>
<path class="st22" d="M202.9,259c-0.7-1.4-1.4-2.8-2-4.1C201.6,256.2,202.2,257.6,202.9,259z"/>
<path class="st22" d="M229,243.9c-0.4-1-0.9-1.9-1.3-2.9c1,0.3,1.9,0.6,2.9,0.8C230,242.6,229.5,243.2,229,243.9L229,243.9z"/>
<path class="st8" d="M330.1,293.9c0.3,0.7,0.6,1.4,0.9,2c-0.8-0.3-1.7-0.5-2.5-0.8L330.1,293.9L330.1,293.9z"/>
<path class="st21" d="M316.7,382.9c1.1-1,2.1-2,3.2-3C318.9,380.9,317.8,381.9,316.7,382.9z"/>
<path class="st21" d="M224.2,372c0-1-0.1-2-0.1-3l1.7,1.7C225.3,371.1,224.8,371.5,224.2,372L224.2,372z"/>
<path class="st21" d="M265.9,385c0-1,0-2,0-2.9c0.7,0.5,1.3,1,2,1.5C267.2,384,266.5,384.5,265.9,385L265.9,385z"/>
<path class="st22" d="M273,236.9c0.5-0.7,1-1.3,1.5-2c0.5,0.7,0.9,1.3,1.4,2C274.9,236.9,273.9,236.9,273,236.9L273,236.9z"/>
<path class="st21" d="M251.9,382c-1,0-2,0-3,0c0.6-0.6,1.1-1.2,1.7-1.9C251.1,380.8,251.5,381.4,251.9,382L251.9,382z"/>
<path class="st8" d="M283,266.8h-3c0.6-0.6,1.1-1.1,1.7-1.7C282.1,265.7,282.5,266.2,283,266.8z"/>
<path class="st8" d="M275,267.7c-1,0-2,0-3,0.1c0.6-0.6,1.1-1.1,1.7-1.7C274.1,266.6,274.5,267.2,275,267.7L275,267.7z"/>
<path class="st8" d="M262,269c-1,0.3-2,0.5-3,0.8C259.9,269.5,260.9,269.2,262,269z"/>
<path class="st8" d="M343,343.2c0.7-0.4,1.3-0.8,2-1.2c-0.3,0.9-0.6,1.7-0.9,2.6C343.7,344.1,343.3,343.6,343,343.2L343,343.2z"/>
<path class="st10" d="M247.9,271.1c-1.7,0.3-3.3,0.5-5,0.8C244.6,271.6,246.3,271.4,247.9,271.1z"/>
<path class="st22" d="M233.9,231c-1-0.8-1.9-1.6-2.9-2.3c0.2-0.2,0.3-0.5,0.5-0.7c0.8,0.4,1.6,0.9,2.4,1.3
	C233.9,229.8,233.9,230.4,233.9,231z"/>
<path class="st22" d="M287.9,240.8c0.7-0.3,1.4-0.6,2-0.9C289.3,240.2,288.6,240.5,287.9,240.8z"/>
<path class="st10" d="M255.9,270.1c-1.3,0-2.6,0-3.9,0C253.3,270.1,254.6,270.1,255.9,270.1z"/>
<path class="st8" d="M272.1,309l1.8-1.9C273.3,307.7,272.7,308.3,272.1,309z"/>
<path class="st8" d="M189.1,313c0.2-0.7,0.5-1.4,0.7-2C189.6,311.6,189.3,312.3,189.1,313z"/>
<path class="st8" d="M184.9,346.9c0.7-0.3,1.3-0.7,2-1C186.2,346.2,185.6,346.6,184.9,346.9z"/>
<path class="st21" d="M272,381.1c-0.3,0.3-0.6,0.6-0.9,0.9c-0.2-0.5-0.4-1-0.6-1.5C271,380.7,271.5,380.9,272,381.1z"/>
<path class="st15" d="M292.9,279.9c-0.3-1.4-0.6-2.7-0.9-4C292.3,277.2,292.6,278.6,292.9,279.9z"/>
<path class="st22" d="M216.9,249c-0.7-0.1-1.3-0.2-2-0.3c0.3-0.5,0.6-0.9,0.9-1.4C216.2,247.9,216.5,248.4,216.9,249L216.9,249z"/>
<path class="st16" d="M226,393c0.3-0.1,0.6-0.1,0.8-0.2c0.3,1.1,0.7,2.2,1,3.3C227.3,395.1,226.6,394.1,226,393z"/>
<path class="st8" d="M226,301c-1.3,0.3-2.7,0.5-4,0.8C223.3,301.5,224.6,301.2,226,301z"/>
<path class="st21" d="M243.9,379.8c-0.7,0-1.3,0-2,0c0.3-0.5,0.7-0.9,1-1.4C243.3,378.8,243.6,379.3,243.9,379.8L243.9,379.8z"/>
<path class="st8" d="M290,270.7c-0.7-0.6-1.4-1.1-2.1-1.7C288.6,269.5,289.3,270.1,290,270.7z"/>
<path class="st22" d="M288,237.6c0-1-0.1-1.9-0.1-2.9C287.9,235.7,287.9,236.7,288,237.6z"/>
<path class="st21" d="M242.2,395.1c0.4-0.6,0.8-1.1,1.2-1.7c0.1,0.5,0.3,1.1,0.4,1.6C243.2,395,242.7,395.1,242.2,395.1L242.2,395.1
	z"/>
<path class="st8" d="M341,285.6c-0.7,0.7-1.3,1.4-2,2C339.6,287,340.3,286.3,341,285.6z"/>
<path class="st21" d="M217.8,370.9c0.6-0.2,1.2-0.4,1.8-0.6c-0.2,0.6-0.4,1.2-0.7,1.8C218.6,371.7,218.2,371.3,217.8,370.9z"/>
<path class="st22" d="M233.9,224.6c-1,0-1.9,0.1-2.9,0.1C232,224.7,232.9,224.7,233.9,224.6z"/>
<path class="st21" d="M276.2,400.9c0.2-1,0.5-2,0.7-3C276.7,399,276.5,400,276.2,400.9z"/>
<path class="st22" d="M197.9,245.6c-0.6,0-1.3,0.1-1.9,0.1C196.6,245.7,197.2,245.6,197.9,245.6z"/>
<path class="st22" d="M290,239.9c-0.1-0.6-0.2-1.3-0.2-1.9C289.8,238.6,289.9,239.3,290,239.9z"/>
<path class="st8" d="M349.2,329.9c0-0.6,0-1.3,0-1.9C349.2,328.7,349.2,329.3,349.2,329.9z"/>
<path class="st21" d="M217,382c0.1-0.6,0.2-1.3,0.2-2C217.1,380.7,217,381.3,217,382z"/>
<path class="st8" d="M335,340.2c0.3,0.2,0.7,0.5,1,0.7c-0.2,0.1-0.4,0.3-0.6,0.5C335.2,341,335.1,340.6,335,340.2L335,340.2z"/>
<path class="st21" d="M283,395c-0.3-0.6-0.5-1.3-0.8-2C282.4,393.7,282.7,394.3,283,395z"/>
<path class="st22" d="M276.9,220.7c-0.6,0-1.3,0-1.9,0C275.6,220.6,276.3,220.7,276.9,220.7z"/>
<path class="st21" d="M304,388c-0.3-0.7-0.7-1.3-1-2C303.3,386.7,303.6,387.3,304,388z"/>
<path class="st22" d="M271,237.2c0.6-0.1,1.3-0.2,2-0.3C272.3,237,271.7,237.1,271,237.2z"/>
<path class="st21" d="M278,383c-0.3-0.6-0.7-1.3-1-2C277.3,381.6,277.6,382.3,278,383z"/>
<path class="st23" d="M255.2,350c0.3,0.6,0.5,1.2,0.8,1.8C255.7,351.2,255.4,350.6,255.2,350z"/>
<path class="st8" d="M349.6,303.4C349.6,303.4,349.6,303.2,349.6,303.4c0.1-0.6,0.3-1.1,0.4-1.6c0.2,0.1,0.4,0.2,0.6,0.3
	C350.3,302.5,350,302.9,349.6,303.4L349.6,303.4z"/>
<path class="st8" d="M287.9,304.9c0.7-0.2,1.4-0.5,2.1-0.7C289.2,304.4,288.5,304.7,287.9,304.9z"/>
<path class="st8" d="M335.7,321c-0.2,0.4-0.5,0.7-0.7,1C335.2,321.7,335.5,321.3,335.7,321z"/>
<path class="st22" d="M239.3,238.9c0.2-0.3,0.4-0.6,0.6-1C239.7,238.2,239.5,238.6,239.3,238.9z"/>
<path class="st21" d="M309,363c-0.3-0.3-0.6-0.7-0.9-1C308.3,362.3,308.6,362.6,309,363z"/>
<path class="st8" d="M264.8,350.9c0.4-0.2,0.7-0.4,1-0.6C265.5,350.5,265.2,350.7,264.8,350.9z"/>
<path class="st8" d="M186.9,345.9c0.4-0.2,0.7-0.5,1-0.8C187.5,345.4,187.2,345.7,186.9,345.9z"/>
<path class="st8" d="M337,341.2c0.4,0.3,0.7,0.5,1,0.8C337.7,341.7,337.3,341.4,337,341.2z"/>
<path class="st8" d="M195,341c0-0.3,0.1-0.7,0.2-1c0.1,0.2,0.2,0.5,0.2,0.7C195.4,340.8,195.2,340.9,195,341L195,341z"/>
<path class="st21" d="M208.9,375c-0.3-0.1-0.6-0.1-0.9-0.3C208.3,374.8,208.6,374.9,208.9,375z"/>
<path class="st21" d="M291.1,374c-0.2,0.3-0.3,0.6-0.5,0.9C290.8,374.6,291,374.3,291.1,374z"/>
<path class="st8" d="M193.9,337.1c-0.3-0.4-0.5-0.7-0.8-1.1C193.4,336.4,193.6,336.7,193.9,337.1z"/>
<path class="st21" d="M209.9,375.8c-0.3-0.3-0.6-0.5-0.9-0.8C209.3,375.2,209.6,375.5,209.9,375.8z"/>
<path class="st8" d="M192.9,335c-0.2-0.4-0.5-0.7-0.7-1C192.4,334.4,192.7,334.7,192.9,335z"/>
<path class="st3" d="M289.9,183.9c0.3,0.3,0.7,0.5,1,0.8C290.6,184.5,290.2,184.2,289.9,183.9z"/>
<path class="st8" d="M190.2,327.9c-0.1-0.3-0.1-0.6,0.1-0.9c0.1,0.2,0.2,0.4,0.2,0.7C190.5,327.8,190.3,327.9,190.2,327.9z"/>
<path class="st8" d="M277,317c-0.3,0.2-0.7,0.5-1,0.7C276.3,317.4,276.7,317.2,277,317z"/>
<path class="st8" d="M272.9,317.8c-0.3-0.3-0.5-0.5-0.8-0.8C272.4,317.2,272.7,317.5,272.9,317.8z"/>
<path class="st8" d="M276.9,306.9c0.3-0.2,0.7-0.5,1-0.7C277.6,306.5,277.2,306.7,276.9,306.9z"/>
<path class="st8" d="M175.7,306c-0.2,0.3-0.5,0.7-0.7,1C175.2,306.7,175.4,306.3,175.7,306z"/>
<path class="st8" d="M176.7,302c-0.2,0.4-0.5,0.8-0.7,1.1C176.2,302.7,176.5,302.4,176.7,302z"/>
<path class="st8" d="M292.2,301.9c0.2-0.4,0.5-0.7,0.7-1C292.7,301.2,292.4,301.6,292.2,301.9z"/>
<path class="st22" d="M288,223.1c-0.3-0.1-0.7-0.2-1-0.3C287.3,222.8,287.7,222.9,288,223.1z"/>
<path class="st8" d="M194.1,297.9c-0.1-0.3-0.1-0.6,0.1-0.9c0.1,0.2,0.2,0.5,0.2,0.7C194.4,297.7,194.2,297.9,194.1,297.9
	L194.1,297.9z"/>
<path class="st8" d="M347.9,297.1c-0.2-0.4-0.5-0.7-0.7-1.1C347.4,296.4,347.7,296.7,347.9,297.1z"/>
<path class="st8" d="M331,295.9c0.2,0.3,0.5,0.6,0.7,1C331.4,296.6,331.2,296.2,331,295.9z"/>
<path class="st21" d="M213.9,385c0.4-0.3,0.7-0.5,1-0.8C214.6,384.4,214.2,384.7,213.9,385z"/>
<path class="st21" d="M212,385.4c0.3-0.2,0.6-0.2,0.9-0.1C212.6,385.3,212.3,385.3,212,385.4z"/>
<path class="st8" d="M193.9,295.9c-0.4-0.3-0.8-0.6-1.2-0.9C193.1,295.3,193.5,295.6,193.9,295.9z"/>
<path class="st21" d="M296,385c0.2,0.3,0.5,0.6,0.7,1C296.4,385.6,296.2,385.3,296,385z"/>
<path class="st22" d="M230.2,225c-0.4,0.3-0.9,0.6-1.3,0.9C229.4,225.6,229.8,225.3,230.2,225z"/>
<path class="st21" d="M232.3,388.9c0.2-0.3,0.4-0.6,0.6-1C232.7,388.3,232.5,388.6,232.3,388.9z"/>
<path class="st21" d="M298,387.9c0.3,0.4,0.5,0.7,0.8,1.1C298.5,388.6,298.3,388.3,298,387.9z"/>
<path class="st21" d="M305.2,390c-0.1-0.3-0.2-0.6-0.3-1c0.2,0.2,0.4,0.4,0.5,0.6C305.5,389.6,305.3,389.8,305.2,390L305.2,390z"/>
<path class="st22" d="M251.3,225.9c-0.1-0.3,0-0.6,0.2-0.9c0,0.2,0.1,0.4,0.1,0.6C251.5,225.8,251.3,225.8,251.3,225.9L251.3,225.9z
	"/>
<path class="st22" d="M272.6,226c-0.2,0.4-0.4,0.8-0.6,1.2C272.2,226.8,272.4,226.4,272.6,226z"/>
<path class="st8" d="M268.9,267.7l-0.5,0l-0.4-0.1C268.3,267.6,268.6,267.6,268.9,267.7L268.9,267.7z"/>
<path class="st22" d="M211.9,247.9c-0.2-0.3-0.5-0.6-0.7-0.9C211.5,247.3,211.7,247.6,211.9,247.9z"/>
<path class="st21" d="M283.9,397.2c-0.2-0.4-0.5-0.8-0.7-1.1C283.4,396.4,283.7,396.8,283.9,397.2z"/>
<path class="st21" d="M243.9,398c0.2,0.3,0.4,0.6,0.6,1C244.4,398.6,244.2,398.3,243.9,398z"/>
<path class="st22" d="M252.6,231.5c-0.1-0.5-0.2-1-0.3-1.5C252.4,230.5,252.5,231,252.6,231.5z"/>
<path class="st22" d="M217,242.8c0.2,0.4,0.5,0.7,0.7,1.1C217.5,243.5,217.2,243.1,217,242.8z"/>
<path class="st21" d="M247,402.3c0.3-0.1,0.6-0.2,1-0.2C247.6,402.2,247.3,402.2,247,402.3z"/>
<path class="st22" d="M202.9,242.9c0.2,0.3,0.4,0.7,0.7,1C203.4,243.6,203.2,243.2,202.9,242.9z"/>
<path class="st22" d="M216,240.8c0.2,0.4,0.5,0.7,0.7,1.1C216.4,241.5,216.2,241.2,216,240.8z"/>
<path class="st8" d="M189.9,324.1c-0.3-0.4-0.5-0.7-0.8-1.1C189.4,323.4,189.6,323.7,189.9,324.1z"/>
<path class="st15" d="M292.1,286c-1.4,0.3-2.7,0.5-4.1,0.8C289.3,286.5,290.7,286.3,292.1,286z"/>
<path class="st23" d="M255.2,299c-0.7-2.5,0.4-3.3,2.8-2.9C257,297.1,256.1,298,255.2,299L255.2,299z"/>
<path class="st23" d="M255.2,338c0-0.4,0-0.7,0-1c0.1,0.2,0.2,0.5,0.3,0.7C255.5,337.8,255.3,337.9,255.2,338L255.2,338z"/>
<path class="st23" d="M255.2,335c0-0.4,0-0.7,0-1c0.1,0.2,0.2,0.5,0.3,0.7C255.5,334.8,255.3,334.9,255.2,335L255.2,335z"/>
<path class="st22" d="M309,238.9c-0.6-0.8-1.2-1.6-1.8-2.5c1.6-0.5,3.2-1,4.8-1.6C311,236.2,310,237.6,309,238.9z"/>
<path class="st22" d="M303.9,243.9c0.2-3.4,2.9-2.8,5-3.1C307.2,241.8,305.6,242.9,303.9,243.9z"/>
<path class="st22" d="M316.9,236.7c-0.3,0.1-0.6,0.3-0.9,0.3C316.3,237,316.6,236.8,316.9,236.7z"/>
<path class="st22" d="M303.2,244.9c0.2-0.4,0.5-0.7,0.7-1C303.7,244.2,303.4,244.6,303.2,244.9z"/>
</svg>
