<?xml version="1.0" encoding="utf-8"?>
<!-- Generator: Adobe Illustrator 27.6.0, SVG Export Plug-In . SVG Version: 6.00 Build 0)  -->
<svg version="1.1" id="Layer_1" xmlns="http://www.w3.org/2000/svg" xmlns:xlink="http://www.w3.org/1999/xlink" x="0px" y="0px"
	 viewBox="0 0 1920 1080" style="enable-background:new 0 0 1920 1080;" xml:space="preserve">
<style type="text/css">
	.st0{fill:none;}
	.st1{fill:#FF4102;}
	.st2{fill:#FF4301;}
	.st3{fill:#FF4502;}
	.st4{fill:#FE3901;}
	.st5{fill:#FF3A01;}
	.st6{fill:#FE3D02;}
	.st7{fill:#FF4403;}
	.st8{fill:#FF4905;}
	.st9{fill:#FF3B01;}
	.st10{fill:#FF3F01;}
	.st11{fill:#FF3D02;}
	.st12{fill:#FE3D03;}
	.st13{fill:#FE3A03;}
	.st14{fill:#FF3802;}
	.st15{fill:#FF3E01;}
	.st16{fill:#FF3D01;}
	.st17{fill:#FF4001;}
	.st18{fill:#FE4203;}
	.st19{fill:#FFFEFE;}
	.st20{fill:#FB683B;}
	.st21{fill:#FEB095;}
	.st22{fill:#FDBEA9;}
	.st23{fill:#FFD0C1;}
	.st24{fill:#FD855A;}
	.st25{fill:#FFFAF8;}
	.st26{fill:#FDE3DB;}
	.st27{fill:#FFFCFB;}
	.st28{fill:#FFFFFF;}
</style>
<g>
	<path class="st0" d="M192,28c512,0,1024,0,1536,0c0,341.3,0,682.7,0,1024c-512,0-1024,0-1536,0C192,710.7,192,369.3,192,28z
		 M985.9,618.2L985.9,618.2c0.3,0.9,0.7,1.8,1.1,2.8c2,4.7,4.1,9.3,6.1,14c1.2,4.4,2,9,3.8,13.2c2.5,5.6,6.2,10.6,8.8,16.1
		c6.9,15,13.5,30.1,20.4,45.1c0.5,1.1,2,2.5,3,2.4c7.6-0.5,15.1-1.2,22.7-2c0.9-0.1,1.6-1.2,2.4-1.8c2.9-1.7,2.9-3.3,0-5
		c0-7.7,0-15.3,0-23c0.7-3.7,1.5-7.3,2-11c0-0.2-1.3-0.7-2-1c0-1.3,0-2.7,0-4c4-3.8,4-13.7,0-17c0-2,0-4,0-6c4-2.5,4-5.6,0-9
		c0-1,0-2,0-3c5-1.8,2.4-5.6,2.4-8.8c0-1.5-0.4-3.1-0.3-4.6c0.2-5.2,0.6-10.5,0.6-15.7c0-1-1.7-1.9-2.7-2.9c0-2,0-4,0-6
		c0.5-0.3,1.5-0.7,1.5-1c0.5-7.9,0.9-15.9,1.1-23.8c0-1-1.7-2.1-2.6-3.1c0-4,0-8,0-12c0.9-2.6,2.3-5,2.7-7.7c0.5-3,0.5-6.2,0-9.2
		c-0.5-3.1-1.9-6.1-2.9-9.1c-11.2,1.1-22.3,2.1-33.9,3.2c0,6.7,0,13,0,19.2c-0.1,24.2-0.1,48.3-0.2,72.5c-2-4.3-4-8.6-6-12.9
		c-3.5-8-7.2-16-10.5-24.1c-2.4-6-4.1-12.3-6.7-18.2c-2.5-5.8-5.8-11.2-8.7-16.8l0.1-0.3c0.2-0.1,0.5-0.1,0.7-0.2
		c-0.2,0-0.5,0-0.7-0.1c-0.1-0.5-0.2-1-0.3-1.5c-0.2-0.2-0.4-0.4-0.6-0.7c-1.9-4-3.5-8-5.7-11.8c-0.7-1.3-2.8-2.6-4.2-2.5
		c-8.4,0.5-16.7,1.4-25.1,2.2c-0.3,0.6-0.6,1.2-0.9,1.8c0,22.7,0.1,45.3,0.1,68c-0.1,1.8-0.2,3.7-0.2,5.5
		c-0.1,15.8-0.2,31.7-0.2,47.5c-0.4,1.8-0.9,3.5-1.1,5.3c-0.2,1.1,0,2.2,0.1,3.4c0.3,2.1,0.7,4.3,1,6.4c0,3,0,6,0,8.9
		c-2.5,2.4-2.5,4.7,0,7.1c0,10.6,0,21.2,0,31.7c11.1-1.1,21.6-2,32-3c0-25.2,0-49.9,0-74.7c0-1.3,0-2.7,0-4c0-1,0-2,0-3
		c0-6.7,0-13.3,0-21.3c1.2,2.3,1.7,3.3,2.3,4.3C985.4,617.4,985.6,617.8,985.9,618.2z M1410.1,782c-1.7,0.4-3.4,0.7-5.1,1.1
		c-0.3-0.1-0.7-0.1-1,0.1c-10.1-0.3-20.1,0.9-30,2.3c-2.3-0.1-4.7-0.2-7-0.3c-1.4,0.6-2.7,1.2-4.1,1.8c-2.7,0.1-5.3,0.1-8,0.2
		c-1.3,0-2.6,0.1-3.9,0.1c-6.4-1.2-12.7,2.8-19.1-0.1c-0.4,0.3-0.7,0.5-1.1,0.8c-0.3,0.3-0.6,0.6-0.9,1c-0.3,0.1-0.7,0.2-1,0.3
		c-0.3-0.2-0.6-0.1-0.9,0.1c-1.4-0.1-2.7-0.2-4.1-0.3c-1.3,0.3-2.7,0.7-4,1c-3.5,0.3-7,0.7-10.8,1.1c0,4.3,0,8.5,0,12.7
		c1.2,3.9,3.8,1.5,6,1.3c6.6-0.5,13.3-1,19.9-1.5l0.5,0.1l0.5-0.2c7.3-0.9,14.9,1.4,22.1-2l0.5,0.1c0,0,0.5-0.2,0.5-0.2
		c3-0.3,6-0.6,9-0.9c7.7-0.7,15.3-1.4,23-2c0.7,0,1.3,0,2,0l0.5,0.1l0.5-0.2c3.7-0.3,7.4-0.7,11.1-1c0.7-0.2,1.3-0.4,2-0.7
		c5,0,10-0.1,15-0.1c3.8,0,7.6,0,12.7,0c7.5-3.4,2.9-10.6,3-17.1c-9.2,0.9-18,1.7-26.8,2.5C1410.7,782.3,1410.4,782.1,1410.1,782z
		 M904,340.9c0,1.4,0,2.7,0.1,4.1l-0.3-0.2c-3.8,1.8-3.8,3.5,0,5.3c0,4.9,0,9.8,0,14.7c-5,2.4-2.1,4.8,0,7.3c0.1,1,0.2,1.9,0.3,2.9
		c0,1,0,2,0,3c0,0.7,0,1.3,0,2c-0.1,8.3-0.3,16.5-0.4,24.8c-4.9,2.5-1.8,4.9,0,7.4c0,8,0,15.9,0,23.9c0,0.9,0,1.8,0,2.8
		c0,14.2,0,28.4,0,43.1c11.1-1.4,21.8-2.8,32.5-4.2c4.5-0.6,9-1.2,13.4-1.8c10.1-1.4,20.3-2.8,30.9-4.2c0-11.1,0-21.9,0-32.7
		c2.9-2.1,4.5-4.2,0-6.3c0-0.6,0-1.2,0-1.7c2.9-2.1,4.6-4.1,0-6.3c0-0.6,0-1.1,0-1.7c2.8-2.1,4.5-4.2,0-6.3c0-4.4,0-8.9,0-13.6
		c16.7-2.2,33.1-4.3,49.8-6.5c0-9.6,0-18.7,0-27.8c0.6-0.6,1.1-1.2,1.7-1.7c-0.6-0.4-1.1-0.9-1.7-1.3c0-3,0-6,0-9c3-2.3,3-4.7,0-7
		c0-3.2,0-6.5,0-10.2c-2.8,0.5-5,1-7.2,1.4c-0.7,0-1.3,0-2,0c-0.4,0.2-0.8,0.5-1.1,0.7l0.1-0.1c-1.6,0.1-3.3,0.2-4.9,0.3
		c-1,0.2-2.1,0.3-3.1,0.5c-10.3,1.2-20.6,2.4-30.8,3.5c0-16.1,0-31.6,0-46.6c12.7-2,24.8-3.9,36.9-5.8c10.5-0.1,20.7-2.2,30.5-6
		c11.3-4.3,18.6-12.2,19.4-24.9c0-11.2,0-22.4,0-33.8c-0.9,0-1.6-0.1-2.2,0c-0.6,0.1-1.2,0.5-1.8,0.8c-1.4,0.1-2.8,0.3-4.1,0.4
		c-17.6,2.3-35.2,4.6-52.9,6.9c-7.7,1-15.3,2-23,3.1c-2.7,0.3-5.3,0.6-8,0.9c-5.3,0.9-10.7,1.7-16,2.6c-4.7,0.4-9.5,0.7-14.2,1.4
		c-13.9,1.9-27.7,3.9-41.6,5.9c-5.1,1.3-3,3.2-0.4,5.1c0,15.9,0,31.8,0,47.7c-3.5,2.4-3.4,4.9,0,7.3l0.3-0.2c0,6.3,0,12.7,0,19
		c0,3.4,0,6.7-0.1,10.1C903.8,340.4,903.8,340.6,904,340.9z M1170,800.8c-0.3-0.5-0.7-0.9-1-1.4c-0.3,0.5-0.7,1-1,1.5
		c-4.7,0.7-9.4,1.4-14,2c-0.6,0-1.3,0-1.9,0c-0.5-9.5-1-19-1.5-28.5c10-0.9,19.1-1.8,28.2-2.6c0-7.6,0-14.8,0-22.3
		c-17.6,1.6-34.9,3.1-51.9,4.7c0,17.7,0,34.8,0,51.9c-0.1,9-0.3,18-0.3,27c0,14.1,0,28.2,0,43c8.6-0.8,16.9-1.6,25.8-2.4
		c0-17,0-33.7,0-50.1c7.8-0.8,15.2-1.6,22.6-2.4c-0.4-5.9-0.8-10.9-1.1-16c0.2-1.3,0.4-2.6,0.6-3.9
		C1172.8,801,1171.4,800.9,1170,800.8z M1229,813.2l-0.1-0.4c0.7,0,1.4,0,2.1-0.1c1.3,0,2.7,0,4,0c4.3-0.4,8.7-0.8,13-1.1
		c0.7-1.5,1.4-3.1,2.2-4.6c0.5-0.3,1-0.7,1.4-1c-0.5-0.3-1-0.7-1.5-1c0-4.3,0-8.6,0-13.2c-7.9,0.8-15,1.5-22.2,2.2
		c0-9.4,0-18.2,0-27c0.3-0.3,0.7-0.5,1-0.8c9.3-0.7,18.6-1.3,27.8-2c0-7.2,0-13.6,0-20.5c-18.2,1.5-36.2,2.9-53.8,4.3
		c0,20.4,0,40.1,0,59.9c0,20.2,0,40.4,0,60c7.6,0,14.8,0,22,0c0.2,0,0.5,0,0.7-0.1c10-1,20.1-1.9,30.1-2.9c0-6.9,0-13.3,0-19.7
		c-5.4,0.6-10.6,1.3-15.8,1.9c-2.7,0.4-5.3,0.7-8,1.1c-1,0-2,0-3-0.1c-0.4-0.7-1-1.3-1-2c0-10.7,0.1-21.4,0.1-32.1
		C1228.4,813.7,1228.7,813.5,1229,813.2z M605,671.1c1.7-0.4,3.3-0.9,5-1.3c5-1,6.9,1.7,7.2,6.2c0.7,3,1.3,6,2,9
		c0.8,3.4,1.6,6.8,2.4,10.1c2,8.8,3.9,17.7,5.9,26.5c1.8,8.2,3.5,16.3,5.7,24.4c0.3,1.2,2.7,2.9,4,2.8c6.3-0.4,12.6-1.4,19-2.1
		c6.5-0.7,13-1.2,19.3-1.7c0-2.8,0.6-5.3-0.1-7.3c-1.9-5.9-4.5-11.5-6.4-17.4c-5.2-16.7-10.1-33.6-15.1-50.4
		c-0.4-1.2-0.7-2.4-1.1-3.7c-0.2-0.7-0.3-1.5-0.5-2.2c-0.1-1-0.2-2-0.3-3c0.7-0.4,1.3-0.7,2-1.1c3.7-3.3,7.3-6.7,11-10
		c0.9-1.4,1.8-2.7,2.7-4.1c1.7-3.7,3.5-7.5,5.2-11.2c0.2-0.1,0.5-0.1,0.7-0.2c-0.2-0.3-0.5-0.5-0.7-0.8c0-3.6,0-7.3,0-10.9
		c0.3-0.7,0.9-1.4,0.9-2.1c-0.6-10.1-0.1-20.6-2.4-30.4c-2-8.9-4.8-18.8-15.5-22.3c-6.2-3.7-12.8-5.4-20-5.1c-3,0-6,0-9,0
		c-2.3,0-4.7,0.1-7,0.1c-1,0.3-2,0.5-3,0.8c-3.7-1.3-7.5-2.4-11.2,0.1c-0.8,0.5-1.8,0.8-2.8,0.8c-5.6,0.4-11.2,0.6-16.7,1.1
		c-7,0.6-14,1.5-20.9,2.3c0,11.8,0,23.2,0,34.6c0,0.7,0,1.4,0,2.1c0,9,0.1,18,0.1,26.9c0,0.7,0,1.3,0,2c0,4.3,0,8.7,0,13
		c0,7.7,0,15.3,0,23c0,8.3,0,16.7,0,25c0,1.7,0,3.3,0,5c0,1.7,0,3.3,0,5c0,0.7,0,1.3,0,2c0,1.7,0,3.3,0,5c0,4.3-0.1,8.6-0.1,12.9
		c0,0.4,0,0.7,0,1.1c0,1.3,0.1,2.6,0.1,3.9c0,8.3,0,16.5,0,24.6c10.9-0.6,21.7-0.9,32.4-2.5c4.5-0.7,7.3-1.4,6.4-6.6
		c-0.1-0.8,0.1-1.7,0.1-2.5c2.7-2.1,4.7-4.1,0-6.2c0-0.6,0-1.2,0-1.8c2.7-2.1,4.7-4.1,0-6.2c0-0.6,0-1.2,0-1.8
		c2.7-2.1,4.7-4.1,0-6.2c0-0.6,0-1.2,0-1.8c2.8-2.1,4.7-4.1,0-6.2c-0.1-0.3-0.2-0.6-0.3-0.9c0.2-0.3,0.3-0.6,0.3-0.9
		c2.7-2.1,4.7-4.1,0-6.2c0-0.6,0-1.2,0-1.8c2.7-2.1,4.7-4.1,0-6.2c0-0.6,0-1.2,0-1.8c2.7-2.1,4.7-4.1,0-6.2c0-5.6-0.1-11.2-0.1-16.9
		C604.5,671.7,604.8,671.4,605,671.1z M735,811c0,0.3,0,0.5,0,0.8c-1.5,4.7-2.9,9.5-4.4,14.2c-0.6,1.4-0.1,3.2-0.2,5
		c-0.2,3-0.8,6-1.2,9c-1.6,5.3-3.1,10.7-4.8,16.5c-0.2,18.9-7.4,37.7-9.2,57.3c8-0.8,15.6-1.5,23.6-2.2c1.1-7.4,2.1-14.7,3.4-22
		c0.2-1.3,1.7-3.3,2.8-3.5c6.6-1.1,13.2-1.7,19.9-2.5c1.7,8.9,3.2,17,4.7,24.7c8.6-0.7,17-1.3,24.5-1.9c-0.5-3.9-0.6-6.9-1.2-9.9
		c-1.8-8.2-4-16.4-5.8-24.7c-0.7-3.1-0.1-6.5-0.8-9.6c-1.4-5.9-3.7-11.6-5.1-17.5c-2.6-10.6-4.8-21.2-7.2-31.8
		c-1.8-9.3-3.7-18.6-5.5-27.8c-9.8,1.2-19.3,2.3-29.5,3.5C737.6,795.9,736.3,803.4,735,811z M1213.9,628c0,1.3,0,2.7,0,4
		c0,20.6,0,41.1,0,62.4c4.8-0.5,9-1,13.2-1.3c21.7-1.7,43.3-3.4,64.9-5.2c1.3-0.1,3.6-1.7,3.6-2.7c0.3-8.9,0.2-17.9,0.2-27.1
		c-3.8,0.3-7,0.6-10.2,0.8c-5.6,0.4-11.3,0.1-16.8,1.2c-5.1,1-10.8-2.9-15.5,1.6c-0.2,0.2-1.7-1.1-2.6-1.7c-0.7-0.7-1.4-1.4-2-2.1
		c0-1.3-0.1-2.6-0.1-4c-0.1-19.3-0.2-38.7-0.3-58c0-4-0.1-8-0.1-12c0-0.7,0-1.4,0-2c0.1-22.7,0.1-45.3,0.2-68
		c0.1-0.6,0.1-1.3,0.2-1.9c-0.3-1-0.5-2-0.8-3c-11.4,1-22.8,2.1-34.4,3.1c0,14.3,0,27.9,0,41.5c0.1,22.1,0.2,44.2,0.3,66.3
		c0,1,0,2,0,3C1213.9,624.7,1213.9,626.3,1213.9,628z M1172.8,596c-0.3-0.8-0.6-1.5-0.7-2.3c-2.1-11-4-22.1-6.2-33.1
		c-1.4-7.3-3-14.5-4.5-21.7c-0.9-4.3-1.7-8.5-2.6-12.8c-0.4-3-0.9-5.9-1.3-8.9c-1.5-0.6-3.1-1.2-4.6-1.9c-0.3-0.2-0.6-0.2-0.9,0
		c-2.7,0.3-5.3,0.6-8,1c-1.3,0-2.7-0.2-4,0c-5.7,0.9-11.3,1.4-17.2,0.6c-4.1-0.6-8.6,1.7-12.8,2.9c-0.5,0.2-0.7,1.7-1,2.6
		c-2,7.1-3.9,14.3-5.8,21.4c-0.2,0.6-0.3,1.4,0,1.9c2.2,4.2-0.1,7.1-2.6,9.6c0.5,2.7,1.6,5.2,1.2,7.4c-2.3,14.5-5,29-7.6,43.5
		c0,0.7-0.1,1.3-0.1,2c-2.1,11.6-4.3,23.3-6.4,34.9c-1.1,6.3-3.8,12.2-4,19c-0.3,8.6-2.7,17.1-4.3,25.7c-1.2,6.6-2.3,13.2-3.5,19.9
		c1.5-0.2,2.6-0.4,3.7-0.5c9.7-1,19.3-1.8,29-2.9c1.2-0.1,3.1-1.5,3.2-2.5c1-5.2,1.4-10.5,2.2-15.7c0.9-6.3,2-12.6,2.9-18.6
		c11.4-1,22-1.9,33.2-2.8c1.9,10.5,4.2,21.1,5.8,31.8c0.7,4.5,3.2,4.5,6.4,4.1c9.1-1.1,18.2-2.3,27.4-3.3c2.4-0.3,3.4-0.5,2.7-3.5
		c-2.2-10.1-3.8-20.3-5.8-30.5c-3.8-19-7.8-38-11.6-57C1174.2,602.7,1173.5,599.3,1172.8,596z M924.2,867c0,8.9,0,17.9,0,27.2
		c8.3-0.9,16.1-1.7,23.8-2.5c0-27.5,0-54.6,0-81.7c0-5.2,0-10.5,0-15.6c7.2-0.9,13.6-1.7,20-2.6c3.5,0.6,3.2-1.6,2.8-3.9
		c0-6-0.1-12-0.1-18c-0.2-0.3-0.5-0.5-0.7-0.8c-0.7,0-1.3,0-2-0.1c-2.3,0.3-4.7,0.7-7,1c-1.7,0-3.3,0-5,0c-0.7,0-1.3,0-2,0
		c-5.7,0.5-11.4,1.2-17,1.4c-6.7,0.3-13.3,0.1-20.4,0.1c-1.5,3.9-5.4,1.9-8.5,2.2c-1.4-2.7-2.8-2.7-4,0.2c-1,0.9-2.8,1.7-2.9,2.6
		c-0.2,7.1-0.1,14.2-0.1,21.3c5.7-0.3,10.8-0.7,15.9-0.9c5.2-0.1,7,1.8,7.1,7.1c0.1,10,0.1,19.9,0.2,29.9c0,9.7,0,19.3,0,29
		C924.2,864.3,924.2,865.7,924.2,867z M1591.9,558c0-3.3,0-6.7,0-10c0-7.3,0-14.7,0-22c0-0.7,0-1.3,0-2c0-5.7,0-11.3,0-17
		c0-1,0-2,0-3c0.1-0.6,0.2-1.2,0.2-1.8c8.7-0.7,17.3-1.4,26-2.3c2.5-0.2,4.5-0.8,4.3-4.4c-0.4-7.5-0.2-15-0.3-22.5
		c0-1.5-0.7-3-1.1-4.5c-0.3,0.1-0.6,0.1-0.9,0.2c-10.5,1.1-21,2.3-31.4,3.3c-8.9,0.8-17.8,1.2-26.6,2.1c-10.3,1.1-20.5,2.7-30.8,3.8
		c-7,0.7-7.1,0.5-7.3,7.1c-2.7,2.8-2.7,8.2,0,11c0,3.9,0,7.9,0,12c10.6-1,20.4-2,30.2-3c0.3,0.3,0.7,0.6,1,0.9
		c0.1,10,0.3,20,0.4,30.1c0,1.6,0,3.2-0.1,4.9c0.2,21,0.4,42,0.7,63.1c-0.1,3.3-0.2,6.6-0.3,9.9c-4.5,2.1-2.8,4.2,0,6.3
		c0,11.6,0.1,23.2,0.1,34.8c-0.4,0.2-0.8,0.4-1.2,0.6c0.4,0.2,0.8,0.4,1.2,0.6c0.1,1.6,0.2,3.2,0.3,5.1c7.9-0.4,15.4-0.7,22.9-1.3
		c4.3-0.4,8.6-1.3,12.9-2c0.2-0.3,0.3-0.7,0.5-1c0-3-0.1-6-0.1-9c-0.1-28.3-0.2-56.6-0.3-84.9C1591.9,561.3,1591.9,559.7,1591.9,558
		z M796.3,289.1c0.8-0.8,1.6-1.5,2.5-2.3c-0.8-0.6-1.6-1.2-2.5-1.9c0-5.3,0-10.5,0-16c-13.3,1.8-25.8,3.4-38.4,5.1
		c0.3,6.6,0.8,12.5,0.8,18.5c0.1,12.1,0.1,24.3,0,36.4c0,3,0.8,4.4,3.9,4c8.4-1,16.7-2.1,25.1-3c8.3-0.8,8.4-0.8,8.5-9.5
		c0-2.8,0.1-5.7,0.1-8.5c2.6-2.1,2.6-4.1,0-6.2c0-1.3,0-2.5,0-3.8c2.5-1.4,2.5-2.8,0-4.2C796.3,295,796.3,292,796.3,289.1z
		 M1041.2,819.9c-0.1-1-0.2-1.9-0.4-2.9c-0.3-1.3-0.6-2.7-1-4c-0.3-1-0.7-2-1-3c-0.3-2-0.6-4-0.9-6c-2.7-13.7-5.4-27.4-8.1-41
		c-9.6,0.7-18.6,1.3-27.6,2.1c-1.1,0.1-2.8,1.8-3.1,3c-2.2,11.6-4.1,23.2-6.2,34.9c-1,5-2.1,10-3.1,15c-0.6,2.3-1.1,4.7-1.7,7
		c-1.6,8.8-3.2,17.6-4.7,26.4c-0.9,5.2-1.8,10.4-2.7,15.6c-1.5,7.7-3.1,15.5-4.7,23.4c7.7-0.5,14.6-0.8,21.4-1.6
		c1.3-0.1,3.1-2.1,3.4-3.5c1.3-6.8,2.1-13.6,3.2-20.4c0.2-1,1.2-2.7,2-2.8c6.5-0.6,13-0.9,19.4-1.2c1.5,8.8,2.9,16.8,4.3,24.7
		c6.5-0.5,12.9-1.3,19.4-1.5c4.2-0.1,5.8-1,4.5-5.5c-1.5-5.4-2.4-10.9-3.5-16.4C1047.1,848.1,1044.1,834,1041.2,819.9
		C1041.1,819.9,1041.2,819.9,1041.2,819.9z M1505.1,637.1c0.2-0.1,0.5-0.3,0.7-0.4c-0.2-0.3-0.5-0.5-0.7-0.8c0-1.8-0.1-3.7-0.1-5.5
		c-0.1-27.8-0.2-55.6-0.3-83.4c0.1-21.2,0.2-42.5,0.2-63.7c0-1-1.7-3-2.6-2.9c-6.1,0.4-12.2,1-18.2,1.8c-5.1,0.7-10.1,1.8-15.2,2.8
		c-2.9,1.7-2.9,3.3,0,5c0,0.7,0,1.3,0,2c-2.8,2-2.8,4,0,6c-0.7,7.6,2.6,15.7-1.6,21.7c0.7,4.8,1.6,8.6,1.7,12.4
		c0.2,16.3,0.1,32.6,0.1,49c0,17.3,0.1,34.7,0.2,52c-0.1,1.8-0.1,3.6-0.2,5.5c-0.6,10.4,1.6,21-1.9,32.1c12.6-1.3,24.7-2.5,36.9-3.8
		c0.3-0.3,0.5-0.6,0.8-0.8C1504.8,656.3,1504.9,646.7,1505.1,637.1z M919,191.7c4-0.3,8.1-0.3,12.1-0.8c7.7-1.1,15.4-3,23.1-3.7
		c9.9-0.9,19.9-0.9,29.8-1.3c5.6,1.4,8.3,5.4,8.9,10.7c0.9,7.7,1.1,15.5,1.6,23.5c2.4,0,4.9,0.3,7.3,0c20.7-2.6,41.4-5.2,62.1-8
		c1.3-0.2,3.4-1,3.5-1.8c0.7-4.5,1.3-9.1,1.1-13.6c-0.1-4.7-1.1-9.4-1.7-14.1c-1-8.3-1.3-16.8-3.2-25c-3.9-16.8-12.6-30.4-30.8-33.7
		c-9.4-1.7-19.4-0.1-29.2-0.1c-5.2,0.6-10.5,1-15.7,1.7c-13.3,1.8-26.6,3.8-40,5.6c-3,0.4-6.1,0.7-9.2,1c-2.3-0.1-4.7-0.6-7-0.2
		c-2.1,0.3-4,2-6.1,2.2c-7.1,0.7-13.8,3.4-21.1,3.4c-6.2,0-12.5,1.8-18.7,2.9c-11.6,1.4-23.1,2.9-34.7,4.3
		c-10.1,1.2-20.3,2.3-30.4,3.5c-0.2,0-0.5,0.1-0.7,0.2c-2,0.4-4,0.9-5.2,1.1c-1,7.2-2,13.9-2.9,20.7c-0.1,0.6,0.2,1.2,0.4,1.9
		c0.5,2.2,1.5,4.3,1.5,6.5c0.1,19.3,0,38.6,0.1,57.9c0,29.9,0.1,59.9,0.2,89.8c0.1,8.7-1.8,17.4-0.3,26.1c0.6,3.4-0.8,7.1-0.7,10.7
		c0.1,7.7,0.5,15.4,0.8,23.1c-0.6,3.4-2.4,7.2-1.6,10.2c1.9,6.8,1.5,13.6,1.7,20.5c0.1,4.1,0,8.1,0,12.4c24.5-3.1,48.2-6.1,72.2-9.1
		c0-11.9,0-23.4,0-34.8c0.8-0.5,1.5-1,2.3-1.6c-0.8-0.5-1.5-1.1-2.3-1.6c0-16.9,0-33.9,0-50.8c1.9-2,4.7-4.1,0-6.2
		c0-6.3,0-12.5,0-18.8c3-1.7,3-3.4,0-5.2c0-1.3,0-2.5,0-3.8c2.5-1.4,2.5-2.8,0-4.2c-0.1-3.3-0.2-6.6-0.3-9.9c0-5,0-10,0-15
		c0-1.7,0-3.3,0-5c0.1-19.7,0.2-39.3,0.2-59c0-7.9,0-7.8,8-9.1c1-0.2,1.9-0.6,2.8-0.9c1.7-0.1,3.4-0.2,5.1-0.3
		C907.8,193,913.4,192.3,919,191.7z M544.2,741c0.5-0.3,1-0.7,1.4-1c-0.5-0.3-1-0.7-1.4-1c0-5.6,0-11.2,0-17
		c-16.8,1.6-32.8,3-49.3,4.6c0-10.4,0-21,0-31.6c0-0.7,0-1.3,0-2c0-0.7,0-1.3,0-2c0-4.1,0-8.3,0-13.1c12.9-1,25.5-2,37.9-3
		c0-9.9,0-19.2,0-29.4c-12.8,1.1-25.4,2.2-37.9,3.4c0-14.9,0-29.2,0-43.8c15.8-1.3,31.4-2.6,47.2-3.9c0-8.1,0-15.6,0-23.1
		c2.9-2,2.9-4,0-6c-1.5-0.3-3.1-1.1-4.5-0.9c-12.7,1-25.3,2.1-38,3.1c-6.1,0.5-12.3,0.4-18.4,1c-7,0.7-14,1.8-21,3
		c-1.2,0.2-2.2,1.3-3.3,1.9c-0.5,0.3-1,0.7-1.4,1c0.5,0.3,1,0.7,1.4,1c0,2,0,4,0,6c-2.6,2.8-2.6,9.2,0,12c0,1.3,0,2.7,0,4
		c-0.9,0.9-2.4,1.7-2.5,2.6c-0.2,5.9-0.2,11.8,0,17.7c0,0.9,1.6,1.8,2.4,2.6c0,8.3,0,16.7,0,25c-2.8,2.7-2.8,5.3,0,8
		c0,1.7,0,3.3,0,5c-0.9,1.9-2.6,3.8-2.7,5.7c-0.1,4.9,0.8,9.9,0.8,14.9c-0.1,7-0.9,14.1-0.8,21.1c0.1,9.8,0.5,19.6,1,29.3
		c0.1,1.4,1.2,2.7,1.8,4c0,2.7,0,5.3,0,8c-2.6,1.3-2.6,2.7,0,4c0,2,0,4,0,6c-2.9,1.7-2.9,3.3,0,5c0.7,0.4,1.3,1.1,2,1.1
		c7.9-0.3,15.8-0.5,23.7-1.2c12.9-1.1,25.8-2.6,38.7-3.9c7.5-0.8,15-1.4,23-2.2c0-3.6,0-6.7,0-9.8c0.6-0.4,1.1-0.9,1.7-1.3
		c-0.6-0.6-1.1-1.2-1.7-1.7C544.2,743,544.2,742,544.2,741z M1366.7,582.8c-4.2,1.8-2.3,3.6,0,5.4c0.1,0.9,0.1,1.9,0.2,2.8
		c0,0.7,0,1.3,0,2c0,1,0.1,2,0.1,3c-0.1,1.3-0.2,2.5-0.3,3.8c-0.4,0.2-0.8,0.4-1.2,0.7c0.4,0.2,0.8,0.5,1.2,0.7c0,2.2,0,4.4,0,6.6
		c-0.4,0.2-0.8,0.4-1.2,0.7c0.4,0.2,0.8,0.5,1.2,0.7c0,2.2,0,4.4,0,6.6c-0.4,0.3-0.7,0.6-1.1,0.9c0.4,0.2,0.7,0.3,1.1,0.5
		c0,2.2,0,4.4,0,6.6c-0.4,0.2-0.8,0.5-1.2,0.7c0.4,0.2,0.8,0.5,1.2,0.7c0,7.5,0,15.1,0,22.6c-0.4,0.3-0.7,0.6-1.1,0.9
		c0.4,0.2,0.7,0.4,1.1,0.5c0,1.9,0,3.7,0,5.6c0,1.1,0,2.3,0,3.4c0,7.2,0,14.4,0,22.1c7.8-0.5,15-0.8,22.1-1.4
		c5.1-0.5,10.2-1.4,15.3-2.1c0.3-0.3,0.5-0.6,0.8-0.9c0-15.7,0.1-31.3,0.1-47c0-1,0-2,0-2.9c0-9,0-18,0-27.1
		c0.4-1.3,0.8-2.6,1.2-3.9c0.6-0.3,1.1-0.9,1.7-0.9c9-0.7,18-1.7,27-2c4.2-0.1,5.5-1.3,5.3-5.4c-0.3-7.6-0.3-15.3,0-22.9
		c0.2-3.7-3.2-4.9-4.4-4.3c-4,2-8.1,1.1-12,2c-5.9,1.3-12.1-0.4-17.7,2.3c-0.6-2.3-1.2-4.5-1.8-6.8c0-1,0-2,0-3
		c0.6-0.4,1.1-0.8,1.7-1.3c-0.6-0.6-1.1-1.2-1.7-1.7c0-10.3,0-20.5,0-30.6c14.8-1.4,29.2-2.8,44.2-4.2c-0.5-10.1-1-19.6-1.5-30.3
		c-10.9,3.8-21.6,0.6-32.2,3.6c-7.7,2.2-16.1,1.6-24.2,2.5c-8,0.9-16,2-24,3c-0.8,0.4-1.5,0.9-2.3,1.3c0.8,0.6,1.6,1.2,2.3,1.7
		c0.1,14.9,0.1,29.9,0.2,44.8c-4.2,1.8-2.3,3.6,0,5.4c0,0.9,0,1.8,0,2.6c-2.5,1.8-2.6,3.6,0,5.4c0,3.9,0,7.8,0,11.6
		c-0.4,0.2-0.8,0.4-1.2,0.7c0.4,0.2,0.8,0.5,1.2,0.7C1366.7,573.7,1366.7,578.3,1366.7,582.8z M881.8,793c0-5.2,0-10.5,0-16
		c-5.9,0-11.6,0.9-16.8-0.3c-4.5-1-4.9,0.5-4.9,3.8c0,13.2,0.1,26.3,0.1,39.5c0.3,5.7,0.6,11.4,0.9,17.1c-0.4,0.1-0.8,0.1-1.2,0.2
		c-4.2-9.7-8.4-19.3-12.5-29c-3.7-8.7-7.2-17.5-11.1-26.1c-0.5-1-2.4-2.1-3.6-2c-5.8,0.4-11.6,1.2-16.8,1.8
		c-0.9,2.1-1.7,3.6-2.1,5.1c-0.3,1.3-0.3,2.7,0,4c0.6,2.7,1.8,5.2,2,7.9c0.4,6,0.2,12,0.3,18c-0.1,22.5-0.2,45-0.3,67.5
		c0,6.6,0,13.2,0,19.9c7-0.6,13.4-1.1,19.8-1.7c0-22.1,0-44,0-65.9c0.5-0.1,1.1-0.3,1.6-0.4c8.5,20.8,17,41.7,25.5,62.6
		c4.5,0,9-0.7,13.1,0.2c4.5,0.9,5.8-0.9,5.8-4.6c0.1-15.8,0.1-31.7,0.1-47.5c0-0.7,0.1-1.4,0.1-2.1c0-10,0-20,0-29.9c0-1,0-2,0-3
		c0-0.7,0-1.3,0-2c0-2,0-4,0-6c0-1.3,0-2.7,0-4c0-0.7,0-1.3,0-2C881.8,796.3,881.8,794.7,881.8,793z M926.3,656.9c0-2.2,0-4.5,0-6.7
		c2.8-2.1,4.6-4.2,0-6.3c-0.1-1-0.2-1.9-0.3-2.9c0-0.7,0-1.3,0-2c0-12.7,0-25.3,0-38c0-1.7,0-3.3-0.1-5c0-2.7-0.1-5.3-0.1-8
		c-0.6-5.7-0.6-11.5-2.1-17c-2.6-10.2-5.9-20.2-16.2-25.7c-3.1-1.6-5.9-4.3-9.1-4.8c-8.4-1.3-16.9-1.7-25.4-2.4
		c-0.7,0.3-1.3,0.5-2,0.8c-9.4-0.3-18.5,1.1-27,4.8c-19.9,8.5-28.2,24.8-29,45.5c-0.6,16.6-0.5,33.3-0.7,49.9
		c-4.4,2.5-2.3,4.9,0.1,7.2c0.3,12.9,0.5,25.8,0.8,38.8c1.9,8.3,2.5,17.1,6.1,24.6c4.9,10.4,14,17.3,25.8,19.2c11,1.8,22,1.4,33-0.8
		c17.9-3.6,32.3-11.6,40-29.2c5.2-11.8,6.1-24.1,6.2-36.7C929,660.4,929,658.7,926.3,656.9z M666,794c-0.7,0.3-1.3,0.5-2,0.8
		c-2.3,0.3-4.6,0.4-6.8,1c-24.1,6.4-27.7,37.9-15.2,53.8c5.8,7.4,13.5,12.5,21.3,17.3c9.5,5.9,14,13.4,12.7,24.7
		c-0.5,4.4-4.4,8-8.6,8.3c-4.5,0.3-7.3-1.9-8.5-7.2c-0.8-3.5-1-7.1-1.5-10.8c-7.4,0.4-14.7,0.6-21.9,1.2c-1,0.1-1.8,2.5-2.7,3.8
		c-0.5,0.3-1,0.7-1.4,1c0.5,0.3,1,0.7,1.5,1c0.1,1.2,0.2,2.3,0.2,3.5c0.3,13.9,7.9,23.8,21.4,26.8c5.1,1.1,10.6,1,15.9,0.6
		c10.2-0.8,18.8-5.2,24.5-14c5.5-8.3,6.7-24.4,4.3-32.3c-3.3-10.9-11-17.6-19.7-23.8c-5-3.5-10-7.2-14.4-11.4
		c-5.3-5-6.2-13.5-3.2-20.1c1.4-3,3.4-4.4,7-4.4c3.6,0,5.2,2.1,6,4.8c0.9,3.3,1.2,6.7,1.8,10.6c7.1-0.5,14.1-1,21.5-1.6
		c-0.4-6.1,0-11.9-1.4-17.2c-1.1-4.1-1.2-9-6.1-11.9C682.8,793.9,674.5,793.9,666,794z M793.8,678c-0.7-3.3-1.4-6.7-2-10
		c-3.1-5.8-5.2-12.4-9.4-17.2c-6.9-7.8-14.9-14.8-23-21.4c-4.6-3.8-10.4-5.9-15.3-9.3c-10.4-7.3-14.6-23.3-9.6-34.9
		c2.2-5.1,6.7-7.8,11.9-7.1c4.4,0.6,9.3,5.3,9.8,9.7c0.5,4.9,0.7,9.8,1,14.8c12-1.2,23.3-2.3,34.7-3.4c0.3-11.9,0.5-22.9-4.6-33.6
		c-5.1-10.6-15.1-14.5-24.9-16.7c-7.5-1.7-16.1-0.1-23.9,1.4c-7.5,1.4-15.1,3.5-21.9,7c-14.2,7.4-21.1,20.1-22.3,35.8
		c-0.8,10,0.2,19.7,4.2,29.1c6.4,15,18.5,24,31.9,32c5.6,4.2,11.2,8.5,16.7,12.7c1.3,1.3,2.6,2.7,3.9,4c1.1,1.6,2.2,3.3,3.2,4.9
		c4,9.1,3.6,18.5,1.9,28c-1.6,1.8-3.1,3.9-5,5.4c-5.5,4.3-15.7,3.3-17.8-2.5c-2.1-5.7-3.7-12.4-2.6-18.1c1.1-5.4,1.6-7.2-4.5-6.9
		c-2.1,0.1-4.2-1.3-6.2-1.1c-2.6,0.3-5.2,1.8-7.8,2.1c-5.4,0.6-10.9,0.5-16.3,1.2c-1.4,0.2-3.6,2.2-3.6,3.3c0.4,9.1,1,18.1,2.3,27.1
		c0.6,4.4,1.9,9.6,4.8,12.7c3.9,4.2,9.3,7.6,14.7,9.7c15.6,6.2,31.6,5.5,47.4,0.3c22.2-7.3,33.5-25,32.6-50.2c0-0.7,0-1.3,0-2
		c0-1-0.1-2-0.1-3C793.8,680.7,793.8,679.3,793.8,678z M335,776.2c9.5-0.7,19.1-1.8,28.6-2.1c4.5-0.1,5.5-1.5,5.5-5.8
		c-0.1-23.8,0.1-47.6,0.1-71.3c0.3-0.3,0.5-0.6,0.8-0.8c11-1.4,22.1-2.1,32.8-4.4c17.6-3.8,31.2-19.9,31.9-37.3
		c0.5-12.4,0.5-24.8,0.2-37.1c-0.3-13.9-9.3-26.4-22-30.5c-5.4-1.7-11.2-2-16.9-3c-2.7-2.6-6.3-2.6-9,0c-18.3,1.7-36.7,3.4-55,5.1
		c0,62.9,0,125,0,187c0.4,0.9,0.8,1.8,1.1,2.7C333.8,777.8,334.4,777,335,776.2z M458.9,868.5c-6.2,4.1-1.4,10.7-3.1,16.6
		c45-3.9,89.1-7.7,133-11.5c0-5.1,0-9.7,0-14.9c-6.3,1.8-12.5-1.6-18.7,1.2c-2.4,1.1-5.6-0.1-8.4,0.2c-7.5,0.8-15,2-22.6,2.8
		c-8.8,1-17.7,1.9-26.5,2.8c-5.6,0.5-11.3,1.7-16.7,0.9c-5.3-0.8-10.7,3.4-15.8-0.6c-0.2-0.1-1,0.7-1.6,1
		C472.6,870.1,466.5,869.6,458.9,868.5z"/>
	<path class="st1" d="M396,583.8c5.6,0.9,11.5,1.2,16.9,3c12.7,4.1,21.7,16.7,22,30.5c0.3,12.4,0.3,24.8-0.2,37.1
		c-0.7,17.4-14.3,33.6-31.9,37.3c-10.8,2.3-21.9,3-32.8,4.4c-0.3,0.3-0.5,0.6-0.8,0.8c-0.1,23.8-0.2,47.6-0.1,71.3
		c0,4.2-1,5.7-5.5,5.8c-9.5,0.3-19.1,1.3-28.6,2.1c-1-0.1-2-0.2-3-0.3c0-62,0-124.1,0-187c18.3-1.7,36.6-3.4,55-5.1
		C390,583.8,393,583.8,396,583.8z M369.2,664.9c0.3,0.3,0.6,0.7,0.9,1c5.1-0.3,10.4-0.2,15.4-1.1c6.9-1.3,12.9-4.9,13.6-12.5
		c0.9-9.5,1-19.2,0.5-28.7c-0.3-5.4-4-9.8-9.9-10.4c-6.7-0.6-13.5-0.1-20.4-0.1C369.2,630.8,369.2,647.8,369.2,664.9z"/>
	<path class="st2" d="M926,596c0,1.7,0,3.3,0.1,5c-0.7,1.1-1.9,2.2-1.9,3.3c-0.5,10.1-0.9,20.2-0.9,30.3c0,1.5,1.9,2.9,2.9,4.4
		c0,0.7,0,1.3,0,2c-2.6,3.2-6.1,6.1-7.5,9.8c-1.6,4.2-2.6,5.4-6.4,2.2c-0.7-0.6-4.4,0.5-4.5,1.2c-1.1,6.9-5.1,4.9-9.2,3
		c-1.7,5.2-4.8,9.6-3.7,15.1c0.1,0.6-0.6,2-1.1,2c-6.3,0.9-4.3,6.6-5.8,10.2c-0.9,2,0.2,5.4-3.8,5.2c0.8-6.1,2.3-12.1,2.4-18.2
		c0.3-21.2,0.1-42.3,0-63.5c0-9-0.2-18-0.7-27c-0.5-8.5-5.1-13.5-11.9-14.1c-9.9-0.8-15,2.3-17.1,11.8c-1.2,5.6-1.5,11.5-1.6,17.3
		c-0.3,18.3-0.2,36.6-0.3,55c-1,1.2-2.6,2.2-2.9,3.5c-1.5,7.9-3.6,15.4-10.6,20c-4.8-1.3-9.4-2.5-14.8-3.9c-0.5,1.1-1.5,2.6-1.7,4.2
		c-1,8-1.5,8.6-9.8,10.3c-0.3-12.9-0.5-25.8-0.8-38.8c0-2.4-0.1-4.8-0.1-7.2c0.2-16.6,0.1-33.3,0.7-49.9c0.7-20.7,9.1-36.9,29-45.5
		c8.5-3.7,17.7-5.2,27-4.8c0.7-0.3,1.3-0.5,2-0.8c8.5,0.8,17,1.1,25.4,2.4c3.2,0.5,6.1,3.2,9.1,4.8c10.4,5.4,13.6,15.5,16.2,25.7
		c1.4,5.5,1.4,11.3,2.1,17C922.9,590.7,922.8,593.4,926,596z"/>
	<path class="st3" d="M813.9,386c-0.3-7.7-0.7-15.4-0.8-23.1c0-3.6,1.3-7.3,0.7-10.7c-1.5-8.8,0.4-17.4,0.3-26.1
		c2.3-1.6,5.5-2.8,6.6-5c1.9-4,2.7-8.7,3.6-13.1c0.5-2.5,0.4-5.1,0.8-7.7c0.5-3.7,0.7-7.7,2.3-11c0.4-0.8,5.5,0.7,8.4,1.1
		c0.5,0.1,1,0.1,1.9,0.3c1.7-7,3.5-13.9,5.2-20.9c0.1-0.3,0-0.7,0-1c-0.8-6.7,4-13.9,10.2-16c1.5-0.5,3.4-2.4,3.6-3.9
		c0.4-3-0.2-6.1-0.3-9.1c0-1,0-2.5,0.6-3.1c4.6-4.6,3.2-10.4,3.2-15.8c0-3.5-1.6-7-1.9-10.5c-0.3-3.4,0.8-7,0.4-10.4
		c-1.1-9.3-1.7-18.4,5.4-26c0.5-0.5,0.5-1.5,0.7-2.3c0.7-3,1.4-5.9,2.3-9.8c-1.3-0.8-3.3-2-6.5-3.9c2.9-0.7,4.7-1.1,5.3-1.2
		c2.3-2.4,3.6-4.6,5.5-5.6c3.7-1.9,7.7-3.5,11.8-4.7c4-1.1,3.9-3.4,2.7-6.4c6.2-1,12.5-2.9,18.7-2.9c7.3,0,14-2.6,21.1-3.4
		c2.1-0.2,4-1.9,6.1-2.2c2.3-0.3,4.7,0.1,7,0.2c3.7,4,3.4,5.8-1.6,7.7c-1.8,0.7-4,1.5-5.8,1.2c-5.4-0.9-10.2-0.2-15.4,1.8
		c-3,1.2-4.3,1.4-3.6,5.2c0.6,3.1-0.7,6.6-1.2,10.2c-2.3-0.8-3.5-1.3-4.8-1.8c-0.4,0.1-0.9,0.1-1.3,0.2c5.3,7.8,0.3,14.2-0.5,21.2
		c-0.6-0.1-1.3-0.1-1.9-0.2c0.2-1.7,0.3-3.4,0.5-5.2c-0.4-0.2-0.7-0.5-1.1-0.7c-1.4,2.5-3.3,5-3.9,7.7c-0.8,3.5-2.3,7.7,2.3,9.6
		c-1.3,1.9-2.4,3.4-3.5,5c-0.9,0.3-1.8,0.8-2.8,0.9c-8,1.3-7.9,1.3-8,9.1c-0.1,19.7-0.2,39.3-0.2,59c-3.2,1.7-3.2,3.3,0,5
		c0,5,0,10,0,15c-0.6,0.4-1.8,0.8-1.8,1.3c-0.6,5.6-1.1,11.2-1.6,16.9c-0.3,3.6,0.4,7.5-0.8,10.7c-1.9,5-5,9.5-8,15
		c-0.9-1.7-1.9-3.7-3-5.8c-3.4,0.9-3.8,3.6-3.8,6.5c-0.1,3.4-0.2,6.3-4.5,7.7c-2.7,0.9-4.7,3.7-7.3,5.9c0.7,0.3,1.3,0.4,1.8,0.7
		c1,0.6,1.9,1.3,2.9,1.9c-1,1-1.8,2.4-2.9,2.8c-1,0.4-2.5-0.4-3.7-0.5c-1.1,0-3.2,0.3-3.1,0.4c0.2,4.5-1.8,7.3-5.9,8.9
		c-0.2,0.1-0.1,1-0.3,1.4c-1.2,2.2-2.5,4.2-3.7,6.4c-2.2,4.2-9.3,4.6-8,11.5c-1.1-1.8-1.3-3.3-2.1-4.6c-0.8-1.2-2-2.1-3.1-3.1
		c-0.7,1.3-1.7,2.6-2,4.1c-0.9,5.1-1.6,10.3-2.4,16.1C819.3,386.8,816.6,386.4,813.9,386z M854.6,256.7c-0.3-0.1-0.6-0.4-0.8-0.3
		c-0.2,0.1-0.3,0.5-0.4,0.8c0.3,0.1,0.6,0.4,0.8,0.3C854.4,257.4,854.5,257,854.6,256.7z M834.6,295.3c-0.1-0.3-0.2-0.7-0.4-0.8
		c-0.2-0.1-0.5,0.2-0.8,0.3c0.1,0.3,0.2,0.7,0.4,0.8C834,295.6,834.3,295.4,834.6,295.3z"/>
	<path class="st4" d="M980.3,439.1c0,10.8,0,21.5,0,32.7c-10.6,1.4-20.7,2.8-30.9,4.2c-4.5,0.6-9,1.2-13.4,1.8
		c-0.8-0.8-1.7-2.4-2.5-2.4c-3.3,0.1-6.5,0.8-9.8,1.2c-4.8,0.7-9.6-4.1-8.2-8c-3.1-2.1-4.4-10-2.7-14.9c0.9-2.6,1.8-5.2,2.7-7.7
		c1.4-3.9,2.9-7.8,4.2-11.7c0.2-0.5-0.3-1.4-0.7-1.8c-3.1-3.4-2.6-6.1,0.1-9.8c1.8-2.4,1.4-6.5,2.3-9.7c0.4-1.4,1.6-2.5,2.4-3.7
		c1,1,2.2,1.9,3,3c1.2,1.6,2.1,3.4,3.3,5.4c1.9-2.9,3.1-4.8,4.3-6.6c0.4,0.2,0.9,0.4,1.3,0.6c-0.2,2.2-0.5,4.4-0.8,7.4
		c2.5-0.3,4.6-0.6,8-1c-5.1-5-2.8-7.5,1-10c1-0.6,1.5-3.4,1-4.6c-2.1-4.9,0.9-7.5,3.2-10.6c4.7,2.4,3.1,10.4,10.9,9.6
		c-0.8-2.2-1.4-4-2-5.7c8.8-5.9,10.4-9.5,6.9-15.8c1.2-0.9,2.5-1.8,4-2.8c-0.8-1-1.3-1.8-1.9-2.6c-2.3-2.7-0.6-3.7,1.9-4.4
		c2.1-0.6,4.2-1.5,6.9-2.4c1.7,1.6,4.5,1.3,4.7-1.9c0.2-4.9,2.7-8.6,4.3-12.8c2-5.3,5.2-5,9.2-5.1c4.8-0.1,9.6-0.5,14.4-0.7
		c3.8-0.1,5-2.1,4.3-5.6c1-0.2,2.1-0.3,3.1-0.5c0.5,1.2,1,2.4,2.1,5c1.3-2.6,2.1-4,2.8-5.4c0,0-0.1,0.1-0.1,0.1
		c0.4-0.2,0.8-0.5,1.1-0.7c0.7,0,1.3,0,2,0c0.7,3.5,1.7,7,1.9,10.5c0.2,3.6,1.8,4.6,4.9,4.3c0.1,0.3,0.2,0.7,0.3,1c0,3,0,6,0,9
		c0,1,0,2,0,3c0,9.1,0,18.2,0,27.8c-16.7,2.2-33.1,4.3-49.8,6.5c0,4.7,0,9.1,0,13.6c0,2.1,0,4.2,0,6.3c0,0.6,0,1.1,0,1.7
		c0,2.1,0,4.2,0,6.3c0,0.6,0,1.2,0,1.7C980.3,435,980.3,437,980.3,439.1z M977.9,379.3c2.4-4.6,2.1-5.2-2.7-5.8
		C976,375.4,976.8,377,977.9,379.3z"/>
	<path class="st5" d="M1003.9,123.7c9.8-0.1,19.8-1.6,29.2,0.1c18.2,3.3,26.9,16.9,30.8,33.7c1.9,8.1,2.2,16.6,3.2,25
		c0.6,4.7,1.6,9.4,1.7,14.1c0.1,4.5-0.5,9.1-1.1,13.6c-0.1,0.8-2.2,1.6-3.5,1.8c-20.7,2.7-41.4,5.4-62.1,8c-2.4,0.3-4.9,0-7.3,0
		c-0.5-8.1-0.8-15.8-1.6-23.5c-0.6-5.2-3.4-9.3-8.9-10.7c-1.1-5.3-2.8-5.8-7.9-5.5c-4.1,0.2-8.2-1.4-12.3-2.5
		c-0.6-0.2-1.4-1.9-1.3-2.7c1.1-6,2.3-11.9,3.4-17.1c5.2-2.8,9.5-5.1,13.5-7.2c0.3-1.9,0.4-4.3,1.1-6.4c0.9-2.6,2.1-5.2,3.5-7.6
		c0.8-1.4,2.1-2.9,3.6-3.6c1.4-0.6,3.3,0.1,4.9-0.2c5-0.9,10.6-0.2,14.3-5C1005.8,126.4,1004.8,125,1003.9,123.7z"/>
	<path class="st6" d="M1094.1,608c0-0.7,0.1-1.3,0.1-2c5.3-0.3,9.7-1.7,13.3-6.4c2.3-3.1,5.1-1.4,5.5,2.8c0.1,1.1,0.3,2.1,0.5,3.2
		c0.4,0.2,0.8,0.5,1.2,0.7c0.8-1.6,1.6-3.2,2.1-4.4c2.5,1,3.9,1.5,5,1.9c2-1.3-0.3-6.2,4.2-3.8c-1.8,12.1-3.6,24.3-5.3,36.4
		c-0.1,1,0.7,3.1,1,3.1c8.1-0.7,16.2-1.6,24.3-2.5c6.9-1.7,8.9-6.2,5.4-11.8c-1-1.7-1.9-3.5-3.1-5.1c-2.7-3.7-0.7-5.9,2.4-7.4
		c1.9-1,4-1.5,6.1-2c0.8-0.2,1.7,0.4,2.5,0.6c-0.3,0.8-0.4,2-1,2.4c-1.6,1-3.6,1.5-5.2,2.5c-0.8,0.5-1.1,1.6-1.7,2.5
		c1,0.3,2.4,1.3,2.9,0.9c3.4-2.5,6.6-2.6,10.3,0.6c-1.2-6.5,2.7-7.7,6.2-9.4c1.3-1.6,2.6-3.1,3.9-4.7c3.9,19,7.8,38,11.6,57
		c2,10.1,3.6,20.4,5.8,30.5c0.7,3.1-0.3,3.3-2.7,3.5c-9.1,1-18.2,2.2-27.4,3.3c-3.2,0.4-5.7,0.4-6.4-4.1
		c-1.6-10.7-3.8-21.3-5.8-31.8c-11.2,1-21.8,1.9-33.2,2.8c-1,6-2,12.3-2.9,18.6c-0.8,5.2-1.2,10.5-2.2,15.7c-0.2,1-2,2.4-3.2,2.5
		c-9.6,1.1-19.3,2-29,2.9c-1.1,0.1-2.1,0.3-3.7,0.5c1.2-6.7,2.3-13.3,3.5-19.9c1.5-8.6,4-17.1,4.3-25.7c0.2-6.8,2.9-12.6,4-19
		c5.1,0,5.2-5.2,5.8-7.5c2-8,2.5-16.3,3.3-24.5C1096.9,610,1095.1,609,1094.1,608z"/>
	<path class="st1" d="M456.8,588c0-2,0-4,0-6c0-0.7,0-1.3,0-2c1.1-0.7,2.2-1.7,3.3-1.9c7-1.1,14-2.3,21-3c6.1-0.6,12.3-0.5,18.4-1
		c12.7-1,25.3-2.1,38-3.1c1.5-0.1,3,0.6,4.5,0.9c0,2,0,4,0,6c0,7.5,0,15,0,23.1c-15.8,1.3-31.4,2.6-47.2,3.9c0,14.6,0,28.9,0,43.8
		c12.5-1.1,25-2.2,37.9-3.4c0,10.2,0,19.5,0,29.4c-12.4,1-25,2-37.9,3c0,4.9,0,9,0,13.1c-1.2-1.2-3-2.1-3.6-3.5
		c-1.1-2.9-1.1-6.4-2.5-9.1c-0.8-1.6-3.6-3.3-5.2-3.1c-9.1,1.3-9.4,1.9-10.8,11.7c-0.1,0.6-0.4,1.3-0.9,1.7
		c-4.3,4.1-3.8,10.6-7.2,15.2c-0.4,0.5-0.4,1.3-0.5,1.9c-0.3,4.4-0.8,8.7-0.9,13.1c-0.1,4.3-2.4,5.5-6.1,5.2
		c-0.1-2.1-0.2-4.3-0.2-6.4c-0.1-17.5-0.1-35-0.2-52.6c0-1.7,0-3.3,0-5c0-2.7,0-5.3,0-8c0-8.3,0-16.7,0-25c0-7.7,0-15.3,0-23
		c0-1.3,0-2.7,0-4C456.8,596,456.8,592,456.8,588z"/>
	<path class="st7" d="M730.3,654.3c-13.3-8-25.5-17-31.9-32c-4-9.4-5-19.2-4.2-29.1c1.3-15.7,8.1-28.5,22.3-35.8
		c6.7-3.5,14.4-5.6,21.9-7c7.8-1.5,16.4-3.1,23.9-1.4c9.8,2.2,19.8,6.1,24.9,16.7c5.1,10.6,4.9,21.7,4.6,33.6
		c-11.4,1.1-22.7,2.2-34.7,3.4c-0.3-5-0.5-9.9-1-14.8c-0.4-4.4-5.3-9.1-9.8-9.7c-5.2-0.7-9.7,2.1-11.9,7.1
		c-5,11.6-0.8,27.6,9.6,34.9c4.9,3.4,10.8,5.5,15.3,9.3c8.1,6.7,16.1,13.6,23,21.4c4.2,4.8,6.3,11.4,9.4,17.2
		c-8.1,1.5-14.2,0.5-15.2-2.6c1.4-0.7,2.8-1.4,3.2-1.6c-2.3-3-4.5-5.8-6.8-8.7c-3.8,5.7-3.8,5.7-10.4,2.3c-0.5,0.8-0.8,1.9-1.5,2.5
		c-1,0.9-2.3,2.1-3.3,2c-2-0.3-5.5-1.7-5.4-2.2c0.7-5.6-3.3-7-6.9-9c-0.8-0.4-1-1.9-1.5-2.9c-1-1.7-1.8-3.6-3-5.1
		c-2-2.4-3.8-1.7-4.6,1.1c-0.5,1.7-1,3.6-0.7,5.4C736.2,653.4,733.9,654.4,730.3,654.3z"/>
	<path class="st8" d="M886,140.2c1.2,3,1.3,5.2-2.7,6.4c-4,1.1-8,2.7-11.8,4.7c-1.9,1-3.2,3.2-5.5,5.6c-0.6,0.1-2.3,0.5-5.3,1.2
		c3.3,2,5.2,3.1,6.5,3.9c-0.9,3.8-1.6,6.8-2.3,9.8c-0.2,0.8-0.2,1.8-0.7,2.3c-7.1,7.6-6.5,16.7-5.4,26c0.4,3.4-0.7,6.9-0.4,10.4
		c0.3,3.5,1.9,7,1.9,10.5c0,5.4,1.4,11.2-3.2,15.8c-0.6,0.6-0.6,2.1-0.6,3.1c0.1,3,0.7,6.1,0.3,9.1c-0.2,1.5-2.1,3.4-3.6,3.9
		c-6.2,2.1-11,9.3-10.2,16c0,0.3,0.1,0.7,0,1c-1.7,7-3.5,13.9-5.2,20.9c-1-0.1-1.4-0.2-1.9-0.3c-2.9-0.4-8.1-1.9-8.4-1.1
		c-1.6,3.3-1.8,7.2-2.3,11c-0.4,2.5-0.2,5.2-0.8,7.7c-1,4.4-1.7,9.1-3.6,13.1c-1.1,2.2-4.3,3.4-6.6,5c-0.1-29.9-0.1-59.9-0.2-89.8
		c0-19.3,0.1-38.6-0.1-57.9c0-2.2-1-4.3-1.5-6.5c-0.1-0.6-0.5-1.3-0.4-1.9c0.9-6.7,1.9-13.4,2.9-20.7c1.2-0.3,3.2-0.7,5.2-1.1
		c0,0,0.4,0.1,0.4,0.1s0.3-0.3,0.3-0.3c10.1-1.2,20.3-2.3,30.4-3.5C862.9,143.1,874.4,141.6,886,140.2z"/>
	<path class="st9" d="M1011.9,342.7c0.6,3.5-0.6,5.5-4.3,5.6c-4.8,0.2-9.6,0.6-14.4,0.7c-4,0.1-7.2-0.2-9.2,5.1
		c-1.6,4.2-4.2,7.9-4.3,12.8c-0.1,3.2-3,3.5-4.7,1.9c-2.7,1-4.8,1.8-6.9,2.4c-2.5,0.7-4.2,1.7-1.9,4.4c0.6,0.7,1.2,1.5,1.9,2.6
		c-1.5,1.1-2.8,2-4,2.8c3.5,6.3,1.9,9.9-6.9,15.8c0.6,1.7,1.2,3.5,2,5.7c-7.8,0.8-6.2-7.2-10.9-9.6c-2.3,3.1-5.3,5.7-3.2,10.6
		c0.5,1.2,0,3.9-1,4.6c-3.8,2.5-6.1,5-1,10c-3.5,0.4-5.5,0.7-8,1c0.3-3,0.5-5.2,0.8-7.4c-0.4-0.2-0.9-0.4-1.3-0.6
		c-1.2,1.8-2.4,3.7-4.3,6.6c-1.2-2-2.1-3.8-3.3-5.4c-0.8-1.1-2-2-3-3c-0.8,1.2-2,2.4-2.4,3.7c-0.9,3.2-0.5,7.3-2.3,9.7
		c-2.8,3.7-3.2,6.4-0.1,9.8c0.4,0.5,0.8,1.3,0.7,1.8c-1.3,3.9-2.8,7.8-4.2,11.7c-0.9,2.6-1.8,5.2-2.7,7.7
		c-1.8,4.9-0.4,12.8,2.7,14.9c-1.4,3.9,3.4,8.7,8.2,8c3.3-0.5,6.5-1.1,9.8-1.2c0.8,0,1.7,1.6,2.5,2.4c-10.7,1.4-21.4,2.7-32.5,4.2
		c0-14.7,0-28.9,0-43.1c0-0.9,0-1.8,0-2.8c0-8,0-15.9,0-23.9c0-2.5,0-5,0-7.4c0.1-8.3,0.3-16.5,0.4-24.8c0.7,0.8,1.8,1.5,1.9,2.3
		c0.5,3.1,0.6,6.3,1.2,9.3c0.5,2.8,0.9,6.2,5.2,5.7c3.8-0.5,8.3-0.1,7.3-6.5c-0.7-4.8,3.1-9.2,7.9-11c1.4-0.5,2.6-2.2,3.5-3.7
		c0.8-1.5,1.1-3.3,1.8-5.6c2,2.3,3.5,3.9,4.6,5.2c6.2-6.9,3.5-17.3,12.3-23.3c1.6,3.1,2.9,5.7,4.3,8.3c7.2-6,7.3-8.7,1.2-15.2
		c0-0.2-0.1-0.4,0-0.5c2.8-5.9,5.7-11.8,8.5-17.7c0.2-0.4,0.3-1,0.2-1.4c-2-5,1.2-8.1,4-11.4c1-1.2,2.1-2.8,2-4.2
		c-0.2-3.9-1.1-7.8-1.6-11.7c-0.4-3.2-1.5-6.5-0.8-9.5c1.5-6.5,2.2-12.1-5.6-15.1c2-4.5,3.8-8.6,5.8-13c0.5,0,1.6,0.2,2.4-0.2
		c3.7-1.8,9.3-0.6,9.7-7.7c0.2-2.9,4.2-6.8,7.3-7.9c4.3-1.6,9.4-1.2,14.2-1.3c7.2-0.2,7.2-0.1,5.9-6.8c17.6-2.3,35.2-4.6,52.9-6.9
		c0.6,3.5-1.4,5.1-4.3,5.4c-6,0.6-12,0.8-18.1,1.3c-0.8,0.1-1.9,0.1-2.3,0.6c-3.4,4.4-6.6,8.8-9.9,13.3c0-0.1-1-0.9-0.9-1.7
		c0.7-5.6-1.3-5-4.8-2.5c-0.9,0.7-2.8,0.6-3.9,0.2c-4.2-1.5-5.6-0.7-6.7,3.5c-2.1,7.8-2.5,16.3-8.6,21.7c-2.9,0.2-5.9,1.2-7.6,0.2
		c-1.7-1-2.2-4.1-3.3-6.3c-0.5,0-1,0-1.6,0c-0.6,2.2-1.9,4.4-1.8,6.6c0.1,6.3,0.8,12.5,1.3,19.3c8.3,0,17.2-0.1,26.1,0.1
		c1.5,0,3,1.2,4.5,1.8c-12.1,1.9-24.3,3.8-36.9,5.8c0,15,0,30.5,0,46.6C991.3,345.1,1001.6,343.9,1011.9,342.7z"/>
	<path class="st10" d="M813.9,386c2.7,0.4,5.4,0.9,8.8,1.4c0.8-5.8,1.5-10.9,2.4-16.1c0.3-1.4,1.3-2.7,2-4.1c1,1,2.3,1.9,3.1,3.1
		c0.8,1.2,1,2.7,2.1,4.6c-1.3-7,5.8-7.3,8-11.5c1.1-2.2,2.5-4.3,3.7-6.4c0.2-0.4,0.1-1.3,0.3-1.4c4.1-1.6,6.2-4.4,5.9-8.9
		c0-0.1,2.1-0.4,3.1-0.4c1.3,0,2.7,0.8,3.7,0.5c1.2-0.4,2-1.8,2.9-2.8c-1-0.6-1.9-1.3-2.9-1.9c-0.5-0.3-1.1-0.5-1.8-0.7
		c2.6-2.2,4.6-5,7.3-5.9c4.3-1.4,4.4-4.3,4.5-7.7c0.1-2.9,0.4-5.6,3.8-6.5c1.1,2.2,2.2,4.2,3,5.8c3-5.5,6.1-10,8-15
		c1.2-3.2,0.5-7.1,0.8-10.7c0.4-5.6,0.9-11.3,1.6-16.9c0.1-0.5,1.2-0.9,1.8-1.3c0.1,3.3,0.2,6.6,0.3,9.9c0,1.4,0,2.8,0,4.2
		c0,1.3,0,2.5,0,3.8c0,1.7,0,3.5,0,5.2c0,6.3,0,12.5,0,18.8c0,2.1,0,4.1,0,6.2c0,16.9,0,33.9,0,50.8c0,1.1,0,2.1,0,3.2
		c0,11.5,0,22.9,0,34.8c-24.1,3-47.8,6-72.2,9.1c0-4.3,0.1-8.3,0-12.4c-0.2-6.8,0.3-13.6-1.7-20.5
		C811.5,393.1,813.3,389.4,813.9,386z"/>
	<path class="st11" d="M1054.2,591c0,2,0,4,0,6c0,10.7,0,21.3,0,32c0,1,0,2,0,3c0,3,0,6,0,9c0,2,0,4,0,6c0,5.7,0,11.3,0,17
		c0,1.3,0,2.7,0,4c0,4,0,8,0,12c0,7.7,0,15.3,0,23c0,1.7,0,3.3,0,5c-0.8,0.6-1.6,1.7-2.4,1.8c-7.5,0.8-15.1,1.5-22.7,2
		c-1,0.1-2.5-1.3-3-2.4c-6.8-15-13.4-30.2-20.4-45.1c-2.6-5.5-6.3-10.6-8.8-16.1c-1.9-4.1-2.6-8.8-3.8-13.2c1.7-0.9,3.7-1.6,5.1-2.9
		c0.9-0.8,1.1-2.5,1.7-3.8c-1.4-0.6-2.7-1.2-4.1-1.6c-0.7-0.2-1.5,0-3.7,0c9.6-5.4,11.9-13.4,12.7-22.8c6.1,2.2,0.8,9.4,6.1,11.9
		c0.4-1.8,0.7-3.5,1.2-5.2c0.4-1.2,1.2-2.3,1.8-3.5c2,4.3,4,8.6,6,12.9c2.4,0.3,4.2-0.1,4.4-3.1c0.1-2.5,0.4-4.9,0.8-7.3
		c0.6-3.3,0.5-8.6,2.4-9.5c3.7-1.8,3.4-4.1,3.6-7c0.1-1.3,1.6-2.4,1.9-3.7c0.8-3.3,2.5-7,1.6-9.8c-1.5-4.7-1.6-5.7,4.9-7
		c-0.4,2.9-0.9,5.4-1.1,8c-0.1,1.2-0.1,2.7,0.6,3.6c0.5,0.7,2.5,1.1,3.1,0.6c3.6-2.6,9.3-0.9,11.7-5.7
		C1053.9,583,1054.1,587,1054.2,591z"/>
	<path class="st12" d="M730.3,654.3c3.6,0.1,6-0.8,5.3-5.3c-0.2-1.7,0.2-3.6,0.7-5.4c0.8-2.8,2.6-3.5,4.6-1.1c1.2,1.5,2.1,3.4,3,5.1
		c0.5,1,0.7,2.5,1.5,2.9c3.7,2,7.6,3.4,6.9,9c-0.1,0.6,3.4,1.9,5.4,2.2c1,0.2,2.3-1.1,3.3-2c0.7-0.6,1-1.6,1.5-2.5
		c6.5,3.4,6.5,3.4,10.4-2.3c2.2,2.9,4.4,5.7,6.8,8.7c-0.4,0.2-1.8,0.9-3.2,1.6c1,3.1,7.1,4.1,15.2,2.6c0.7,3.3,1.4,6.7,2,10
		c-2.6,1.4-2.6,2.7,0.1,4c0,1,0.1,2,0.1,3c-0.5,0.3-1,0.5-1.5,0.8c0.5,0.4,1,0.8,1.5,1.2c1,25.2-10.4,42.9-32.6,50.2
		c-15.8,5.2-31.8,5.9-47.4-0.3c-5.4-2.1-10.7-5.5-14.7-9.7c-2.9-3.1-4.2-8.3-4.8-12.7c-1.3-9-1.8-18-2.3-27.1
		c-0.1-1.1,2.2-3.1,3.6-3.3c5.4-0.7,10.9-0.6,16.3-1.2c2.6-0.3,5.2-1.8,7.8-2.1c2-0.2,4.2,1.2,6.2,1.1c6-0.3,5.5,1.5,4.5,6.9
		c-1.1,5.7,0.5,12.5,2.6,18.1c2.2,5.8,12.4,6.8,17.8,2.5c1.9-1.5,3.3-3.6,5-5.4c1.3-2.3,3.7-4.5,3.8-6.8c0.4-9.9,0.1-19.8,0.1-29.8
		c0-0.4-0.5-0.8-0.8-1.4c-2.8,0.7-4.3,1.7-3.6,5.1c0.3,1.4-0.8,3.2-1.3,4.8c-1.1-1.6-2.2-3.3-3.2-4.9c0.4-1.5,0.8-3,1.3-5.2
		c-2.4,0.5-3.8,0.8-5.2,1.1C741.4,662.8,735.8,658.5,730.3,654.3z M742.6,653.7c-0.3-0.1-0.6-0.2-0.8-0.4c-0.1,0.3-0.4,0.6-0.3,0.8
		c0.1,0.2,0.5,0.3,0.8,0.4C742.3,654.3,742.5,654,742.6,653.7z"/>
	<path class="st13" d="M632.8,887c0.9-1.3,1.7-3.7,2.7-3.8c7.2-0.7,14.5-0.9,21.9-1.2c0.5,3.7,0.7,7.3,1.5,10.8
		c1.2,5.3,4,7.5,8.5,7.2c4.3-0.3,8.1-3.9,8.6-8.3c1.3-11.3-3.2-18.8-12.7-24.7c-7.8-4.9-15.4-9.9-21.3-17.3
		c-12.5-16-8.9-47.4,15.2-53.8c2.2-0.6,4.5-0.7,6.8-1c0.7-0.3,1.3-0.5,2-0.8c8.5-0.2,16.8-0.1,24.6,4.7c4.8,3,4.9,7.8,6.1,11.9
		c1.5,5.3,1,11.1,1.4,17.2c-7.4,0.5-14.4,1-21.5,1.6c-0.6-3.9-0.9-7.4-1.8-10.6c-0.8-2.8-2.4-4.9-6-4.8c-3.5,0-5.6,1.4-7,4.4
		c-3,6.6-2.1,15.1,3.2,20.1c4.4,4.2,9.4,7.8,14.4,11.4c8.7,6.2,16.4,12.9,19.7,23.8c2.4,7.9,1.2,24-4.3,32.3
		c-5.7,8.7-14.3,13.1-24.5,14c-5.3,0.4-10.8,0.6-15.9-0.6c-13.5-3-21-13-21.4-26.8c0-1.2-0.1-2.3-0.2-3.5
		C632.8,888.3,632.8,887.7,632.8,887z"/>
	<path class="st9" d="M815.2,685c8.3-1.7,8.9-2.4,9.8-10.3c0.2-1.6,1.3-3.1,1.7-4.2c5.4,1.4,10,2.7,14.8,3.9c7-4.5,9.1-12.1,10.6-20
		c0.2-1.3,1.9-2.3,2.9-3.5c0.1,8.3-0.2,16.6,0.3,24.9c0.3,5.8,0.6,12.1,2.8,17.2c4,9.2,22.5,8.7,26.1-3.4c4,0.2,2.9-3.2,3.8-5.2
		c1.5-3.6-0.5-9.2,5.8-10.2c0.5-0.1,1.2-1.4,1.1-2c-1.1-5.5,1.9-10,3.7-15.1c4.1,1.9,8.1,3.9,9.2-3c0.1-0.7,3.7-1.8,4.5-1.2
		c3.8,3.2,4.7,2,6.4-2.2c1.4-3.7,4.9-6.6,7.5-9.8c0.1,1,0.2,1.9,0.3,2.9c0,2.1,0,4.2,0,6.3c0,2.2,0,4.5,0,6.7c0,1.7-0.1,3.5-0.1,5.2
		c-0.1,12.6-1,24.9-6.2,36.7c-7.7,17.6-22.1,25.6-40,29.2c-11,2.2-22,2.6-33,0.8c-11.8-1.9-20.8-8.8-25.8-19.2
		C817.8,702.1,817.2,693.3,815.2,685z"/>
	<path class="st14" d="M881.7,847.1c0,15.8,0,31.7-0.1,47.5c0,3.7-1.3,5.6-5.8,4.6c-4.2-0.8-8.6-0.2-13.1-0.2
		c-8.5-21-17-41.8-25.5-62.6c-0.5,0.1-1.1,0.3-1.6,0.4c0,21.9,0,43.8,0,65.9c-6.4,0.5-12.8,1.1-19.8,1.7c0-6.8,0-13.4,0-19.9
		c0.1-22.5,0.2-45,0.3-67.5c3,3.8,6.2,5.4,10.4,1.5c0.5-0.4,2-0.3,2.7,0.2c2.6,1.6,4.5,1.4,6.2-1.3c0.4-0.7,1.7-1.3,2.6-1.2
		c5.5,0.1,8-3.2,9.4-7.8c4.2,9.7,8.4,19.3,12.5,29c0.4-0.1,0.8-0.1,1.2-0.2c-0.3-5.7-0.6-11.4-0.9-17.1c0.9-1.3,2.6-2.5,2.7-3.9
		c0.9-7.3,1.5-14.6,2.1-21.9c0.4-4.4,3.2-6.7,7.2-6.8c1.6,0,3.3-1.7,4.7-2.9c0.9-0.8,1.1-2.2,1.6-3.3c0.5,0.1,1.1,0.2,1.6,0.4
		c0,2.5-0.2,5,0.1,7.5c0.1,1.4,1,2.7,1.6,4c0,1.7,0,3.3,0,5c-0.5,0.3-0.9,0.7-1.4,1c0.5,0.3,0.9,0.7,1.4,1c0,1.3,0,2.7,0,4
		c-2.9,2-2.9,4,0,6c0,0.7,0,1.3,0,2c-0.6,0.4-1.1,0.9-1.7,1.3c0.6,0.6,1.1,1.2,1.7,1.7c0,10,0,20,0,29.9c-0.5,0.3-1,0.7-1.4,1
		C880.8,846.3,881.3,846.7,881.7,847.1z M835.8,831.6c-0.3,0.1-0.5,0.2-0.8,0.3c0.2,1,0.4,2.1,0.6,3.1c0.3-0.1,0.6-0.2,0.9-0.3
		C836.2,833.7,836,832.6,835.8,831.6z"/>
	<path class="st15" d="M1007,237.3c1.2,6.7,1.2,6.6-5.9,6.8c-4.8,0.1-9.9-0.3-14.2,1.3c-3.1,1.1-7.2,5-7.3,7.9
		c-0.4,7.1-6,5.9-9.7,7.7c-0.8,0.4-1.9,0.2-2.4,0.2c-2,4.4-3.8,8.5-5.8,13c7.9,3,7.2,8.7,5.6,15.1c-0.7,2.9,0.4,6.3,0.8,9.5
		c0.5,3.9,1.4,7.8,1.6,11.7c0.1,1.4-1,3-2,4.2c-2.8,3.3-6,6.4-4,11.4c0.2,0.4,0,1-0.2,1.4c-2.8,5.9-5.6,11.8-8.5,17.7
		c-0.1,0.1,0,0.3,0,0.5c6.1,6.5,6,9.2-1.2,15.2c-1.4-2.7-2.7-5.3-4.3-8.3c-8.8,6-6.1,16.5-12.3,23.3c-1.1-1.3-2.6-2.9-4.6-5.2
		c-0.7,2.3-1,4.1-1.8,5.6c-0.8,1.4-2,3.1-3.5,3.7c-4.8,1.8-8.6,6.2-7.9,11c1,6.4-3.5,6-7.3,6.5c-4.3,0.5-4.6-2.9-5.2-5.7
		c-0.6-3.1-0.6-6.2-1.2-9.3c-0.2-0.9-1.3-1.6-1.9-2.3c0-0.7,0-1.3,0-2c0.6-0.6,1.2-1.2,1.8-1.7c-0.6-0.4-1.2-0.8-1.8-1.3
		c-0.1-1-0.2-1.9-0.3-2.9c0-2.4,0-4.8,0-7.3c0-4.9,0-9.8,0-14.7c0.2-0.4,0.3-0.7,0.5-1.1c0.9,2.6,2,5.1,2.8,7.8
		c0.6,1.9,0.7,4,1.1,7.2c2.8-3.5,4.1-6.7,6.3-7.7c3.4-1.5,4.2-3.8,4.6-6.9c1-7.7,2.4-15.4,2.8-23.1c0.3-5.8,3.3-6.4,7.7-5.8
		c0.4-1.9,0.8-3.6,1.1-5.3c7.3,2.4,7.3,2.4,7.4-5.5c0.1-3.9,0.4-7.8,0.6-11.6c0.3-5.9,0.6-11.8,1-17.8c0.1-2.3,0.2-4.5,0.4-6.8
		c0.2-1.6,1.2-3.3,0.9-4.7c-1.6-8.1,4.2-11.5,9.6-15.8c0.3,1.7,0.1,3.4,0.7,3.8c1.1,0.8,4,1.3,4,1.2c1.5-4.7,7.4-8.1,4.7-14.1
		c5.3-0.9,10.7-1.7,16-2.6c-0.2,3.1,2.1,2.7,4,2.8c2.6,0.1,4.1-0.9,4-3.7C991.7,239.3,999.3,238.3,1007,237.3z M930.9,323.6
		c-0.4-0.2-0.7-0.3-1.1-0.5c-0.5,0.8-1,1.5-1.5,2.3c0.6,0.4,1.3,0.7,1.9,1.1C930.5,325.5,930.7,324.6,930.9,323.6z"/>
	<path class="st16" d="M1404,676.8c-5.1,0.7-10.2,1.6-15.3,2.1c-7.1,0.6-14.3,0.9-22.1,1.4c0-7.8,0-15,0-22.1c0-1.1,0-2.3,0-3.4
		c0-1.9,0-3.7,0-5.6c0-0.5,0-0.9,0-1.4c0-7.5,0-15.1,0-22.6c0-0.5,0-0.9,0-1.4c0-2.2,0-4.4,0-6.6c0-0.5,0-0.9,0-1.4
		c0-2.2,0-4.4,0-6.6c0-0.4,0-0.9,0-1.3c0-2.2,0-4.4,0-6.6c0-0.5,0-0.9,0-1.4c0.1-1.3,0.2-2.5,0.3-3.8c2.2,0.9,4.4,1.7,6.2,2.4
		c1.9-1.9,3.6-3.6,5.3-5.4c1.9-1.9,2.4-4-0.7-4.8c-4.3-1.2-2.8-3-1-5.3c2-2.6,3.9-5.2,6.5-8.8c0.3-0.1,2.5,0,3.7-1
		c1.1-0.9,1.3-3,2.1-5.2c5,7,1.8,15,4.1,23.5c3.2-4,6.6-6.5,7.6-9.7c1.9-5.7,2.3-11.9,3.4-17.8c0.7,0,1.3-0.1,2-0.1
		c5.6-2.7,11.8-1,17.7-2.3c3.8-0.8,8,0,12-2c1.2-0.6,4.6,0.6,4.4,4.3c-0.3,7.6-0.3,15.3,0,22.9c0.2,4.1-1.1,5.3-5.3,5.4
		c-9,0.2-18,1.2-27,2c-0.6,0-1.1,0.6-1.7,0.9c-3.5,0.4-2.2,2.2-1.2,3.9c0,9,0,18,0,27.1c0,1,0,2,0,2.9c0,15.7-0.1,31.3-0.1,47
		C1404.5,676.3,1404.2,676.6,1404,676.8z"/>
	<path class="st17" d="M1404,563.9c-1.1,6-1.5,12.1-3.4,17.8c-1,3.2-4.4,5.7-7.6,9.7c-2.3-8.5,0.9-16.5-4.1-23.5
		c-0.8,2.1-0.9,4.2-2.1,5.2c-1.2,1-3.4,1-3.7,1c-2.6,3.5-4.5,6.2-6.5,8.8c-1.8,2.2-3.3,4.1,1,5.3c3.1,0.9,2.6,2.9,0.7,4.8
		c-1.7,1.8-3.4,3.5-5.3,5.4c-1.8-0.7-4-1.5-6.2-2.4c0-1-0.1-2-0.1-3c0.4-0.4,0.7-0.8,1.1-1.2c-0.3-0.3-0.7-0.5-1-0.8
		c-0.1-0.9-0.1-1.9-0.2-2.8c0-1.8,0-3.6,0-5.4c0-4.5,0-9.1,0-13.6c0-0.5,0-0.9,0-1.4c0-3.9,0-7.8,0-11.6c0-1.8,0-3.6,0-5.4
		c0-0.9,0-1.8,0-2.6c0-1.8,0-3.6,0-5.4c-0.1-14.9-0.1-29.9-0.2-44.8c0-1,0-2,0-3c8-1,16-2.1,24-3c8.1-0.9,16.5-0.3,24.2-2.5
		c10.6-3,21.3,0.2,32.2-3.6c0.5,10.7,1,20.2,1.5,30.3c-15,1.4-29.3,2.8-44.2,4.2c0,10.1,0,20.3,0,30.6c0,1,0,2,0,3c0,1,0,2,0,3
		C1404.1,559.3,1404.1,561.6,1404,563.9z M1389.9,564.8c0.4-0.3,0.9-0.5,1.3-0.8c-0.6-1.2-1-2.7-2-3.6c-0.4-0.4-2,0.5-4,1.1
		C1387.4,563.1,1388.7,563.9,1389.9,564.8z"/>
	<path class="st5" d="M457.2,724c3.7,0.3,6-0.9,6.1-5.2c0.1-4.4,0.6-8.7,0.9-13.1c0.1-0.6,0.1-1.4,0.5-1.9c3.3-4.6,2.8-11,7.2-15.2
		c0.4-0.4,0.8-1.1,0.9-1.7c1.4-9.8,1.7-10.3,10.8-11.7c1.6-0.2,4.4,1.5,5.2,3.1c1.4,2.7,1.4,6.2,2.5,9.1c0.5,1.4,2.3,2.4,3.6,3.5
		c0,0.7,0,1.3,0,2c-0.5,0.3-1,0.7-1.4,1c0.5,0.3,1,0.7,1.4,1c0,10.6,0,21.2,0,31.6c16.6-1.5,32.6-3,49.3-4.6c0,5.8,0,11.4,0,17
		c0,0.7,0,1.3,0,2c0,1,0,2,0,3c0,1,0,2,0,3c0,3.1,0,6.3,0,9.8c-8,0.8-15.5,1.4-23,2.2c-12.9,1.3-25.8,2.8-38.7,3.9
		c-7.9,0.7-15.8,0.9-23.7,1.2c-0.6,0-1.3-0.7-2-1.1c0-1.7,0-3.3,0-5c0-2,0-4,0-6c0-1.3,0-2.7,0-4c0-2.7,0-5.3,0-8
		C457,734.7,457.1,729.3,457.2,724z"/>
	<path class="st13" d="M773.8,813c2.4,10.6,4.6,21.3,7.2,31.8c1.4,5.9,3.7,11.6,5.1,17.5c0.7,3.1,0.2,6.4,0.8,9.6
		c1.8,8.3,4,16.4,5.8,24.7c0.7,2.9,0.8,6,1.2,9.9c-7.5,0.6-15.9,1.3-24.5,1.9c-1.5-7.7-3-15.8-4.7-24.7c-6.7,0.8-13.3,1.4-19.9,2.5
		c-1.1,0.2-2.5,2.2-2.8,3.5c-1.3,7.2-2.3,14.5-3.4,22c-8,0.8-15.6,1.5-23.6,2.2c1.8-19.6,8.9-38.3,9.2-57.3
		c1.7-5.9,3.3-11.2,4.8-16.5c6.3-0.1,7.4-1.5,6.6-7.6c-0.3-2.4,0.5-5.1,1.2-7.5c0.3-1,1.5-1.8,2.4-2.7c0.9,0.8,1.8,1.6,2.6,2.5
		c0.7,0.7,1.5,2.3,2,2.1c1.1-0.2,2-1.3,3-2c2-1.3,4.1-2.5,6.2-3.7c-0.4,1.2-0.9,2.4-1.1,3.7c-2.1,14.2-4.2,28.5-6.4,43.3
		c5.3-0.7,10.8-1.5,16.5-2.2c-1.4-6.3-2.7-12-3.9-17.8c3.5-6.8,2.6-14.3,1.7-21.2c-0.7-4.7,1.1-7.9,2.4-11.7
		c0.2-0.6,2.1-1.2,2.4-0.9C768.3,817.6,770.9,814.1,773.8,813z"/>
	<path class="st11" d="M1556,604c-0.2-21-0.4-42-0.7-63.1c0-1.6,0-3.2,0.1-4.9c-0.1-10-0.3-20-0.4-30.1c-0.3-0.3-0.7-0.6-1-0.9
		c-9.8,1-19.6,1.9-30.2,3c0-4.2,0-8.1,0-12c0-3.7,0-7.3,0-11c0.3-6.6,0.3-6.3,7.3-7.1c10.3-1.1,20.5-2.7,30.8-3.8
		c8.8-0.9,17.8-1.3,26.6-2.1c10.5-1,21-2.2,31.4-3.3l0.5,0.1l0.4-0.2c0.4,1.5,1.1,3,1.1,4.5c0.2,7.5-0.1,15,0.3,22.5
		c0.2,3.6-1.8,4.2-4.3,4.4c-8.7,0.8-17.3,1.5-26,2.3c2.4-7.7,0.8-15.4,0.5-23.1c0-0.9-2.1-2.1-3.4-2.5c-1.3-0.4-2.9,0.3-4.4,0.2
		c-5.2-0.6-7.8,1.5-7.7,6.7c0.2,10,0.9,20.1,0.9,30.1c0,11.5-0.6,23.1-1,34.6c-0.3,9.5-0.4,19.1-1,28.6c-0.3,5,0.6,11-6.7,12.8
		c-0.3-0.5-1-1-1-1.5c-0.2-7.8-0.3-15.6-0.7-23.5c-0.1-1.5-1.1-3-1.8-4.4c-1.4,0.9-3.8,1.6-4.1,2.8c-0.8,2.8-0.5,5.9-0.7,8.9
		c-0.3,3.5-0.5,6.9-0.9,10.4c-0.4,4-0.8,8.1-1.5,12C1558,597.6,1556.9,600.8,1556,604z"/>
	<path class="st17" d="M1003.9,123.7c1,1.3,1.9,2.7,3.1,4.3c-3.7,4.7-9.3,4-14.3,5c-1.6,0.3-3.5-0.4-4.9,0.2
		c-1.5,0.6-2.8,2.1-3.6,3.6c-1.4,2.4-2.6,5-3.5,7.6c-0.7,2.2-0.8,4.5-1.1,6.4c-4,2.1-8.3,4.4-13.5,7.2c-1.1,5.2-2.3,11.2-3.4,17.1
		c-0.1,0.8,0.6,2.5,1.3,2.7c4.1,1.1,8.2,2.6,12.3,2.5c5.1-0.2,6.8,0.2,7.9,5.5c-9.9,0.4-19.9,0.4-29.8,1.3
		c-7.8,0.7-15.4,2.6-23.1,3.7c-4,0.6-8.1,0.6-12.1,0.8c0-3.1-1.6-4-4.4-3.4c-2.1,0.4-4.3,1-6.2,0.6c-4.5-1.1-6,0.9-6.2,4.9
		c-1.7,0.1-3.4,0.2-5.1,0.3c1.1-1.5,2.2-3.1,3.5-5c-4.6-2-3.1-6.1-2.3-9.6c0.6-2.7,2.6-5.1,3.9-7.7c0.4,0.2,0.7,0.5,1.1,0.7
		c-0.2,1.7-0.3,3.4-0.5,5.2c0.6,0.1,1.3,0.1,1.9,0.2c0.8-7,5.8-13.4,0.5-21.2c0.4-0.1,0.9-0.1,1.3-0.2c1.3,0.5,2.6,1,4.8,1.8
		c0.5-3.6,1.8-7.1,1.2-10.2c-0.7-3.8,0.6-4,3.6-5.2c5.1-2.1,10-2.7,15.4-1.8c1.8,0.3,3.9-0.5,5.8-1.2c5-1.9,5.4-3.7,1.6-7.7
		c3.1-0.3,6.1-0.6,9.2-1c13.3-1.9,26.6-3.8,40-5.6C993.4,124.7,998.6,124.2,1003.9,123.7z M975,146.2c-0.4-0.3-0.8-0.7-1.1-0.7
		c-0.3,0.1-0.8,0.8-0.7,0.9c0.2,0.4,0.7,0.7,1.1,1C974.5,147.1,974.7,146.7,975,146.2z"/>
	<path class="st9" d="M1248.4,596c0.1,19.3,0.2,38.7,0.3,58c0,1.3,0.1,2.6,0.1,4c-0.2,0.7-0.4,1.4-0.6,2.2c0.9,0,1.7-0.1,2.6-0.1
		c0.9,0.6,2.4,1.9,2.6,1.7c4.8-4.5,10.4-0.7,15.5-1.6c5.5-1.1,11.2-0.8,16.8-1.2c3.2-0.2,6.4-0.5,10.2-0.8c0,9.2,0.1,18.1-0.2,27.1
		c0,1-2.3,2.6-3.6,2.7c-21.6,1.8-43.3,3.5-64.9,5.2c-4.2,0.3-8.5,0.8-13.2,1.3c0-21.3,0-41.8,0-62.4c1.3-0.7,3.1-1.1,3.9-2.2
		c2.6-3.7,3.8-3.8,6.1,0.1c0.6,1,1.2,2,1.7,2.9c7.5-1.2,7.3-1.3,5.7,5.9c-0.4,2,0.7,4.3,1.1,6.4c2.3-1.2,4.2-2.9,4-3.4
		c-3.6-6.1,2.4-9.8,3.4-14.6c1.5-7.1,1.6-14.4,2.2-21.7C1242.4,599.5,1244.6,596.3,1248.4,596z"/>
	<path class="st10" d="M1468.8,485c5.1-0.9,10.1-2.1,15.2-2.8c6-0.8,12.1-1.5,18.2-1.8c0.8,0,2.6,1.9,2.6,2.9
		c0.1,21.2-0.1,42.5-0.2,63.7c-0.9,0.7-2.4,1.4-2.5,2.3c-0.9,6.1-1.3,12.2-2.2,18.3c-0.2,1.5-1.5,2.9-2.3,4.3
		c-0.9-1.5-2.3-2.9-2.6-4.5c-0.7-3.9-0.9-7.9-1.4-11.8c-2.5,6.8-3.3,13.7-6,19.9c-2.8,6.5-5.3,12.7-5.1,19.9c0,1.8-1.3,3.6-2,5.6
		c-1.6-0.7-2.7-1.2-4.8-2.1c-1,4.6-2.2,8.7-2.7,12.8c-0.4,3.4-2,6.4-0.8,10.5c0.8,2.7,1.8,8.4-3.2,10.9c-0.1-17.3-0.1-34.7-0.2-52
		c0-16.3,0.1-32.6-0.1-49c0-3.8-1-7.6-1.7-12.4c4.1-6,0.9-14.1,1.6-21.7c0-2,0-4,0-6c0-0.7,0-1.3,0-2
		C1468.8,488.3,1468.8,486.7,1468.8,485z M1478.6,595.7c-0.3-0.1-0.6-0.4-0.8-0.3c-0.2,0.1-0.3,0.5-0.4,0.8c0.3,0.1,0.6,0.4,0.8,0.3
		C1478.4,596.4,1478.5,596,1478.6,595.7z"/>
	<path class="st10" d="M652.1,661.2c0.1,1,0.2,2,0.3,3c-0.5,0.1-1.1,0.2-2,0.3c1.1,0.8,1.8,1.3,2.5,1.9c0.4,1.2,0.7,2.4,1.1,3.7
		c-2.3,2.5-4.7,5-6.9,7.5c-1.2,1.3-2.1,3.2-3.6,4c-0.7,0.4-2.4-1.4-3.7-2.1c-3.6-1.8-7.5-5.3-10.7-4.8c-4.4,0.7-3.8,6.1-4,10.1
		c-0.1,2-0.4,4-1,5.8c-0.5,1.6-1.6,3.1-2.4,4.6c-0.8-3.4-1.6-6.8-2.4-10.1c1.1-2.2,2.3-4.3,3.4-6.5c-1.8-0.8-3.6-1.7-5.4-2.5
		c-0.3-4.5-2.2-7.2-7.2-6.2c-1.1-1.9-3.5-3.1-2.4-6.1c0.3-0.8-1.8-3.3-2.8-3.4c-1.7-0.1-4.3,0.7-5.1,2c-2,3-2.8,6.8-4.8,9.9
		c-2.5,3.9-3.6,9.2-9.4,10.9c-0.5-4.3-0.7-8.2-1.6-11.8c-0.5-1.9-2.4-3.5-3.7-5.2c-1.3,1.5-3.2,2.8-3.7,4.5
		c-0.9,3.1-0.9,6.5-1.5,9.7c-0.2,1.2-0.7,2.4-1.4,3.4c-1.8,2.7-3.7,5.4-5.6,8c-0.8,1.1-1.8,2.1-2.7,3.1c0-8.3,0-16.7,0-25
		c0.9-1.4,1.9-2.7,2.6-4.2c1.3-2.5,1.7-5.8,3.7-7.5c3.3-2.9,4.2-7.3,0.9-10.2c1.2-1.5,3-2.8,3.5-4.6c0.8-2.5,0.3-5.3,1-7.8
		c0.4-1.4,2-2.4,3-3.6c0.9,1.1,2.3,2.1,2.7,3.4c0.6,1.8,0,4.2,1,5.7c0.8,1.3,3,2.5,4.6,2.5c1.4,0.1,3.8-1.2,4.2-2.4
		c1.6-4.5,2.7-9.2,4.2-14.8c2.4,0.8,4.8,1.6,7.1,2.4c0.1,4.6,0.1,9.3,0.2,13.9c0.3,0.3,0.6,0.6,0.9,1c1,0,1.9,0,2.9,0.1
		c0.3,1,1,2.2,0.8,3.1c-0.5,2.3-1.9,5.1,1.6,5.5c1.4,0.2,3.2-2.4,4.9-3.7c1.3-1,2.9-3,3.9-2.8c5.4,1.5,9.9-1.4,14.8-2.4
		c7.1-1.4,10.3-6.2,13.1-11.7c0.4-0.9,0.8-1.9,0.9-2.8c0.5-4.5,0.6-9.1,1.4-13.5c0.2-1.1,2.2-2.5,3.4-2.5c1.1,0,2.9,1.5,3.3,2.7
		c1.7,6.3,3.9,7.5,10.1,4.8c3.2-1.4,5.5-0.6,7.1,2.3c0,3.6,0,7.3,0,10.9c0,0.3,0,0.6,0,0.9c-1.7,3.7-3.5,7.5-5.2,11.2
		c-3.3-0.2-2.8,2.1-2.7,4.1c-3.7,3.3-7.3,6.7-11,10c0.6-3.8,1.2-7.5,1.8-11.3c0.8-4.8-1.2-7.9-5.2-8.2c-0.2,3.2,0.5,6.9-0.9,9.4
		C647,655,649,658,652.1,661.2z M665.6,630.7c-0.3-0.1-0.6-0.4-0.8-0.3c-0.2,0.1-0.3,0.5-0.4,0.8c0.3,0.1,0.6,0.4,0.8,0.3
		C665.4,631.4,665.5,631,665.6,630.7z"/>
	<path class="st14" d="M1018,293.9c-1.5-0.6-3-1.7-4.5-1.8c-8.9-0.2-17.8-0.1-26.1-0.1c-0.5-6.8-1.2-13-1.3-19.3
		c-0.1-2.2,1.2-4.4,1.8-6.6c0.5,0,1,0,1.6,0c1,2.2,1.5,5.3,3.3,6.3c1.7,1,4.7,0,7.6-0.2c6.1-5.4,6.5-13.9,8.6-21.7
		c1.1-4.2,2.5-5,6.7-3.5c1.1,0.4,3,0.4,3.9-0.2c3.5-2.5,5.5-3.1,4.8,2.5c-0.1,0.7,0.8,1.6,0.9,1.7c3.3-4.4,6.5-8.9,9.9-13.3
		c0.4-0.5,1.5-0.5,2.3-0.6c6-0.4,12.1-0.6,18.1-1.3c2.9-0.3,5-2,4.3-5.4c1.4-0.1,2.8-0.3,4.1-0.4c1.1,10.2,3.6,20.3,1.5,30.6
		c-0.1,0.6,1.6,1.6,2.5,2.3c-0.8,12.7-8.2,20.6-19.4,24.9C1038.7,291.6,1028.5,293.8,1018,293.9z"/>
	<path class="st17" d="M959.9,243.8c2.7,6.1-3.2,9.4-4.7,14.1c0,0.1-2.9-0.4-4-1.2c-0.6-0.5-0.4-2.1-0.7-3.8
		c-5.5,4.3-11.2,7.7-9.6,15.8c0.3,1.5-0.7,3.1-0.9,4.7c-0.3,2.2-0.3,4.5-0.4,6.8c-0.3,5.9-0.6,11.8-1,17.8
		c-0.2,3.9-0.5,7.8-0.6,11.6c-0.1,7.9,0,7.9-7.4,5.5c-0.4,1.7-0.7,3.4-1.1,5.3c-4.5-0.7-7.5,0-7.7,5.8c-0.4,7.7-1.8,15.4-2.8,23.1
		c-0.4,3.1-1.2,5.4-4.6,6.9c-2.2,1-3.5,4.1-6.3,7.7c-0.5-3.1-0.6-5.2-1.1-7.2c-0.7-2.6-1.8-5.2-2.8-7.8c-0.2-1.4-0.3-2.8-0.5-4.2
		l0.3,0.2c2.9-0.8,2.4-2.3,0.9-4c-0.3-0.3-0.6-0.6-1-0.9c0-3.4,0-6.7,0.1-10.1c0.5-0.3,1.6-0.6,1.6-0.9c0.1-5.7,0.1-11.4,0-17.2
		c0-0.3-1-0.6-1.6-0.9l-0.3,0.2c0-2.4,0-4.9,0-7.3c0-15.9,0-31.8,0-47.7c0.1-1.7,0.3-3.4,0.4-5.1c13.9-2,27.7-4,41.6-5.9
		C950.4,244.6,955.2,244.3,959.9,243.8z"/>
	<path class="st1" d="M1013.8,607c-0.6,1.2-1.4,2.3-1.8,3.5c-0.5,1.6-0.8,3.4-1.2,5.2c-5.3-2.5,0-9.7-6.1-11.9
		c-0.9,9.4-3.1,17.4-12.7,22.8c2.2,0,3-0.2,3.7,0c1.4,0.4,2.7,1.1,4.1,1.6c-0.5,1.3-0.7,3-1.7,3.8c-1.4,1.3-3.4,2-5.1,2.9
		c-2-4.7-4.1-9.3-6.1-14c-0.4-1-0.8-1.9-1.2-2.9c0,0,0.1,0.1,0.1,0.1c-0.2-0.4-0.5-0.8-0.7-1.2c-0.5-1-1-2-2.3-4.3
		c0,8,0,14.6,0,21.3c-0.6,0.4-1.1,0.8-1.7,1.3c0.6,0.6,1.2,1.2,1.7,1.7c0,1.3,0,2.7,0,4c-1.7,1.6-3.5,3.2-4.5,4.1
		c-2.9,0-5.8-0.9-6.8,0.2c-3.4,3.3-6.5,7.1-9.1,11.1c-1.9,2.9-1.9,6.9-6.5,7.6c-0.8,0.1-1.2,2.5-2,3.8c-0.5,0.9-1.4,1.5-2.1,2.3
		c-0.4-4.7-0.7-9.4-1.1-14c0.1-15.8,0.2-31.7,0.2-47.5c0-1.8,0.1-3.7,0.2-5.5c1.6,1.2,3.1,2.3,5.4,4c1.3-1.4,3.4-2.8,4.2-4.7
		c1-2.4,1.1-5,4.8-3.7c0.2,0.1,1.9-2.3,1.7-3.4c-0.6-3.3,0.4-4.3,3.7-3.7c1.3,0.3,3,0.2,4.2-0.4c5.5-2.9,10.8-12.9,9.5-18.8
		c-1.7-7.7,2.5-15.2,0.8-22.9c-0.1-0.3,1.5-0.9,2.3-1.4c2.9,5.6,6.2,11,8.7,16.8c2.6,5.9,4.3,12.2,6.7,18.2
		C1006.6,591,1010.3,599,1013.8,607z M993,609.4c0.4,0.7,0.9,1.3,1.3,2c1.2-0.9,2.3-1.7,3.5-2.6c-0.5-0.6-1.2-1.7-1.3-1.6
		C995.2,607.8,994.1,608.6,993,609.4z M991.3,610.9c0-0.5-0.1-0.9-0.1-1.4c-1,0.1-1.9,0.2-2.9,0.3c0.1,0.6,0.2,1.2,0.3,1.8
		C989.5,611.3,990.4,611.1,991.3,610.9z M956.4,610.9c-0.6,0.7-1.2,1.1-1.2,1.5c0.1,0.5,0.6,1.2,1,1.3c0.3,0.1,1.2-0.6,1.2-0.9
		C957.5,612.3,957,611.8,956.4,610.9z"/>
	<path class="st18" d="M1126.1,600c-4.5-2.3-2.3,2.5-4.2,3.8c-1.1-0.4-2.5-1-5-1.9c-0.6,1.2-1.3,2.8-2.1,4.4
		c-0.4-0.2-0.8-0.5-1.2-0.7c-0.2-1-0.4-2.1-0.5-3.2c-0.4-4.2-3.2-5.9-5.5-2.8c-3.6,4.7-8,6.1-13.3,6.4c2.6-14.5,5.2-28.9,7.6-43.5
		c0.4-2.2-0.7-4.7-1.2-7.4c2.5-2.4,4.8-5.3,2.6-9.6c-0.3-0.5-0.2-1.3,0-1.9c1.9-7.1,3.8-14.3,5.8-21.4c0.3-0.9,0.4-2.5,1-2.6
		c4.2-1.2,8.7-3.5,12.8-2.9c5.9,0.9,11.5,0.3,17.2-0.6c1.3-0.2,2.7,0,4,0c0.3,5.7,0.7,11.3,1,17c0.1,2.1-0.3,4.3-0.3,6.4
		c-0.2,9.5-0.3,19-0.5,28.5c0,1.6,0.1,3.2,0,4.8c-0.3,6.6-0.8,13.2-0.8,19.7c0,6.4,0.4,12.9,0.5,19.3c0,0.7-1.1,1.4-1.6,2.1
		c-2.9-16.7-5.8-33.3-8.7-50c-0.4,0-0.9,0-1.3,0c-1,6-1.9,12.1-2.9,18.1c-0.5-2.8-0.7-5.7-1.5-8.4c-0.4-1.4-1.9-2.4-2.9-3.6
		c-0.6,1.3-1.6,2.7-1.7,4c-0.2,4.8-0.1,9.6-0.1,14.2c-1.5,0.3-2,0.6-2.5,0.5c-3.8-0.4-5.2,2.4-5.1,5.1c0,1,3.3,2.3,5.3,2.8
		c1.9,0.5,3.9,0.1,5.9,0.1C1126.6,598,1126.3,599,1126.1,600z"/>
	<path class="st4" d="M1469.2,633c4.9-2.4,3.9-8.2,3.2-10.9c-1.1-4.1,0.4-7.1,0.8-10.5c0.5-4.2,1.7-8.2,2.7-12.8
		c2,0.9,3.2,1.4,4.8,2.1c0.8-2,2.1-3.8,2-5.6c-0.2-7.2,2.3-13.4,5.1-19.9c2.7-6.2,3.5-13.1,6-19.9c0.4,3.9,0.6,7.9,1.4,11.8
		c0.3,1.6,1.7,3,2.6,4.5c0.8-1.4,2-2.8,2.3-4.3c0.9-6.1,1.3-12.2,2.2-18.3c0.1-0.9,1.6-1.5,2.5-2.3c0.1,27.8,0.2,55.6,0.3,83.4
		c0,1.8,0.1,3.7,0.1,5.5c0,0.4,0,0.8,0,1.2c-0.1,9.6-0.2,19.2-0.3,28.9c-0.3,0.3-0.5,0.6-0.8,0.8c-12.2,1.2-24.3,2.5-36.9,3.8
		c3.5-11.2,1.3-21.7,1.9-32.1C1469.1,636.6,1469.1,634.8,1469.2,633z"/>
	<path class="st12" d="M621.6,695.1c0.8-1.5,1.8-3,2.4-4.6c0.6-1.9,0.9-3.9,1-5.8c0.2-4-0.4-9.4,4-10.1c3.2-0.5,7.2,3,10.7,4.8
		c1.3,0.7,3,2.4,3.7,2.1c1.5-0.8,2.4-2.6,3.6-4c2.3-2.5,4.6-5,6.9-7.5c5,16.8,9.9,33.6,15.1,50.4c1.8,5.9,4.5,11.5,6.4,17.4
		c0.7,2.1,0.1,4.5,0.1,7.3c-6.3,0.5-12.8,1-19.3,1.7c-6.3,0.6-12.6,1.7-19,2.1c-1.3,0.1-3.7-1.5-4-2.8c-2.1-8.1-3.8-16.3-5.7-24.4
		C625.5,712.8,623.6,704,621.6,695.1z"/>
	<path class="st1" d="M1248.7,512.1c-0.1,0.6-0.1,1.3-0.2,1.9c-6.8,0.3-7.5,1-7.5,7.5c0,13,0.1,25.9,0,38.9
		c-0.2,12.3-0.5,24.5-1,36.8c-0.2,4.8-1.1,9.5-1.9,14.2c-0.2,1-1.4,2.3-2.2,2.5c-1.1,0.2-3-0.5-3.3-1.4c-0.9-2.2-1.5-4.6-1.7-7
		c-0.3-2.9-0.1-5.9-0.1-9c-1.5-0.2-3.1,0.1-4-0.6c-1.7-1.3-4-2.9-4.3-4.7c-0.5-2.9,0.5-6,0.5-9.1c0-1.3-0.6-2.7-0.9-4
		c-1.5,1-1.9,1.8-2,2.7c-1,4.8-2,9.7-2.8,14.5c-0.4,2.4-0.7,4.8-0.8,7.2c-0.2,5.4-0.3,10.8-0.6,16.2c0,0.5-1.2,0.9-1.8,1.3
		c-0.1-22.1-0.3-44.2-0.3-66.3c-0.1-13.6,0-27.2,0-41.5c11.5-1,23-2.1,34.4-3.1C1248.2,510.1,1248.5,511.1,1248.7,512.1z"/>
	<path class="st13" d="M1235,812.8c-1.3,0-2.7,0-4,0c0.5-3.6-0.8-6.1-4.3-7.5c-1.1-0.5-1.8-1.8-2.7-2.6c-0.9-0.8-2-2.5-2.6-2.3
		c-1.2,0.4-2.8,1.5-3.2,2.7c-1.1,3.2-1.3,6.7-2.4,9.9c-0.5,1.6-2.2,2.7-3.4,4.1c-1.3-1.2-3-2.2-3.7-3.7c-0.5-1.1-0.1-2.9,0.4-4.2
		c1.2-3.4-0.3-4.9-2.8-5.7c-1.3,1.8-2.3,3.2-3.3,4.7c0-19.8,0-39.5,0-59.9c17.6-1.4,35.5-2.9,53.8-4.3c0,6.8,0,13.3,0,20.5
		c-9.2,0.7-18.5,1.3-27.8,2c-0.3,0.3-0.7,0.5-1,0.8c0,8.8,0,17.5,0,27c7.2-0.7,14.3-1.4,22.2-2.2c0,4.7,0,9,0,13.2c0,0.7,0,1.3,0,2
		c-0.7,1.5-1.4,3.1-2.2,4.6c0-3.8,0.3-7.7-0.1-11.4c-0.2-1.5-1.7-3.5-3-4c-2.3-0.8-4.6-0.1-4.9,3.1c-0.3,2.4-1,4.8-1.5,7.6
		C1232.3,806,1234,809.6,1235,812.8z"/>
	<path class="st14" d="M1041.1,819.9c3,14.1,5.9,28.2,8.9,42.3c1.1,5.5,2,11,3.5,16.4c1.3,4.5-0.4,5.4-4.5,5.5
		c-6.4,0.2-12.8,1-19.4,1.5c-1.4-7.9-2.8-15.8-4.3-24.7c-6.4,0.4-12.9,0.7-19.4,1.2c-0.8,0.1-1.8,1.7-2,2.8
		c-1.1,6.8-1.9,13.7-3.2,20.4c-0.3,1.4-2.1,3.3-3.4,3.5c-6.8,0.8-13.7,1.1-21.4,1.6c1.6-7.9,3.1-15.7,4.7-23.4
		c1.3-0.8,3.5-1.4,3.7-2.4c1.1-6,3.6-10,9.1-13.7c3.5-2.3,4.8-4.8,8.8,0c1-6.3,1.7-11.6,2.7-16.8c0.6-3-0.6-7,3.9-8.1
		c-0.7,5.8-1.4,11.6-2.3,18.4c5.8-0.9,11.1-1.7,16.3-2.4c0.6,0.3,1.3,0.4,1.6,0.9c1.2,1.6,2.3,3.3,3.4,5c1.7-1.8,4.2-3.4,4.8-5.6
		c1.1-4.2,3.5-5.9,8.3-5.7C1041.1,830.9,1041.1,825.4,1041.1,819.9z"/>
	<path class="st1" d="M673,623c-1.6-3-3.9-3.7-7.1-2.3c-6.2,2.7-8.4,1.5-10.1-4.8c-0.3-1.2-2.1-2.7-3.3-2.7c-1.2,0-3.2,1.4-3.4,2.5
		c-0.7,4.5-0.9,9-1.4,13.5c-0.1,1-0.4,1.9-0.9,2.8c-2.9,5.6-6.1,10.4-13.1,11.7c-4.9,1-9.3,3.9-14.8,2.4c-1-0.3-2.6,1.8-3.9,2.8
		c-1.6,1.3-3.4,3.8-4.9,3.7c-3.4-0.4-2-3.3-1.6-5.5c0.2-0.9-0.5-2.1-0.8-3.1c2.5-0.3,5.1-0.9,7.6-0.9c10.9-0.3,17.8-4.5,19.9-13.7
		c1.4-6.1,1.7-12.6,1.3-18.8c-0.5-7.4-1.7-15-9.8-18.6c-0.4-3.8-3.4-2.6-5.7-3.1c-2.1-0.5-4.9-1.1-5.8-2.6c-1.7-2.9-0.3-5.9,2.5-7.7
		c1.7-1.1,3.7-1.5,5.6-2.1c0.1,0.3,0.2,0.6,0.3,0.9c1.6-1.4,3.2-2.9,5-4.5c1.9,4.6,1.9,4.5,6.5,5.2c1.7,0.2,3.5,1,4.9,2
		c3.1,2.3,6.6,2,7.1-1.6c0.7-4.4,3.3-6,6.6-7.6c0.9-0.4,1.3-1.7,1.9-2.6c10.7,3.5,13.5,13.4,15.5,22.3c2.2,9.8,1.7,20.2,2.4,30.4
		C673.9,621.6,673.3,622.3,673,623z"/>
	<path class="st4" d="M1041.1,819.9c0,5.5,0,11,0,16.8c-4.8-0.2-7.2,1.5-8.3,5.7c-0.6,2.1-3.1,3.7-4.8,5.6c-1.1-1.7-2.2-3.4-3.4-5
		c-0.3-0.5-1.1-0.6-1.6-0.9c-0.6-2.3-1.2-4.7-1.8-7c0.5-0.3,0.9-0.7,1.4-1c-0.5-0.3-1-0.6-1.5-1c-0.1-0.8-0.2-1.6-0.4-2.5
		c-0.2-1.2-0.4-2.4-0.7-3.5c-0.5-2.3-0.9-4.6-1.4-6.9c1.1-1.4,3.3-3.5,3-4c-1-1.7-3-2.7-4.6-4.1c-0.1-0.9-0.2-1.8-0.3-2.7
		c-0.2-1.4-0.5-2.9-0.7-4.3c0-0.7-0.1-1.3-0.1-2c1-1.3,2.1-2.6,3.5-4.5c-2.2-0.7-3.4-1.1-4.6-1.5l0,0c-0.1-0.8-0.3-1.6-0.6-3.7
		c-0.8,2.1-1,2.9-1.3,3.7c-0.1,2.3-0.1,4.6-0.2,6.9c-1.5,0.8-4.1,1.5-4.3,2.6c-1.1,6.2-1.9,12.5,0.7,18.6c0.1,0.4,0,0.7-0.3,0.9
		c-4.5,1.1-3.3,5.1-3.9,8.1c-1,5.2-1.7,10.5-2.7,16.8c-4-4.8-5.3-2.3-8.8,0c-5.5,3.7-8,7.8-9.1,13.7c-0.2,1-2.4,1.6-3.7,2.4
		c0.9-5.2,1.8-10.4,2.7-15.6c1.6-8.8,3.1-17.6,4.7-26.4c2.4-1.9,5.5-3.6,1.7-7c1-5,2.1-10,3.1-15c2.7,0.4,5.4,0.7,8.9,1.2
		c0.4-1.1,2.2-3.2,1.7-4.4c-2.6-6.1-0.8-10.6,3.1-15.6c3.2-4.1,4.1-9.6,11.9-7.9c5,1.1,6.8,1.3,6,6.8c-0.2,1.5,0,3.2,0,5.7
		c2.3-1.8,3.5-2.7,5.7-4.4c0.6,4.3,1.3,7.8,1.3,11.2c0,5.2,1.3,7.3,6.4,8.4c0.3,2,0.6,4,0.9,6c-0.5,0.4-1,0.9-1.5,1.3
		c0.8,0.6,1.7,1.1,2.5,1.7c0.3,1.3,0.6,2.7,1,4c-0.8,0.6-1.6,1.2-2.4,1.9C1039.3,819.2,1040.2,819.6,1041.1,819.9L1041.1,819.9z
		 M1027.6,797.7c-0.3-0.1-0.6-0.4-0.8-0.3c-0.2,0.1-0.3,0.5-0.4,0.8c0.3,0.1,0.6,0.4,0.8,0.3C1027.5,798.5,1027.5,798,1027.6,797.7z
		"/>
	<path class="st4" d="M1591.9,657.9c-4.3,0.7-8.6,1.7-12.9,2c-7.5,0.6-15,0.9-22.9,1.3c-0.1-2-0.2-3.6-0.3-5.1c0-0.4,0-0.8,0-1.2
		c0-11.6-0.1-23.2-0.1-34.8c0.2-1.4,0.3-2.8,0.5-4.1c2.3-3.6,4.5-7.2,6.9-10.7c0.5-0.8,1.4-1.5,2.1-2.2c0.6,0.8,1.6,1.5,1.8,2.4
		c0.5,2.6,0.5,5.3,1.2,7.8c0.3,1,1.7,2.4,2.7,2.4c1,0.1,2.8-1.1,3-2.1c1.5-6.1,3-12.2,4-18.4c1.4-8.2,1.3-8.3,8.9-9
		c-2.7-5.7-2.6-11.1,1.1-16.3c0.6-0.8,0.7-2.2,0.4-3.2c-0.7-3.2,1-3.8,3.6-3.8c0.1,28.3,0.2,56.6,0.3,84.9c0,3,0.1,6,0.1,9
		C1592.2,657.3,1592,657.6,1591.9,657.9z"/>
	<path class="st8" d="M796.3,312.1c0,2.8-0.1,5.7-0.1,8.5c0,8.7-0.1,8.6-8.5,9.5c-8.4,0.8-16.8,1.9-25.1,3c-3.1,0.4-4-1-3.9-4
		c0.1-12.1,0.2-24.3,0-36.4c-0.1-5.9-0.5-11.9-0.8-18.5c12.6-1.7,25.1-3.3,38.4-5.1c0,5.5,0,10.7,0,16c0,1.4,0,2.8,0,4.2
		c0,2.9,0,5.9,0,8.8c0,1.4,0,2.8,0,4.2c0,1.3,0,2.5,0,3.8C796.3,308,796.3,310,796.3,312.1z"/>
	<path class="st2" d="M1053.8,579c-2.5,4.8-8.1,3.1-11.7,5.7c-0.6,0.4-2.6,0-3.1-0.6c-0.7-0.9-0.7-2.4-0.6-3.6
		c0.2-2.6,0.7-5.1,1.1-8c-6.5,1.3-6.5,2.3-4.9,7c0.9,2.8-0.8,6.6-1.6,9.8c-0.3,1.3-1.8,2.4-1.9,3.7c-0.3,2.9,0.1,5.2-3.6,7
		c-1.9,0.9-1.8,6.2-2.4,9.5c-0.4,2.4-0.7,4.9-0.8,7.3c-0.2,3-2,3.4-4.4,3.1c0.1-24.2,0.1-48.3,0.2-72.5c0-6.3,0-12.6,0-19.2
		c11.6-1.1,22.8-2.1,33.9-3.2c0.1,8.7,0.2,17.3,0.3,26c0,4,0,8,0,12c-0.1,3.7-0.2,7.3-0.3,11c-0.5,0.3-1,0.7-1.4,1
		c0.5,0.3,1,0.7,1.4,1C1053.8,577,1053.8,578,1053.8,579z"/>
	<path class="st9" d="M1591.9,563c-2.5,0-4.3,0.6-3.6,3.8c0.2,1,0.1,2.4-0.4,3.2c-3.7,5.2-3.8,10.6-1.1,16.3c-7.6,0.8-7.5,0.8-8.9,9
		c-1.1,6.2-2.5,12.3-4,18.4c-0.2,0.9-2,2.1-3,2.1c-1-0.1-2.4-1.4-2.7-2.4c-0.7-2.5-0.7-5.2-1.2-7.8c-0.2-0.9-1.2-1.6-1.8-2.4
		c-0.7,0.7-1.5,1.4-2.1,2.2c-2.3,3.5-4.6,7.1-6.9,10.7c-0.2-0.7-0.3-1.4-0.5-2.1c0.1-3.3,0.2-6.6,0.3-9.9c0.9-3.2,2-6.4,2.6-9.7
		c0.7-4,1.1-8,1.5-12c0.4-3.5,0.6-6.9,0.9-10.4c0.2-3,0-6,0.7-8.9c0.3-1.2,2.7-1.9,4.1-2.8c0.6,1.5,1.7,2.9,1.8,4.4
		c0.4,7.8,0.4,15.6,0.7,23.5c0,0.5,0.7,1,1,1.5c7.2-1.8,6.4-7.8,6.7-12.8c0.6-9.5,0.7-19,1-28.6c0.4-11.5,1-23.1,1-34.6
		c0-10-0.7-20.1-0.9-30.1c-0.1-5.2,2.5-7.3,7.7-6.7c1.4,0.2,3-0.6,4.4-0.2c1.3,0.4,3.4,1.6,3.4,2.5c0.4,7.7,1.9,15.5-0.5,23.1
		c-0.1,0.6-0.2,1.2-0.2,1.8c-0.6,0.4-1.1,0.8-1.7,1.3c0.6,0.6,1.1,1.2,1.7,1.7c0,5.7,0,11.3,0,17c-0.5,0.3-1,0.7-1.5,1
		c0.5,0.3,1,0.7,1.5,1c0,7.3,0,14.7,0,22c-3.3,3.4-3.3,8.1,0,10C1591.9,559.7,1591.9,561.3,1591.9,563z"/>
	<path class="st2" d="M987.8,548c-0.8,0.5-2.4,1.1-2.3,1.4c1.7,7.7-2.4,15.1-0.8,22.9c1.3,5.9-4,15.9-9.5,18.8
		c-1.2,0.6-2.8,0.6-4.2,0.4c-3.3-0.7-4.2,0.3-3.7,3.7c0.2,1.1-1.5,3.5-1.7,3.4c-3.8-1.3-3.8,1.3-4.8,3.7c-0.8,1.9-2.9,3.3-4.2,4.7
		c-2.3-1.7-3.8-2.8-5.4-4c0-22.7-0.1-45.3-0.1-68c0.3-0.6,0.6-1.2,0.9-1.8c8.4-0.8,16.7-1.7,25.1-2.2c1.4-0.1,3.5,1.2,4.2,2.5
		c2.2,3.8,3.8,7.9,5.7,11.8c0.1,0.3,0.3,0.5,0.6,0.7c0.1,0.5,0.2,1,0.3,1.5c0,0,0,0.3,0,0.3L987.8,548z"/>
	<path class="st14" d="M1152,802.9c0.6,0,1.3,0,1.9,0c6.3,3.9,13.2,1.5,19.9,2.1c0.4,5.1,0.7,10.2,1.1,16
		c-7.4,0.8-14.9,1.6-22.6,2.4c0,16.4,0,33.1,0,50.1c-8.9,0.8-17.2,1.6-25.8,2.4c0-14.7,0-28.9,0-43c0-9,0.2-18,0.3-27
		c1.1-1.2,2.1-2.4,3.2-3.6c0.7-0.8,1.5-2.1,2.2-2.1c0.8,0,2.1,1.2,2.2,2.1c0.4,2.3,0.2,4.8,0.6,7.1c0.4,2,1.1,4.1,2.2,5.8
		c0.3,0.5,3.6,0,3.9-0.8c1.4-3.4,2.4-6.9,3.3-10.5c0.3-1.2,0-2.5,0-3.4C1147.4,801.5,1149.7,802.2,1152,802.9z"/>
	<path class="st7" d="M656,568.2c-0.6,0.9-1.1,2.2-1.9,2.6c-3.4,1.6-6,3.1-6.6,7.6c-0.5,3.6-4,3.9-7.1,1.6c-1.4-1-3.2-1.8-4.9-2
		c-4.6-0.7-4.6-0.5-6.5-5.2c-1.8,1.6-3.4,3-5,4.5c-0.1-0.3-0.2-0.6-0.3-0.9c-1.9,0.7-4,1.1-5.6,2.1c-2.8,1.8-4.2,4.8-2.5,7.7
		c0.9,1.5,3.7,2.1,5.8,2.6c2.3,0.5,5.3-0.7,5.7,3.1c-7.3,0-14.7,0-22,0c1.2-4.8,4.9-9.3,2-14.6c-0.8-1.5-1.9-2.9-2.9-4.4
		c-1.4,1.6-3.5,3-4,4.8c-1.3,5-1.8,10.1-5.5,14.2c-0.7,0.7-0.4,2.2-0.8,3.3c-1.4,4.3-3,8.6-4.9,14.1c-2.3-3.7-4.3-5.6-4.8-7.8
		c-1.2-5.9-1.8-12-2.7-17.9c-0.1-0.8-0.8-1.6-1.2-2.4c-0.8,0.7-2.1,1.3-2.2,2c-0.9,5-1.6,10.1-2.1,15.2c-0.3,3.2-0.2,6.3-4.1,7.6
		c-0.9,0.3-1.7,2-1.8,3.1c-0.5,5.2-0.3,10.5-1.3,15.5c-0.5,2.4,1.1,6.4-3.4,7.1c0-9-0.1-18-0.1-26.9c0.5-0.4,0.9-0.7,1.4-1.1
		c-0.5-0.4-0.9-0.7-1.4-1.1c0-11.4,0-22.8,0-34.6c7-0.8,13.9-1.6,20.9-2.3c5.6-0.5,11.2-0.7,16.7-1.1c0.9-0.1,2-0.3,2.8-0.8
		c3.8-2.5,7.5-1.4,11.2-0.1c1-0.3,2-0.5,3-0.8c2.3,0,4.7-0.1,7-0.1c2.7,2.7,6.3,2.7,9,0C643.2,562.8,649.8,564.6,656,568.2z"/>
	<path class="st9" d="M951.9,670c0.7-0.7,1.5-1.4,2.1-2.3c0.8-1.2,1.2-3.7,2-3.8c4.6-0.6,4.7-4.7,6.5-7.6c2.6-4,5.7-7.8,9.1-11.1
		c1.1-1,4-0.2,6.8-0.2c1-0.9,2.7-2.5,4.5-4.1c0,24.7,0,49.5,0,74.7c-10.4,1-20.9,2-32,3c0-10.5,0-21.1,0-31.7c0-2.4,0-4.7,0-7.1
		c0-3,0-6,0-8.9C951.2,670.7,951.6,670.3,951.9,670z"/>
	<path class="st13" d="M458.9,868.5c7.6,1.1,13.7,1.6,19.6-1.4c0.6-0.3,1.4-1.1,1.6-1c5.1,3.9,10.5-0.2,15.8,0.6
		c5.4,0.8,11.1-0.4,16.7-0.9c8.9-0.8,17.7-1.8,26.5-2.8c7.5-0.9,15-2,22.6-2.8c2.8-0.3,6.1,0.8,8.4-0.2c6.2-2.8,12.4,0.7,18.7-1.2
		c0,5.2,0,9.8,0,14.9c-44,3.8-88,7.6-133,11.5C457.5,879.2,452.7,872.6,458.9,868.5z"/>
	<path class="st5" d="M908,773.8c3.2-0.3,7,1.8,8.5-2.2c7.1,0,13.8,0.2,20.4-0.1c5.7-0.2,11.4-0.9,17-1.4c0.3,0.5,0.7,1,1,1.4
		c0.3-0.5,0.7-1,1-1.5c1.7,0,3.3,0,5,0c3.1,3,5.7,2.6,7-1c0.7,0,1.3,0,2,0.1c0.2,0.3,0.5,0.5,0.7,0.8c0,6,0.1,12,0.1,18
		c-0.9,1.3-1.9,2.6-2.8,3.9c-6.4,0.8-12.9,1.6-20,2.6c0,5.1,0,10.3,0,15.6c-4-0.1-5-2.4-4.5-5.9c0.5-3.8-0.1-7.4-2.3-11.6
		c-0.8,3.9-1.3,6.8-2.1,9.6c-1.8,6.4-1.8,6.3-3.6,6.5c0-1.4,0-2.8,0-4.1c-0.4-0.3-0.9-0.5-1.3-0.8c-1.1,1.5-2.7,2.9-3.2,4.6
		c-1.3,5.1-1.5,10.6-3.3,15.6c-1.3,3.4,1.8,8.4-3.6,10.3c-0.1-10-0.1-19.9-0.2-29.9c0-5.3-1.8-7.2-7.1-7.1
		c-5.1,0.1-10.2,0.5-15.9,0.9c0-7.1-0.1-14.2,0.1-21.3c0-0.9,1.9-1.7,2.9-2.6C905.3,773.9,906.7,773.9,908,773.8z"/>
	<path class="st14" d="M924.2,834c5.4-1.9,2.3-6.9,3.6-10.3c1.8-4.9,2-10.4,3.3-15.6c0.4-1.7,2.1-3,3.2-4.6c0.4,0.3,0.9,0.5,1.3,0.8
		c0,1.4,0,2.7,0,4.1c1.8-0.1,1.8-0.1,3.6-6.5c0.8-2.8,1.2-5.7,2.1-9.6c2.2,4.2,2.8,7.8,2.3,11.6c-0.5,3.5,0.5,5.9,4.5,5.9
		c0,27.1,0,54.2,0,81.7c-7.7,0.8-15.5,1.7-23.8,2.5c0-9.4,0-18.3,0-27.2c2.6-1.3,2.6-2.7,0-4C924.2,853.3,924.2,843.7,924.2,834z"/>
	<path class="st10" d="M1142.3,614c0.6-0.7,1.6-1.4,1.6-2.1c-0.1-6.4-0.5-12.9-0.5-19.3c0-6.6,0.5-13.2,0.8-19.7
		c0.1-1.6,0-3.2,0-4.8c0.1-9.5,0.3-19,0.5-28.5c0-2.1,0.4-4.3,0.3-6.4c-0.2-5.7-0.6-11.3-1-17c2.7-0.3,5.3-0.6,8-1
		c0.3,0,0.6,0,0.9,0c1.5,0.6,3.1,1.2,4.6,1.9c-0.9,0.6-1.8,1.2-2.7,1.9c-1.3,0.9-2.5,1.9-3.8,2.9c1.3,1.3,2.4,2.9,3.9,3.9
		c1,0.6,2.6,0.2,3.9,0.3c0.9,4.3,1.7,8.5,2.6,12.8c-0.6,6.6-1.5,13.1-1.6,19.7c-0.2,8.7,0.2,17.4,0.6,26c0,1.1,1.1,2.3,2,3.1
		c1.6,1.3,3.5,2,5.1,3.3c1.9,1.5,3.6,3.4,5.3,5.1c0.7,3.3,1.3,6.7,2,10c-1.3,1.6-2.6,3.1-3.9,4.7c-3.5,1.7-7.5,2.9-6.2,9.4
		c-3.6-3.2-6.9-3.1-10.3-0.6c-0.5,0.4-1.9-0.6-2.9-0.9c0.5-0.8,0.9-2,1.7-2.5c1.7-1,3.6-1.5,5.2-2.5c0.6-0.4,0.7-1.6,1-2.4
		c-0.9-0.2-1.8-0.8-2.5-0.6c-2.1,0.5-4.2,1.1-6.1,2c-3.1,1.6-5.1,3.8-2.4,7.4c1.2,1.6,2.1,3.4,3.1,5.1c3.5,5.7,1.5,10.1-5.4,11.8
		C1144.8,629.4,1143.6,621.7,1142.3,614z"/>
	<path class="st9" d="M1152,802.9c-2.3-0.7-4.6-1.4-7.5-2.3c0,0.9,0.3,2.2,0,3.4c-0.9,3.5-1.9,7.1-3.3,10.5
		c-0.3,0.7-3.6,1.2-3.9,0.8c-1.1-1.7-1.8-3.7-2.2-5.8c-0.4-2.3-0.2-4.8-0.6-7.1c-0.2-0.9-1.4-2.1-2.2-2.1c-0.7,0-1.5,1.3-2.2,2.1
		c-1.1,1.2-2.2,2.4-3.2,3.6c0-17.1,0-34.2,0-51.9c17-1.5,34.3-3.1,51.9-4.7c0,7.4,0,14.7,0,22.3c-9.1,0.8-18.2,1.7-28.2,2.6
		C1151,783.9,1151.5,793.4,1152,802.9z"/>
	<path class="st5" d="M604.3,743.1c0,0.8-0.2,1.7-0.1,2.5c0.9,5.2-1.9,5.9-6.4,6.6c-10.7,1.7-21.5,1.9-32.4,2.5c0-8.1,0-16.4,0-24.6
		c0.9-0.6,2.5-1.1,2.5-1.7c0.3-7.3,4.2-14.1,3.3-21.6c-0.2-1.6,1-3.3,1.6-4.9c1.4-3.2,3.1-6.4,4.2-9.7c1-2.9,1.3-6,2-8.9
		c0.6,0,1.3,0.1,1.9,0.1c0.6,2.3,2.2,4.8,1.7,6.9c-1.2,5,0.9,7.9,3.7,11.8c3.5,4.9,4.6,2.8,6.9-0.1c2.9-3.6,5.7-3.2,7.2,1.1
		c0.5,1.5,0.6,3.3,0.2,4.8c-1,3.4,0.5,4.3,3.4,4.3c0.2,0.3,0.3,0.6,0.3,0.9c0,2.1,0,4.1,0,6.2c0,0.6,0,1.2,0,1.8c0,2.1,0,4.1,0,6.2
		c0,0.6,0,1.2,0,1.8c0,2.1,0,4.1,0,6.2c0,0.6,0,1.2,0,1.8C604.3,739,604.3,741,604.3,743.1z"/>
	<path class="st14" d="M1203,808c1-1.4,2.1-2.9,3.3-4.7c2.5,0.8,4,2.3,2.8,5.7c-0.5,1.3-0.9,3.1-0.4,4.2c0.7,1.5,2.4,2.5,3.7,3.7
		c1.2-1.3,2.8-2.5,3.4-4.1c1.1-3.2,1.4-6.7,2.4-9.9c0.4-1.2,1.9-2.3,3.2-2.7c0.6-0.2,1.7,1.5,2.6,2.3c0.9,0.9,1.6,2.2,2.7,2.6
		c3.4,1.5,4.8,3.9,4.3,7.5c-0.7,0-1.4,0-2.1,0.1c-1-0.6-1.9-1.1-2.9-1.7c-0.7,1.3-2,2.7-2,4c-0.1,10.1-0.1,20.3,0.2,30.4
		c0,1.4,1.5,2.7,2.4,4.1c0.8-0.5,1.6-1.1,2.4-1.6c1,0,2,0,3,0.1c0,6.7,4.6,2.8,7.7,3.8c0.1-1.9,0.2-3.4,0.3-4.8
		c5.2-0.6,10.4-1.2,15.8-1.9c0,6.4,0,12.9,0,19.7c-10,1-20.1,1.9-30.1,2.9c0,0-0.4-0.2-0.4-0.2l-0.3,0.3c-7.2,0-14.4,0-22,0
		C1203,848.4,1203,828.2,1203,808z"/>
	<path class="st1" d="M565.4,632c4.5-0.7,2.9-4.7,3.4-7.1c1-5.1,0.8-10.4,1.3-15.5c0.1-1.1,1-2.8,1.8-3.1c3.9-1.3,3.8-4.4,4.1-7.6
		c0.5-5.1,1.2-10.2,2.1-15.2c0.1-0.8,1.4-1.4,2.2-2c0.4,0.8,1,1.5,1.2,2.4c0.9,6,1.5,12,2.7,17.9c0.5,2.2,2.5,4.1,4.8,7.8
		c1.9-5.6,3.5-9.8,4.9-14.1c0.4-1.1,0.1-2.6,0.8-3.3c3.7-4.1,4.2-9.2,5.5-14.2c0.5-1.8,2.6-3.2,4-4.8c1,1.5,2.1,2.8,2.9,4.4
		c2.9,5.3-0.9,9.8-2,14.6c-0.2,1.6-0.7,3.2-0.7,4.8c-0.1,10.7-0.2,21.5-0.3,32.2c-2.3-0.8-4.6-1.6-7.1-2.4
		c-1.5,5.6-2.5,10.3-4.2,14.8c-0.4,1.2-2.8,2.5-4.2,2.4c-1.6-0.1-3.8-1.2-4.6-2.5c-0.9-1.5-0.4-3.9-1-5.7c-0.4-1.3-1.8-2.3-2.7-3.4
		c-1.1,1.2-2.7,2.2-3,3.6c-0.7,2.5-0.3,5.3-1,7.8c-0.5,1.7-2.3,3.1-3.5,4.6c3.3,2.9,2.4,7.4-0.9,10.2c-1.9,1.7-2.4,5-3.7,7.5
		c-0.7,1.5-1.7,2.8-2.6,4.2c0-7.7,0-15.3,0-23c0.8-0.4,2.3-0.8,2.3-1.2c0.2-3.5,0.2-7.1,0-10.6c0-0.4-1.5-0.8-2.3-1.2
		C565.4,633.3,565.4,632.7,565.4,632z"/>
	<path class="st14" d="M1368,800.8c-3,0.3-6,0.6-9,0.9c-0.3,0-0.6,0-0.9,0.1c-7.1,3.4-14.7,1.1-22.1,2c-0.3,0-0.6,0-1,0
		c-6.6,0.5-13.3,1-19.9,1.5c-0.7-0.4-1.4-0.9-2.1-1.3c-2-3.7,1.3-5.6,2.9-8c0.4-0.6,2.6-0.8,2.9-0.3c2.4,3.1,5.4,1.5,8.1,1.3
		c4.6-0.4,5.8-4,3-8c0.3-0.3,0.6-0.6,0.9-1c0.4-0.3,0.7-0.5,1.1-0.8c6.3,2.9,12.7-1.1,19.1,0.1c1.3,0,2.6-0.1,3.9-0.1
		c2.7-0.1,5.3-0.1,8-0.2c1.4-0.6,2.7-1.2,4.1-1.8c2.3,0.1,4.7,0.2,7,0.3c1.3,0.8,2.5,2.3,3.8,2.4c6.5,0.2,13,0.1,19.5,0.1
		c1.1,0,2.6,0.2,3.3-0.5c1.4-1.2,2.3-2.9,3.4-4.4c0.3-0.2,0.6-0.2,1-0.1c1.5-0.1,3-0.2,4.5-0.2c0.5-0.2,1-0.3,1.4-0.5
		c8.8-0.8,17.6-1.7,26.8-2.5c-0.1,6.6,4.5,13.7-3,17.1c-5,0-8.8,0-12.7,0c-5,0-10,0-15,0.1c-0.7,0.2-1.3,0.4-2,0.7
		c-3.7,0.3-7.4,0.7-11.1,1c-0.3,0-0.6,0-0.9,0.1c-0.7,0-1.3,0-2,0c-1-0.9-1.9-2.3-3.1-2.7c-3.6-1.1-7.4-1.9-11.1-2.8
		c0.1-0.2,0.2-0.4,0.3-0.6c-3,0.7-5.9,1.4-9.2,2.1C1368,796.9,1368,798.9,1368,800.8z M1364.8,796.9c-0.6-0.3-1.1-0.8-1.3-0.7
		c-0.4,0.2-0.7,0.7-1,1.1c0.4,0.2,0.8,0.5,1.2,0.4C1364.1,797.7,1364.3,797.3,1364.8,796.9z"/>
	<path class="st15" d="M1213.9,620c0.6-0.4,1.8-0.8,1.8-1.3c0.3-5.4,0.3-10.8,0.6-16.2c0.1-2.4,0.4-4.8,0.8-7.2
		c0.9-4.8,1.9-9.7,2.8-14.5c0.2-0.9,0.5-1.7,2-2.7c0.3,1.3,0.9,2.7,0.9,4c-0.1,3-1.1,6.2-0.5,9.1c0.3,1.8,2.6,3.4,4.3,4.7
		c0.9,0.7,2.5,0.4,4,0.6c0,3.2-0.2,6.1,0.1,9c0.2,2.4,0.8,4.8,1.7,7c0.4,0.8,2.2,1.5,3.3,1.4c0.9-0.1,2.1-1.5,2.2-2.5
		c0.8-4.7,1.7-9.4,1.9-14.2c0.5-12.3,0.9-24.5,1-36.8c0.2-13,0-25.9,0-38.9c0-6.5,0.8-7.2,7.5-7.5c-0.1,22.7-0.1,45.3-0.2,68
		c-0.7,0.3-1.3,0.5-2,0.8c0.7,0.4,1.3,0.8,2,1.2c0,4,0.1,8,0.1,12c-3.9,0.3-6,3.5-6.5,9.4c-0.6,7.3-0.7,14.6-2.2,21.7
		c-1,4.8-6.9,8.5-3.4,14.6c0.3,0.5-1.6,2.2-4,3.4c-0.4-2.1-1.5-4.4-1.1-6.4c1.6-7.2,1.8-7.1-5.7-5.9c-0.6-0.9-1.2-1.9-1.7-2.9
		c-2.3-3.9-3.5-3.8-6.1-0.1c-0.8,1.1-2.5,1.5-3.9,2.2c0-1.3,0-2.7,0-4c3.2-1.7,3.2-3.3,0-5C1213.9,622,1213.9,621,1213.9,620z
		 M1235.4,620.2c-0.9-0.5-1.5-1-1.9-0.9c-0.4,0.1-1.1,0.9-1,1.2c0.2,0.5,0.8,1,1.3,1.1C1234.2,621.6,1234.6,620.9,1235.4,620.2z"/>
	<path class="st6" d="M753.1,821.1c-2.1,1.2-4.2,2.5-6.2,3.7c-1,0.6-1.9,1.7-3,2c-0.5,0.1-1.3-1.4-2-2.1c-0.8-0.9-1.7-1.6-2.6-2.5
		c-0.8,0.9-2.1,1.7-2.4,2.7c-0.7,2.4-1.5,5.1-1.2,7.5c0.8,6.1-0.2,7.6-6.6,7.6c0.4-3,1-6,1.2-9c0.1-1.8-0.4-3.6,0.2-5
		c1.5-4.7,2.9-9.5,4.4-14.2c0.3-0.1,0.5-0.2,0.8-0.3c-0.3-0.2-0.5-0.3-0.8-0.5c1.3-7.6,2.6-15.1,3.8-22.3
		c10.2-1.2,19.8-2.3,29.5-3.5c1.8,9.2,3.7,18.5,5.5,27.8c-2.9,1.1-5.5,4.6-9.2,1.2c-0.3-0.3-2.2,0.4-2.4,0.9
		c-1.2,3.7-3,6.9-2.4,11.7c0.9,6.9,1.8,14.4-1.7,21.2C756.5,839,754.8,830,753.1,821.1z"/>
	<path class="st12" d="M603.9,712c-2.9,0-4.4-0.9-3.4-4.3c0.4-1.5,0.4-3.3-0.2-4.8c-1.5-4.3-4.3-4.7-7.2-1.1c-2.3,2.9-3.4,5-6.9,0.1
		c-2.8-3.9-4.9-6.8-3.7-11.8c0.5-2-1.1-4.6-1.7-6.9c-0.6,0-1.3-0.1-1.9-0.1c-0.6,3-1,6.1-2,8.9c-1.1,3.3-2.8,6.4-4.2,9.7
		c-0.7,1.6-1.8,3.4-1.6,4.9c0.9,7.5-3,14.3-3.3,21.6c0,0.6-1.6,1.1-2.5,1.7c0-1.3-0.1-2.6-0.1-3.9c0.4-0.2,0.8-0.4,1.2-0.6
		c-0.4-0.2-0.8-0.4-1.2-0.6c0-4.3,0.1-8.6,0.1-12.9c0.9-0.8,1.7-1.7,2.6-2.5c-0.9-0.8-1.7-1.7-2.6-2.5c0-0.7,0-1.3,0-2
		c0.9-0.8,1.7-1.7,2.6-2.5c-0.9-0.8-1.7-1.7-2.6-2.5c0-1.7,0-3.3,0-5c0.9-1,1.9-2,2.7-3.1c1.9-2.6,3.8-5.3,5.6-8
		c0.6-1,1.2-2.2,1.4-3.4c0.5-3.2,0.5-6.6,1.5-9.7c0.5-1.7,2.4-3,3.7-4.5c1.3,1.7,3.2,3.3,3.7,5.2c0.9,3.6,1.1,7.4,1.6,11.8
		c5.9-1.7,6.9-7.1,9.4-10.9c2-3,2.8-6.8,4.8-9.9c0.9-1.3,3.4-2.1,5.1-2c1.1,0.1,3.1,2.6,2.8,3.4c-1.1,3,1.3,4.2,2.4,6.1
		c-1.7,0.4-3.3,0.9-5,1.3c-0.3,0.3-0.5,0.6-0.8,0.9c0,5.6,0.1,11.2,0.1,16.9c0,2.1,0,4.1,0,6.2c0,0.6,0,1.2,0,1.8c0,2.1,0,4.1,0,6.2
		c0,0.6,0,1.2,0,1.8c0,2.1,0,4.1,0,6.2C604.2,711.4,604.1,711.7,603.9,712z M597.6,695.7c-0.3-0.1-0.6-0.2-0.8-0.4
		c-0.1,0.3-0.4,0.6-0.3,0.8c0.1,0.2,0.5,0.3,0.8,0.4C597.3,696.3,597.5,696,597.6,695.7z"/>
	<path class="st9" d="M847.3,808.3c-1.5,4.6-4,7.9-9.4,7.8c-0.9,0-2.1,0.5-2.6,1.2c-1.7,2.8-3.6,2.9-6.2,1.3
		c-0.7-0.4-2.3-0.6-2.7-0.2c-4.2,3.9-7.4,2.3-10.4-1.5c-0.1-6,0-12-0.3-18c-0.2-2.7-1.4-5.2-2-7.9c-0.3-1.3-0.3-2.7,0-4
		c0.4-1.6,1.2-3,2.1-5.1c5.2-0.6,11-1.4,16.8-1.8c1.2-0.1,3.1,1,3.6,2C840.1,790.8,843.7,799.6,847.3,808.3z"/>
	<path class="st12" d="M1037.9,804c-5.2-1.1-6.4-3.2-6.4-8.4c0-3.4-0.8-6.9-1.3-11.2c-2.2,1.7-3.4,2.7-5.7,4.4c0-2.6-0.2-4.2,0-5.7
		c0.8-5.5-1-5.7-6-6.8c-7.8-1.7-8.6,3.7-11.9,7.9c-3.9,5-5.7,9.5-3.1,15.6c0.5,1.2-1.2,3.4-1.7,4.4c-3.5-0.5-6.2-0.8-8.9-1.2
		c2-11.6,4-23.3,6.2-34.9c0.2-1.2,1.9-2.9,3.1-3c9-0.9,18-1.4,27.6-2.1C1032.5,776.6,1035.2,790.3,1037.9,804z"/>
	<path class="st12" d="M881.8,793c-0.6-1.3-1.4-2.6-1.6-4c-0.3-2.5-0.1-5-0.1-7.5c-0.5-0.1-1.1-0.2-1.6-0.4
		c-0.5,1.1-0.8,2.6-1.6,3.3c-1.4,1.2-3.1,2.9-4.7,2.9c-3.9,0.1-6.8,2.4-7.2,6.8c-0.6,7.3-1.2,14.6-2.1,21.9
		c-0.2,1.4-1.8,2.6-2.7,3.9c0-13.2-0.1-26.3-0.1-39.5c0-3.4,0.4-4.9,4.9-3.8c5.2,1.2,10.9,0.3,16.8,0.3
		C881.8,782.5,881.8,787.8,881.8,793z"/>
	<path class="st18" d="M1172.8,596c-1.8-1.7-3.4-3.5-5.3-5.1c-1.6-1.3-3.5-2-5.1-3.3c-0.9-0.7-2-2-2-3.1c-0.4-8.7-0.8-17.4-0.6-26
		c0.1-6.6,1.1-13.1,1.6-19.7c1.5,7.2,3.1,14.5,4.5,21.7c2.1,11,4.1,22.1,6.2,33.1C1172.2,594.5,1172.6,595.2,1172.8,596z"/>
	<path class="st19" d="M457.2,724c-0.1,5.3-0.2,10.7-0.3,16c-0.6-1.3-1.7-2.6-1.8-4c-0.5-9.8-0.9-19.6-1-29.3c0-7,0.8-14.1,0.8-21.1
		c0-5-0.9-9.9-0.8-14.9c0-1.9,1.7-3.8,2.7-5.7c0.1,17.5,0.1,35,0.2,52.6C457,719.7,457.1,721.9,457.2,724z"/>
	<path class="st14" d="M1235,812.8c-1-3.2-2.7-6.8,3.4-5.8c0.6-2.8,1.3-5.2,1.5-7.6c0.4-3.3,2.6-3.9,4.9-3.1c1.3,0.5,2.8,2.5,3,4
		c0.4,3.8,0.1,7.6,0.1,11.4C1243.7,812,1239.3,812.4,1235,812.8z"/>
	<path class="st18" d="M1094.1,608c0.9,1,2.8,2,2.7,2.9c-0.8,8.2-1.3,16.6-3.3,24.5c-0.6,2.3-0.7,7.6-5.8,7.5
		C1089.9,631.3,1092,619.6,1094.1,608z"/>
	<path class="st13" d="M1330,788.9c2.8,3.9,1.5,7.5-3,8c-2.7,0.3-5.8,1.9-8.1-1.3c-0.3-0.4-2.6-0.2-2.9,0.3c-1.6,2.4-4.9,4.3-2.9,8
		c-1.3,0-2.6,0-3.8,0c0-4.2,0-8.4,0-12.7c3.8-0.4,7.3-0.7,10.8-1.1c0.9,1.2,1.8,2.4,2.7,3.6c0.4-1.5,0.9-3.1,1.3-4.6
		c1.4,0.1,2.7,0.2,4.1,0.3c0.3,0,0.6-0.1,0.9-0.1C1329.3,789.2,1329.6,789,1330,788.9z"/>
	<path class="st13" d="M1229,848.1c-0.8,0.5-1.6,1.1-2.4,1.6c-0.8-1.4-2.3-2.7-2.4-4.1c-0.3-10.1-0.3-20.3-0.2-30.4
		c0-1.3,1.3-2.7,2-4c1,0.6,1.9,1.1,2.9,1.7l0.1,0.4c-0.3,0.3-0.6,0.5-1,0.8c-0.1,10.7-0.1,21.4-0.1,32.1
		C1228,846.8,1228.6,847.4,1229,848.1z"/>
	<path class="st4" d="M1368,800.8c0-2,0-4,0-6c3.2-0.7,6.2-1.4,9.2-2.1c-0.1,0.2-0.2,0.4-0.3,0.6c3.7,0.9,7.4,1.6,11.1,2.8
		c1.2,0.4,2.1,1.8,3.1,2.7C1383.3,799.5,1375.7,800.2,1368,800.8z"/>
	<path class="st7" d="M754.1,676c0.5-1.6,1.6-3.4,1.3-4.8c-0.8-3.4,0.8-4.4,3.6-5.1c0.4,0.6,0.8,1,0.8,1.4
		c0.1,9.9,0.3,19.9-0.1,29.8c-0.1,2.3-2.5,4.5-3.8,6.8C757.8,694.5,758.1,685.1,754.1,676z"/>
	<path class="st13" d="M1404,783.2c-1.1,1.5-2,3.2-3.4,4.4c-0.7,0.6-2.2,0.4-3.3,0.5c-6.5,0-13,0.2-19.5-0.1c-1.3,0-2.5-1.6-3.8-2.4
		C1383.9,784.1,1393.9,782.9,1404,783.2z"/>
	<path class="st12" d="M652.1,661.2c-3.1-3.2-5.1-6.2-2.3-11.1c1.4-2.5,0.7-6.2,0.9-9.4c4,0.3,6,3.4,5.2,8.2
		c-0.6,3.8-1.2,7.5-1.8,11.3C653.4,660.5,652.7,660.8,652.1,661.2z"/>
	<path class="st19" d="M1054.2,629c0-10.7,0-21.3,0-32c0.9,1,2.7,1.9,2.7,2.9c0,5.2-0.4,10.5-0.6,15.7c-0.1,1.5,0.3,3.1,0.3,4.6
		C1056.6,623.4,1059.1,627.2,1054.2,629z"/>
	<path class="st9" d="M1029.8,356c-3.1,0.3-4.8-0.7-4.9-4.3c-0.2-3.5-1.2-7-1.9-10.5c2.2-0.4,4.4-0.8,7.2-1.4c0,3.7,0,6.9,0,10.2
		C1030.1,352,1029.9,354,1029.8,356z"/>
	<path class="st12" d="M1067.9,263c-0.9-0.8-2.6-1.8-2.5-2.3c2.1-10.4-0.3-20.5-1.5-30.6c0.6-0.3,1.1-0.7,1.8-0.8
		c0.6-0.1,1.3,0,2.2,0C1067.9,240.6,1067.9,251.8,1067.9,263z"/>
	<path class="st9" d="M926,639c-1-1.5-2.9-3-2.9-4.4c0.1-10.1,0.5-20.2,0.9-30.3c0.1-1.1,1.3-2.2,1.9-3.3
		C926,613.7,926,626.3,926,639z"/>
	<path class="st3" d="M902.1,193.7c0.2-4,1.7-6,6.2-4.9c1.9,0.5,4.2-0.2,6.2-0.6c2.9-0.5,4.5,0.3,4.4,3.4
		C913.4,192.3,907.8,193,902.1,193.7z"/>
	<path class="st9" d="M1173.8,805c-6.6-0.6-13.6,1.8-19.9-2.1c4.7-0.7,9.4-1.4,14-2c0.7,0,1.3,0,2-0.1c1.4,0.1,2.8,0.2,4.5,0.3
		C1174.3,802.4,1174,803.7,1173.8,805z"/>
	<path class="st19" d="M1054.2,551c-0.1-8.7-0.2-17.3-0.3-26c1,3,2.4,6,2.9,9.1c0.5,3,0.5,6.2,0,9.2
		C1056.5,546,1055.1,548.4,1054.2,551z"/>
	<path class="st19" d="M1053.8,574c0.1-3.7,0.2-7.3,0.3-11c0.9,1,2.6,2.1,2.6,3.1c-0.2,7.9-0.6,15.9-1.1,23.8c0,0.4-1,0.7-1.5,1
		c-0.1-4-0.2-8-0.3-12c0-1,0-2,0-3C1053.8,575.3,1053.8,574.7,1053.8,574z"/>
	<path class="st19" d="M456.8,604c0,7.7,0,15.3,0,23c-0.9-0.9-2.4-1.7-2.4-2.6c-0.2-5.9-0.2-11.8,0-17.7
		C454.4,605.7,456,604.9,456.8,604z"/>
	<path class="st18" d="M1158.9,526c-1.3-0.1-2.9,0.3-3.9-0.3c-1.5-0.9-2.6-2.5-3.9-3.9c1.3-1,2.5-1.9,3.8-2.9
		c0.9-0.6,1.8-1.3,2.7-1.9C1158,520.1,1158.4,523,1158.9,526z"/>
	<path class="st19" d="M1054.2,664c0-5.7,0-11.3,0-17C1058.2,650.3,1058.2,660.2,1054.2,664z"/>
	<path class="st13" d="M1240,847.1c-0.1,1.4-0.2,2.9-0.3,4.8c-3.1-1-7.7,2.9-7.7-3.8C1234.7,847.8,1237.3,847.5,1240,847.1z"/>
	<path class="st7" d="M565.4,634c0.8,0.4,2.3,0.7,2.3,1.2c0.2,3.5,0.2,7.1,0,10.6c0,0.4-1.5,0.8-2.3,1.2
		C565.4,642.7,565.4,638.3,565.4,634z"/>
	<path class="st15" d="M904,311c0.6,0.3,1.6,0.6,1.6,0.9c0.1,5.7,0.1,11.4,0,17.2c0,0.3-1,0.6-1.6,0.9C904,323.7,904,317.3,904,311z
		"/>
	<path class="st20" d="M951.9,670c-0.4,0.3-0.7,0.7-1.1,1c-0.3-2.1-0.7-4.3-1-6.4c-0.1-1.1-0.3-2.3-0.1-3.4c0.3-1.8,0.8-3.6,1.1-5.3
		C951.2,660.6,951.6,665.3,951.9,670z"/>
	<path class="st1" d="M617.2,676c1.8,0.8,3.6,1.7,5.4,2.5c-1.1,2.2-2.3,4.3-3.4,6.5C618.5,682,617.9,679,617.2,676z"/>
	<path class="st19" d="M1054.2,680c0-4,0-8,0-12c0.7,0.3,2.1,0.8,2,1C1055.6,672.7,1054.9,676.3,1054.2,680z"/>
	<path class="st8" d="M984,240.3c0.1,2.8-1.4,3.8-4,3.7c-2-0.1-4.2,0.4-4-2.8C978.7,240.9,981.3,240.6,984,240.3z"/>
	<path class="st19" d="M1054.2,641c0-3,0-6,0-9C1058.2,635.4,1058.2,638.5,1054.2,641z"/>
	<path class="st19" d="M456.8,588c0,4,0,8,0,12C454.2,597.2,454.2,590.8,456.8,588z"/>
	<path class="st4" d="M1591.9,558c-3.3-1.9-3.3-6.6,0-10C1591.9,551.3,1591.9,554.7,1591.9,558z"/>
	<path class="st19" d="M1523.8,485c0,3.7,0,7.3,0,11C1521.2,493.2,1521.2,487.8,1523.8,485z"/>
	<path class="st12" d="M968,769.1c-1.3,3.6-3.9,4-7,1C963.3,769.8,965.7,769.5,968,769.1z"/>
	<path class="st21" d="M814.3,639c0,2.4,0.1,4.8,0.1,7.2C812,643.9,809.9,641.5,814.3,639z"/>
	<path class="st19" d="M396,583.8c-3,0-6,0-9,0C389.7,581.2,393.3,581.2,396,583.8z"/>
	<path class="st1" d="M636,563.1c-2.7,2.6-6.3,2.6-9,0C630,563.1,633,563.1,636,563.1z"/>
	<path class="st12" d="M989.9,818c3.8,3.4,0.7,5.1-1.7,7C988.8,822.7,989.3,820.3,989.9,818z"/>
	<path class="st20" d="M950.9,680c0,2.4,0,4.7,0,7.1C948.4,684.7,948.4,682.3,950.9,680z"/>
	<path class="st21" d="M903.6,404.8c0,2.5,0,5,0,7.4C901.8,409.7,898.7,407.2,903.6,404.8z"/>
	<path class="st22" d="M903.7,303.9c0,2.4,0,4.9,0,7.3C900.2,308.7,900.2,306.3,903.7,303.9z"/>
	<path class="st12" d="M1324,789.2c-0.4,1.5-0.9,3.1-1.3,4.6c-0.9-1.2-1.8-2.4-2.7-3.6C1321.3,789.8,1322.7,789.5,1324,789.2z"/>
	<path class="st22" d="M903.7,364.9c0,2.4,0,4.8,0,7.3C901.6,369.7,898.7,367.3,903.7,364.9z"/>
	<path class="st7" d="M747,667c1.4-0.3,2.8-0.6,5.2-1.1c-0.6,2.2-0.9,3.7-1.3,5.2C749.6,669.7,748.3,668.4,747,667z"/>
	<path class="st19" d="M456.8,652c0,2.7,0,5.3,0,8C454,657.3,454,654.7,456.8,652z"/>
	<path class="st9" d="M926,596c-3.2-2.6-3-5.3-0.1-8C925.9,590.7,925.9,593.3,926,596z"/>
	<path class="st22" d="M980.4,423.1c0-2.1,0-4.2,0-6.3C984.9,419,983.2,421,980.4,423.1z"/>
	<path class="st22" d="M1555.7,613.9c0.2,0.7,0.3,1.4,0.5,2.1c-0.2,1.4-0.3,2.8-0.5,4.1C1552.9,618,1551.1,616,1555.7,613.9z"/>
	<path class="st23" d="M604.3,703.1c0-2.1,0-4.1,0-6.2C609,699,607,701,604.3,703.1z"/>
	<path class="st23" d="M604.3,711.1c0-2.1,0-4.1,0-6.2C609,707,607,709,604.3,711.1z"/>
	<path class="st10" d="M565.4,707c0.9,0.8,1.7,1.7,2.6,2.5c-0.9,0.8-1.7,1.7-2.6,2.5C565.4,710.3,565.4,708.7,565.4,707z"/>
	<path class="st23" d="M604.3,695.1c0-2.1,0-4.1,0-6.2C609,691,607,693,604.3,695.1z"/>
	<path class="st23" d="M604.3,719.1c0-2.1,0-4.1,0-6.2C609,715,607,717,604.3,719.1z"/>
	<path class="st22" d="M980.3,439.1c0-2.1,0-4.2,0-6.3C984.8,435,983.2,437,980.3,439.1z"/>
	<path class="st23" d="M604.3,727.1c0-2.1,0-4.1,0-6.2C609,723,607,725,604.3,727.1z"/>
	<path class="st23" d="M604.3,735.1c0-2.1,0-4.1,0-6.2C609,731,607,733,604.3,735.1z"/>
	<path class="st22" d="M980.3,431.1c0-2.1,0-4.2,0-6.3C984.9,427,983.2,429.1,980.3,431.1z"/>
	<path class="st23" d="M604.3,743.1c0-2.1,0-4.1,0-6.2C609,739,607,741,604.3,743.1z"/>
	<path class="st10" d="M565.4,700c0.9,0.8,1.7,1.7,2.6,2.5c-0.9,0.8-1.7,1.7-2.6,2.5C565.4,703.3,565.4,701.7,565.4,700z"/>
	<path class="st9" d="M1019.9,341.8c-0.7,1.4-1.4,2.8-2.8,5.4c-1.1-2.6-1.6-3.8-2.1-5C1016.6,342.1,1018.3,341.9,1019.9,341.8z"/>
	<path class="st22" d="M926.3,650.1c0-2.1,0-4.2,0-6.3C930.9,646,929.2,648,926.3,650.1z"/>
	<path class="st23" d="M886.3,331.1c0-2.1,0-4.1,0-6.2C891,327,888.2,329,886.3,331.1z"/>
	<path class="st19" d="M1029.8,356c0.1-2,0.2-4,0.3-6c2.9,2.3,3,4.7,0,7C1030.1,356.7,1029.9,356.3,1029.8,356z"/>
	<path class="st19" d="M1404,563.9c0-2.3,0.1-4.6,0.1-6.9c0.6,2.3,1.2,4.5,1.8,6.8C1405.3,563.8,1404.7,563.9,1404,563.9z"/>
	<path class="st22" d="M903.7,344.8c0.2,1.4,0.3,2.8,0.5,4.2c-0.2,0.4-0.3,0.7-0.5,1.1C899.9,348.4,899.9,346.6,903.7,344.8z"/>
	<path class="st12" d="M881.8,810c-2.8-2-2.9-4,0-6C881.8,806,881.8,808,881.8,810z"/>
	<path class="st19" d="M542.1,578c0-2,0-4,0-6C545,574,545,576,542.1,578z"/>
	<path class="st21" d="M1366.7,542.8c0,1.8,0,3.6,0,5.4C1364.4,546.4,1362.4,544.6,1366.7,542.8z"/>
	<path class="st23" d="M796.3,312.1c0-2.1,0-4.1,0-6.2C798.9,308,798.9,310,796.3,312.1z"/>
	<path class="st21" d="M1366.7,582.8c0,1.8,0,3.6,0,5.4C1364.4,586.4,1362.5,584.6,1366.7,582.8z"/>
	<path class="st12" d="M1309.2,804c1.3,0,2.6,0,3.8,0c0.7,0.4,1.4,0.9,2.1,1.3C1313,805.5,1310.4,807.9,1309.2,804z"/>
	<path class="st19" d="M1468.8,492c0,2,0,4,0,6C1466,496,1466,494,1468.8,492z"/>
	<path class="st22" d="M904.1,251.1c-0.1,1.7-0.3,3.4-0.4,5.1C901.1,254.2,899,252.3,904.1,251.1z"/>
	<path class="st12" d="M968,791.9c0.9-1.3,1.9-2.6,2.8-3.9C971.2,790.2,971.5,792.4,968,791.9z"/>
	<path class="st23" d="M886.3,306.1c0-1.7,0-3.5,0-5.2C889.3,302.7,889.3,304.4,886.3,306.1z"/>
	<path class="st19" d="M1054.2,708c0-1.7,0-3.3,0-5C1057.1,704.7,1057.1,706.3,1054.2,708z"/>
	<path class="st23" d="M796.3,289.1c0-1.4,0-2.8,0-4.2c0.8,0.6,1.6,1.2,2.5,1.9C797.9,287.5,797.1,288.3,796.3,289.1z"/>
	<path class="st21" d="M1366.6,550.8c0,1.8,0,3.6,0,5.4C1364,554.4,1364.1,552.6,1366.6,550.8z"/>
	<path class="st1" d="M1214,623c3.2,1.7,3.2,3.3,0,5C1213.9,626.3,1213.9,624.7,1214,623z"/>
	<path class="st19" d="M456.8,758c0,1.7,0,3.3,0,5C453.9,761.3,453.9,759.7,456.8,758z"/>
	<path class="st24" d="M1555.4,536.1c0,1.6,0,3.2-0.1,4.9C1555.3,539.3,1555.4,537.7,1555.4,536.1z"/>
	<path class="st22" d="M926.2,662.1c0-1.7,0.1-3.5,0.1-5.2C929,658.7,929,660.4,926.2,662.1z"/>
	<path class="st19" d="M1468.8,485c0,1.7,0,3.3,0,5C1465.9,488.3,1465.9,486.7,1468.8,485z"/>
	<path class="st10" d="M886,268c-3.2-1.7-3.2-3.3,0-5C886,264.7,886,266.3,886,268z"/>
	<path class="st19" d="M1366.5,495c0,1,0,2,0,3c-0.8-0.6-1.6-1.2-2.3-1.7C1364.9,495.8,1365.7,495.4,1366.5,495z"/>
	<path class="st23" d="M796.3,302.1c0-1.4,0-2.8,0-4.2C798.8,299.3,798.8,300.7,796.3,302.1z"/>
	<path class="st20" d="M1404.9,599c-1-1.7-2.3-3.5,1.2-3.9C1405.7,596.4,1405.3,597.7,1404.9,599z"/>
	<path class="st19" d="M456.8,748c0,1.3,0,2.7,0,4C454.2,750.7,454.2,749.3,456.8,748z"/>
	<path class="st14" d="M1041.2,819.9c-0.9-0.3-1.9-0.7-2.8-1c0.8-0.6,1.6-1.2,2.4-1.9C1040.9,818,1041,818.9,1041.2,819.9z"/>
	<path class="st5" d="M924.2,863c2.6,1.3,2.6,2.7,0,4C924.2,865.7,924.2,864.3,924.2,863z"/>
	<path class="st8" d="M793.9,682c-2.6-1.3-2.7-2.6-0.1-4C793.8,679.3,793.8,680.7,793.9,682z"/>
	<path class="st15" d="M904.9,341c1.5,1.7,2,3.3-0.9,4c0-1.4,0-2.7-0.1-4.1c0,0,0.5,0.1,0.5,0.1L904.9,341z"/>
	<path class="st12" d="M665,650.1c0-2-0.5-4.3,2.7-4.1C666.9,647.4,666,648.7,665,650.1z"/>
	<path class="st23" d="M886.3,297.1c0-1.4,0-2.8,0-4.2C888.8,294.3,888.8,295.7,886.3,297.1z"/>
	<path class="st19" d="M332,775.9c1,0.1,2,0.2,3,0.3c-0.6,0.8-1.2,1.6-1.8,2.5C332.8,777.7,332.4,776.8,332,775.9z"/>
	<path class="st19" d="M908,773.8c-1.3,0.1-2.7,0.1-4,0.2C905.2,771.2,906.6,771.2,908,773.8z"/>
	<path class="st14" d="M1039.8,813c-0.8-0.6-1.7-1.1-2.5-1.7c0.5-0.4,1-0.9,1.5-1.3C1039.2,811,1039.5,812,1039.8,813z"/>
	<path class="st23" d="M886.2,385.1c0-1.1,0-2.1,0-3.2c0.8,0.5,1.5,1.1,2.3,1.6C887.8,384,887,384.6,886.2,385.1z"/>
	<path class="st24" d="M1250.9,660.1c-0.9,0-1.7,0.1-2.6,0.1c0.2-0.7,0.4-1.4,0.6-2.2C1249.5,658.7,1250.2,659.4,1250.9,660.1z"/>
	<path class="st25" d="M1409.5,782.8c-1.5,0.1-3,0.2-4.5,0.2c1.7-0.4,3.4-0.7,5.1-1.1C1409.9,782.3,1409.7,782.6,1409.5,782.8z"/>
	<path class="st20" d="M1404.9,629c0-1,0-2,0-2.9C1404.9,627,1404.9,628,1404.9,629z"/>
	<path class="st9" d="M982.9,637c-0.6-0.6-1.2-1.2-1.7-1.7c0.6-0.4,1.1-0.8,1.7-1.3C982.9,635,982.9,636,982.9,637z"/>
	<path class="st19" d="M1030.2,369c0-1,0-2,0-3c0.6,0.4,1.1,0.9,1.7,1.3C1031.3,367.9,1030.7,368.4,1030.2,369z"/>
	<path class="st9" d="M904,375c0.6,0.4,1.2,0.8,1.8,1.3c-0.6,0.6-1.2,1.2-1.8,1.7C904,377,904,376,904,375z"/>
	<path class="st24" d="M903.6,436.1c0,0.9,0,1.8,0,2.8C903.5,438,903.5,437,903.6,436.1z"/>
	<path class="st12" d="M881.8,815c-0.6-0.6-1.1-1.2-1.7-1.7c0.6-0.4,1.1-0.9,1.7-1.3C881.8,813,881.8,814,881.8,815z"/>
	<path class="st4" d="M1591.8,507c-0.6-0.6-1.1-1.2-1.7-1.7c0.6-0.4,1.1-0.8,1.7-1.3C1591.8,505,1591.8,506,1591.8,507z"/>
	<path class="st19" d="M1404.2,554c0-1,0-2,0-3c0.6,0.6,1.1,1.2,1.7,1.7C1405.3,553.2,1404.7,553.6,1404.2,554z"/>
	<path class="st19" d="M544.2,747c0-1,0-2,0-3c0.6,0.6,1.1,1.2,1.7,1.7C545.3,746.2,544.7,746.6,544.2,747z"/>
	<path class="st9" d="M1248.4,584c-0.7-0.4-1.3-0.8-2-1.2c0.7-0.3,1.3-0.5,2-0.8C1248.4,582.7,1248.4,583.3,1248.4,584z"/>
	<path class="st21" d="M1366.6,654.8c0,1.1,0,2.3,0,3.4C1366.6,657.1,1366.6,655.9,1366.6,654.8z"/>
	<path class="st13" d="M1367,785.2c-1.4,0.6-2.7,1.2-4.1,1.8C1364.3,786.4,1365.6,785.8,1367,785.2z"/>
	<path class="st25" d="M652.9,666.3c-0.7-0.5-1.5-1.1-2.5-1.9c0.9-0.1,1.5-0.2,2-0.3C652.5,664.9,652.7,665.6,652.9,666.3z"/>
	<path class="st11" d="M985.8,618.2c0.4,1,0.8,1.9,1.2,2.9C986.6,620.1,986.2,619.1,985.8,618.2z"/>
	<path class="st19" d="M632.8,887c0,0.7,0,1.3,0,2c-0.5-0.3-1-0.7-1.5-1C631.9,887.7,632.4,887.3,632.8,887z"/>
	<path class="st12" d="M956,770.2c-0.3,0.5-0.7,1-1,1.5c-0.3-0.5-0.7-1-1-1.4C954.7,770.2,955.3,770.2,956,770.2z"/>
	<path class="st19" d="M1170,800.8c-0.7,0-1.3,0-2,0.1c0.3-0.5,0.7-1,1-1.5C1169.3,799.9,1169.7,800.3,1170,800.8z"/>
	<path class="st4" d="M1591.8,526c-0.5-0.3-1-0.7-1.5-1c0.5-0.3,1-0.7,1.5-1C1591.8,524.7,1591.8,525.3,1591.8,526z"/>
	<path class="st20" d="M881.7,847.1c-0.5-0.4-0.9-0.7-1.4-1.1c0.5-0.3,1-0.7,1.4-1C881.8,845.7,881.8,846.4,881.7,847.1z"/>
	<path class="st12" d="M881.8,800c-0.5-0.3-0.9-0.7-1.4-1c0.5-0.3,0.9-0.7,1.4-1C881.8,798.7,881.8,799.3,881.8,800z"/>
	<path class="st1" d="M494.8,695c-0.5-0.3-1-0.7-1.4-1c0.5-0.3,1-0.7,1.4-1C494.8,693.7,494.8,694.3,494.8,695z"/>
	<path class="st13" d="M1355,787.2c-1.3,0-2.6,0.1-3.9,0.1C1352.4,787.2,1353.7,787.2,1355,787.2z"/>
	<path class="st20" d="M565.3,602.9c0.5,0.4,0.9,0.7,1.4,1.1c-0.5,0.4-0.9,0.7-1.4,1.1C565.3,604.4,565.3,603.6,565.3,602.9z"/>
	<path class="st19" d="M1250.2,807c0-0.7,0-1.3,0-2c0.5,0.3,1,0.7,1.5,1C1251.1,806.3,1250.6,806.7,1250.2,807z"/>
	<path class="st8" d="M793.9,687c-0.5-0.4-1-0.8-1.5-1.2c0.5-0.3,1-0.5,1.5-0.8C793.9,685.7,793.9,686.3,793.9,687z"/>
	<path class="st21" d="M1366.8,591c0.3,0.3,0.7,0.5,1,0.8c-0.4,0.4-0.7,0.8-1.1,1.2C1366.8,592.3,1366.8,591.7,1366.8,591z"/>
	<path class="st19" d="M544.2,741c0-0.7,0-1.3,0-2c0.5,0.3,1,0.7,1.4,1C545.1,740.3,544.7,740.7,544.2,741z"/>
	<path class="st25" d="M666,794c-0.7,0.3-1.3,0.5-2,0.8C664.7,794.6,665.3,794.3,666,794z"/>
	<path class="st19" d="M456.8,580c0,0.7,0,1.3,0,2c-0.5-0.3-1-0.7-1.4-1C455.9,580.7,456.4,580.3,456.8,580z"/>
	<path class="st25" d="M873,538c-0.7,0.3-1.3,0.5-2,0.8C871.7,538.6,872.3,538.3,873,538z"/>
	<path class="st1" d="M620,563.2c-1,0.3-2,0.5-3,0.8C617.9,563.7,619,563.5,620,563.2z"/>
	<path class="st24" d="M1248.7,512.1c-0.3-1-0.5-2-0.8-3C1248.2,510.1,1248.5,511.1,1248.7,512.1z"/>
	<path class="st20" d="M565.2,724.9c0.4,0.2,0.8,0.4,1.2,0.6c-0.4,0.2-0.8,0.4-1.2,0.6C565.2,725.7,565.2,725.3,565.2,724.9z"/>
	<path class="st21" d="M1366.7,567.8c0,0.5,0,0.9,0,1.4c-0.4-0.2-0.8-0.5-1.2-0.7C1365.8,568.3,1366.3,568,1366.7,567.8z"/>
	<path class="st22" d="M1555.8,654.9c0,0.4,0,0.8,0,1.2c-0.4-0.2-0.8-0.4-1.2-0.6C1555,655.3,1555.4,655.1,1555.8,654.9z"/>
	<path class="st21" d="M1366.6,599.8c0,0.5,0,0.9,0,1.4c-0.4-0.2-0.8-0.5-1.2-0.7C1365.8,600.3,1366.2,600,1366.6,599.8z"/>
	<path class="st21" d="M1366.7,607.8c0,0.4,0,0.9,0,1.3c-0.4-0.2-0.8-0.5-1.2-0.7C1365.8,608.3,1366.3,608.1,1366.7,607.8z"/>
	<path class="st7" d="M1405.1,797.7c0.7-0.2,1.3-0.4,2-0.7C1406.4,797.2,1405.7,797.5,1405.1,797.7z"/>
	<path class="st21" d="M1366.6,615.8c0,0.5,0,0.9,0,1.4c-0.4-0.2-0.7-0.3-1.1-0.5C1365.9,616.4,1366.2,616.1,1366.6,615.8z"/>
	<path class="st21" d="M1366.6,623.8c0,0.5,0,0.9,0,1.4c-0.4-0.2-0.8-0.5-1.2-0.7C1365.8,624.3,1366.2,624,1366.6,623.8z"/>
	<path class="st21" d="M1366.6,647.8c0,0.5,0,0.9,0,1.4c-0.4-0.2-0.7-0.4-1.1-0.5C1365.8,648.4,1366.2,648.1,1366.6,647.8z"/>
	<path class="st20" d="M952.1,533.2c-0.3,0.6-0.6,1.2-0.9,1.8C951.5,534.4,951.8,533.8,952.1,533.2z"/>
	<path class="st12" d="M970.7,770c-0.2-0.3-0.5-0.5-0.7-0.8C970.3,769.5,970.5,769.7,970.7,770z"/>
	<path class="st26" d="M369.3,697c0.3-0.3,0.5-0.6,0.8-0.8C369.8,696.5,369.5,696.7,369.3,697z"/>
	<path class="st18" d="M1358,801.8c0.3,0,0.6,0,0.9-0.1l-0.5,0.2L1358,801.8z"/>
	<path class="st1" d="M987.6,546c-0.3-0.1-0.5-0.4-0.6-0.7C987.2,545.5,987.4,545.7,987.6,546z"/>
	<path class="st7" d="M1393,798.8c0.3,0,0.6,0,0.9-0.1l-0.5,0.2L1393,798.8z"/>
	<path class="st18" d="M1153,515.2c-0.3,0-0.6,0-0.9,0C1152.3,515.1,1152.7,515.1,1153,515.2z"/>
	<path class="st1" d="M987.9,547.7c0,0,0-0.3,0-0.3c0.2,0,0.5,0,0.7,0.1C988.4,547.6,988.1,547.6,987.9,547.7z"/>
	<path class="st19" d="M1554,505.1c0.3,0.3,0.7,0.6,1,0.9C1554.7,505.7,1554.3,505.4,1554,505.1z"/>
	<path class="st27" d="M735,811c0.3,0.2,0.5,0.3,0.8,0.5c-0.3,0.1-0.5,0.2-0.8,0.3C735,811.5,735,811.3,735,811z"/>
	<path class="st20" d="M1504,666.8c0.3-0.3,0.5-0.6,0.8-0.8C1504.5,666.2,1504.2,666.5,1504,666.8z"/>
	<path class="st22" d="M1591.9,657.9c0.2-0.3,0.3-0.7,0.5-1C1592.2,657.3,1592,657.6,1591.9,657.9z"/>
	<path class="st27" d="M1620.9,468.5l-0.4,0.2l-0.5-0.1C1620.3,468.7,1620.6,468.6,1620.9,468.5z"/>
	<path class="st23" d="M604.2,672c0.3-0.3,0.5-0.6,0.8-0.9C604.8,671.4,604.5,671.7,604.2,672z"/>
	<path class="st19" d="M1228.1,814c0.3-0.3,0.6-0.5,1-0.8C1228.7,813.5,1228.4,813.7,1228.1,814z"/>
	<path class="st20" d="M1404,676.8c0.3-0.3,0.5-0.6,0.8-0.9C1404.5,676.3,1404.2,676.6,1404,676.8z"/>
	<path class="st12" d="M1329,789.3c-0.3,0-0.6,0.1-0.9,0.1C1328.3,789.2,1328.6,789.1,1329,789.3z"/>
	<path class="st9" d="M1021,341.2c-0.4,0.2-0.8,0.5-1.1,0.7C1020.2,341.7,1020.6,341.4,1021,341.2z"/>
	<path class="st22" d="M904.9,341l-0.5,0c0,0-0.5-0.1-0.5-0.1c-0.1-0.3-0.1-0.6,0-0.8C904.3,340.4,904.6,340.7,904.9,341z"/>
	<path class="st13" d="M1332,787.2c-0.4,0.3-0.7,0.5-1.1,0.8C1331.3,787.7,1331.6,787.4,1332,787.2z"/>
	<path class="st19" d="M1228,767c0.3-0.3,0.7-0.5,1-0.8C1228.6,766.5,1228.3,766.7,1228,767z"/>
	<path class="st11" d="M985.1,617c0.2,0.4,0.5,0.8,0.7,1.2C985.6,617.8,985.4,617.4,985.1,617z"/>
	<path class="st13" d="M1409.5,782.8c0.2-0.3,0.4-0.5,0.6-0.8c0.3,0.1,0.6,0.2,0.9,0.3C1410.5,782.5,1410,782.7,1409.5,782.8z"/>
	<path class="st12" d="M673,634.8c0-0.3,0-0.6,0-0.9c0.2,0.3,0.5,0.5,0.7,0.8C673.5,634.7,673.2,634.8,673,634.8z"/>
	<path class="st20" d="M1505.1,637.1c0-0.4,0-0.8,0-1.2c0.2,0.3,0.5,0.5,0.7,0.8C1505.5,636.8,1505.3,637,1505.1,637.1z"/>
	<path class="st27" d="M820.9,148l-0.3,0.3c0,0-0.4-0.1-0.4-0.1C820.4,148.1,820.7,148,820.9,148z"/>
	<path class="st25" d="M1225,868l0.3-0.3c0,0,0.4,0.2,0.4,0.2C1225.5,868,1225.2,868,1225,868z"/>
	<path class="st13" d="M1335,803.8c0.3,0,0.6,0,1,0l-0.5,0.2L1335,803.8z"/>
	<path class="st0" d="M369.2,664.9c0-17.1,0-34.2,0-51.9c6.9,0,13.7-0.5,20.4,0.1c5.8,0.5,9.5,4.9,9.9,10.4
		c0.5,9.5,0.4,19.2-0.5,28.7c-0.7,7.6-6.7,11.2-13.6,12.5c-5,1-10.2,0.8-15.4,1.1C369.7,665.6,369.4,665.3,369.2,664.9z"/>
	<path class="st22" d="M369.2,664.9c0.3,0.3,0.6,0.7,0.9,1C369.7,665.6,369.4,665.3,369.2,664.9z"/>
	<path class="st0" d="M884.2,689.7c-3.6,12.1-22,12.6-26.1,3.4c-2.3-5.2-2.5-11.4-2.8-17.2c-0.5-8.3-0.2-16.6-0.3-24.9
		c0.1-18.3,0.1-36.6,0.3-55c0.1-5.8,0.3-11.7,1.6-17.3c2.1-9.5,7.1-12.6,17.1-11.8c6.8,0.6,11.4,5.6,11.9,14.1c0.6,9,0.7,18,0.7,27
		c0.1,21.2,0.2,42.3,0,63.5C886.6,677.6,885.1,683.7,884.2,689.7z"/>
	<path class="st8" d="M854.6,256.7c-0.1,0.3-0.2,0.7-0.4,0.8c-0.2,0.1-0.5-0.2-0.8-0.3c0.1-0.3,0.2-0.7,0.4-0.8
		C854,256.3,854.3,256.6,854.6,256.7z"/>
	<path class="st8" d="M834.6,295.3c-0.3,0.1-0.6,0.4-0.8,0.3c-0.2-0.1-0.2-0.5-0.4-0.8c0.3-0.1,0.6-0.4,0.8-0.3
		C834.5,294.6,834.5,295,834.6,295.3z"/>
	<path class="st9" d="M977.9,379.3c-1.1-2.3-1.9-3.9-2.7-5.8C980,374,980.3,374.7,977.9,379.3z"/>
	<path class="st0" d="M1142.3,614c1.3,7.7,2.6,15.4,3.9,23c-8.1,0.9-16.2,1.8-24.3,2.5c-0.3,0-1.1-2.1-1-3.1
		c1.7-12.2,3.5-24.3,5.3-36.4c0.3-1,0.5-2,0.8-3c0.8-4.9,1.7-9.9,2.5-14.8c1-6,1.9-12.1,2.9-18.1c0.4,0,0.9,0,1.3,0
		C1136.5,580.7,1139.4,597.3,1142.3,614z"/>
	<path class="st7" d="M742.6,653.7c-0.1,0.3-0.2,0.6-0.4,0.8c-0.3-0.1-0.7-0.2-0.8-0.4c-0.1-0.2,0.2-0.5,0.3-0.8
		C742,653.5,742.3,653.6,742.6,653.7z"/>
	<path class="st28" d="M835.8,831.6c0.2,1,0.5,2.1,0.7,3.1c-0.3,0.1-0.6,0.2-0.9,0.3c-0.2-1-0.4-2.1-0.6-3.1
		C835.2,831.7,835.5,831.7,835.8,831.6z"/>
	<path class="st17" d="M930.9,323.6c-0.2,1-0.4,1.9-0.6,2.9c-0.6-0.4-1.3-0.7-1.9-1.1c0.5-0.8,1-1.5,1.5-2.3
		C930.2,323.3,930.5,323.4,930.9,323.6z"/>
	<path class="st16" d="M1389.9,564.8c-1.2-0.9-2.4-1.8-4.7-3.4c2-0.6,3.6-1.5,4-1.1c1,0.9,1.4,2.4,2,3.6
		C1390.8,564.3,1390.3,564.6,1389.9,564.8z"/>
	<path class="st0" d="M753.1,821.1c1.7,9,3.4,18,5.1,26.9c1.3,5.7,2.5,11.5,3.9,17.8c-5.7,0.8-11.2,1.5-16.5,2.2
		c2.2-14.8,4.3-29,6.4-43.3C752.2,823.5,752.8,822.3,753.1,821.1z"/>
	<path class="st5" d="M975,146.2c-0.3,0.5-0.5,0.9-0.7,1.3c-0.4-0.3-0.9-0.6-1.1-1c-0.1-0.1,0.4-0.8,0.7-0.9
		C974.1,145.5,974.6,145.9,975,146.2z"/>
	<path class="st4" d="M1478.6,595.7c-0.1,0.3-0.2,0.7-0.4,0.8c-0.2,0.1-0.5-0.2-0.8-0.3c0.1-0.3,0.2-0.7,0.4-0.8
		C1478,595.3,1478.3,595.6,1478.6,595.7z"/>
	<path class="st0" d="M604,629c0.1-10.7,0.2-21.5,0.3-32.2c0-1.6,0.5-3.2,0.7-4.8c7.3,0,14.7,0,22,0c8.1,3.6,9.3,11.2,9.8,18.6
		c0.4,6.2,0,12.7-1.3,18.8c-2.1,9.2-9,13.3-19.9,13.7c-2.5,0.1-5.1,0.6-7.6,0.9c-1,0-1.9,0-2.9-0.1c-0.3-0.3-0.6-0.6-0.9-1
		C604.1,638.3,604,633.6,604,629z"/>
	<path class="st1" d="M665.6,630.7c-0.1,0.3-0.2,0.7-0.4,0.8c-0.2,0.1-0.5-0.2-0.8-0.3c0.1-0.3,0.2-0.7,0.4-0.8
		C665,630.3,665.3,630.6,665.6,630.7z"/>
	<path class="st22" d="M604.2,642.9c0.3,0.3,0.6,0.6,0.9,1C604.7,643.6,604.5,643.3,604.2,642.9z"/>
	<path class="st11" d="M993,609.4c1.1-0.8,2.3-1.6,3.5-2.2c0.1-0.1,0.9,1,1.3,1.6c-1.2,0.9-2.3,1.7-3.5,2.6
		C993.9,610.7,993.4,610.1,993,609.4z"/>
	<path class="st11" d="M991.3,610.9c-0.9,0.2-1.8,0.5-2.7,0.7c-0.1-0.6-0.2-1.2-0.3-1.8c1-0.1,1.9-0.2,2.9-0.3
		C991.2,609.9,991.3,610.4,991.3,610.9z"/>
	<path class="st2" d="M956.4,610.9c0.5,0.9,1.1,1.4,1.1,1.9c0,0.3-0.9,1-1.2,0.9c-0.4-0.1-1-0.8-1-1.3
		C955.2,612.1,955.8,611.6,956.4,610.9z"/>
	<path class="st6" d="M1129.4,582.2c-0.8,4.9-1.7,9.9-2.5,14.8c-2,0-4.1,0.4-5.9-0.1c-2-0.5-5.3-1.8-5.3-2.8
		c-0.1-2.8,1.3-5.5,5.1-5.1c0.5,0,1-0.2,2.5-0.5c0-4.6-0.1-9.4,0.1-14.2c0.1-1.4,1.1-2.7,1.7-4c1,1.2,2.5,2.2,2.9,3.6
		C1128.7,576.5,1128.9,579.4,1129.4,582.2z"/>
	<path class="st0" d="M1021.2,835c0.6,2.3,1.2,4.7,1.8,7c-5.2,0.8-10.5,1.6-16.3,2.4c0.8-6.8,1.6-12.6,2.3-18.4
		c0.3-0.2,0.4-0.5,0.3-0.9c1.2-7,2.4-14.1,3.5-21.1c0.1-2.3,0.1-4.6,0.2-6.9c0.7,0,1.3,0,2,0l0,0c0.4,2,0.7,4,1.1,6
		c0,0.7,0.1,1.3,0.1,2c0.2,1.4,0.5,2.9,0.7,4.3c0.1,0.9,0.2,1.8,0.3,2.7c0.5,2.7,1.1,5.4,1.6,8.1c0.5,2.3,0.9,4.6,1.4,6.9
		c0.2,1.2,0.4,2.4,0.7,3.5c0.1,0.8,0.2,1.6,0.4,2.5C1021.2,833.7,1021.2,834.3,1021.2,835z"/>
	<path class="st12" d="M1012.8,804c-1.2,7-2.4,14.1-3.5,21.1c-2.7-6.1-1.8-12.4-0.7-18.6C1008.7,805.5,1011.3,804.8,1012.8,804z"/>
	<path class="st12" d="M1018.8,820.1c-0.5-2.7-1.1-5.4-1.6-8.1c1.6,1.3,3.6,2.4,4.6,4.1C1022.1,816.6,1019.8,818.7,1018.8,820.1z"/>
	<path class="st12" d="M1016.1,803c-0.4-2-0.7-4-1.1-6c1.2,0.4,2.4,0.8,4.6,1.5C1018.1,800.4,1017.1,801.7,1016.1,803z"/>
	<path class="st12" d="M1016.8,809.3c-0.2-1.4-0.5-2.9-0.7-4.3C1016.4,806.4,1016.6,807.9,1016.8,809.3z"/>
	<path class="st12" d="M1020.8,830.5c-0.2-1.2-0.4-2.4-0.7-3.5C1020.4,828.2,1020.6,829.4,1020.8,830.5z"/>
	<path class="st12" d="M1015,797c-0.7,0-1.3,0-2,0c0.3-0.8,0.6-1.6,1.3-3.7C1014.7,795.5,1014.8,796.3,1015,797z"/>
	<path class="st14" d="M1021.2,835c0-0.7,0-1.3-0.1-2c0.5,0.3,1,0.6,1.5,1C1022.1,834.3,1021.7,834.7,1021.2,835z"/>
	<path class="st12" d="M1027.6,797.7c-0.1,0.3-0.2,0.7-0.4,0.8c-0.2,0.1-0.5-0.2-0.8-0.3c0.1-0.3,0.2-0.7,0.4-0.8
		C1027,797.4,1027.4,797.6,1027.6,797.7z"/>
	<path class="st11" d="M1053.8,574c0,0.7,0,1.3,0,2c-0.5-0.3-1-0.7-1.4-1C1052.9,574.7,1053.4,574.3,1053.8,574z"/>
	<path class="st4" d="M1364.8,796.9c-0.5,0.4-0.8,0.8-1.1,0.9c-0.4,0-0.8-0.3-1.2-0.4c0.3-0.4,0.6-0.9,1-1.1
		C1363.7,796.1,1364.2,796.6,1364.8,796.9z"/>
	<path class="st1" d="M1235.4,620.2c-0.7,0.7-1.2,1.4-1.5,1.3c-0.5-0.1-1.1-0.6-1.3-1.1c-0.1-0.2,0.6-1.1,1-1.2
		C1233.9,619.2,1234.5,619.7,1235.4,620.2z"/>
	<path class="st5" d="M597.6,695.7c-0.1,0.3-0.2,0.6-0.4,0.8c-0.3-0.1-0.7-0.2-0.8-0.4c-0.1-0.2,0.2-0.5,0.3-0.8
		C597,695.5,597.3,695.6,597.6,695.7z"/>
</g>
</svg>
